
<svg width="300" height="300" version="1.1" viewBox="0 0 79.375 79.375" xmlns="http://www.w3.org/2000/svg">
<g transform="translate(48.625 151.86)" stroke-width=".099839px">
<path d="m-26.77-149.59c-0.76006 6e-3 -1.6588 0.19045-2.4039 0.84754-1.6445 1.4501-2.3921 2.7002-2.5416 4.5004s2.3921 3.0003 2.3921 3.0003l12.359 4.8504s-1.6445 1.7002-3.1396 1.9502c-1.495 0.25002-0.79736 1.8502-0.79736 1.8502s-3.1396 0.70007-3.6878 1.5502c-0.42806 0.66379-0.64785 1.5501 0.39868 3.2503l-1.0964 0.65006s-15.847 8.6008-13.954 24.602c0 0-5.6812 4.8004-3.0898 10.001 0 0-3.9868 7.0006-3.5881 16.301 0 0 7.0765-4.7004 14.253-6.1006 0 0 12.558 9.3008 23.422 7.7007s15.947-3.7003 23.422-15.401c0 0 13.854-3.9004 8.0732-14.501 0 0 2.3921-6.1006 5.6812-8.1007l-13.356-0.80007-0.79736-2.7002s-1e-6 0.60006-0.9967 1.5001c0 0-0.79736-4.3004-0.39868-6.6006l1.2957-1.6502s1.4463 1.5576 2.9403 1.0001c1.9872-0.7416 2.7409-2.1502 3.0399-3.3503 0.29901-1.2001 0.19934-3.0003-0.59802-3.8003 0 0-1.3455-1.1001-2.5416-0.60006 0 0 0.44851-2.0502-0.79736-2.9003-1.2459-0.85008-4.6845-2.1502-6.0798-1.7002 0 0-2.2924-2.1502-4.236-2.1002s-1.8937 0.95008-2.9403 0.60005l-28.605-13.601s-0.71537-0.25426-1.6327-0.24748zm26.17 19.806c0.066546 0.0147 0.13299 0.0293 0.19934 0.0437 0.20567 0.0814 0.41123 0.16262 0.61671 0.24378 0.12053 0.0522 0.24097 0.10427 0.3613 0.15626 0.056164 0.0522 0.11223 0.10428 0.16819 0.15626 0.031246 0.0647 0.062392 0.12928 0.09344 0.19377 0.054088 0.17928 0.10807 0.35846 0.16196 0.53755 0.037476 0.11261 0.07485 0.22512 0.11213 0.33753-0.00406 0.0168-0.0082 0.0334-0.012459 0.05-0.060118-0.0145-0.12033-0.0291-0.18065-0.0437-0.15979-0.0707-0.31967-0.14158-0.47966-0.21252-0.1847-0.077-0.36951-0.15408-0.55441-0.23127-0.25946-0.13324-0.51901-0.26659-0.77867-0.40004 0 0 0.025016-0.22491 0.037376-0.33753 0.008414-0.0791 0.016712-0.15824 0.024918-0.23752 0.020864-0.052 0.041628-0.10407 0.062294-0.15626 0.022941-0.0228 0.045781-0.0457 0.068523-0.0688 0.033323-0.0103 0.066546-0.0207 0.09967-0.0312z" fill="#c3d1da" stroke="#c3d1da"/>
<path d="m-35.404-105.24 0.04984 4.5504-2.9901 2.7002-0.09967 3.2003 0.54818 2.8503-2.3422 8.2007 10.814-2.2502 5.9303 5.4505 6.628 2.7502 8.3722 0.55005 5.5317-1.2501 6.329-3.0003 3.6379-3.0503 3.9369-4.9504 1.7442-4.1004 6.329-2.8003 1.1462-3.7003-1.196-3.8003 1.6445-4.8504-0.34884-1.1501-31.496 0.40003-6.628 3.7503-6.5284-5.3005-8.8706 3.5003z" fill="#fff" stroke="#fff"/>
<path d="m-24.091-120.06s0.47343 1.0001 0.09967 4.0254-0.59802 3.8754-0.59802 3.8754l-5.9303 2.7002-2.0931-0.55005 0.9967-4.2004 5.0582-5.6005z" fill="#fff" stroke="#fff"/>
</g>
<g transform="translate(177.3 -62.923)">
<path d="m-155.22 66.388c-0.79891-0.0038-0.94764 0.02502-1.3545 0.26503-1.0772 0.63544-1.8107 1.9047-1.8673 3.2306-0.0308 0.72116-7e-3 0.8531 0.24795 1.3392 0.15529 0.29661 0.44017 0.66765 0.63274 0.82389 0.22447 0.18212 2.4725 1.1277 6.2634 2.6356 3.2523 1.2936 5.9871 2.3963 6.078 2.4495 0.0909 0.05327 0.17954 0.098 0.19644 0.09967 0.0169 0.0017 0.22921-0.18323 0.47162-0.41121 1.0768-1.0127 1.6015-1.1465 2.6384-0.67181 0.45253 0.20715 0.6075 0.23409 0.89614 0.15651l0.34875-0.09376-0.29945-0.13658c-0.16446-0.07514-2.4513-1.0421-5.0826-2.1491-5.8057-2.4423-8.6118-3.6717-8.8518-3.8781-0.15358-0.13211-0.17018-0.24865-0.11256-0.78846 0.0565-0.52891 0.0382-0.66515-0.10964-0.82906-0.26392-0.29263-0.41492-0.23916-0.49221 0.17423-0.14194 0.75914-0.62605 1.4129-1.1757 1.588-0.29467 0.09384-0.59224-0.28459-0.50619-0.64376 0.0939-0.39194 0.48643-1.1436 0.77989-1.4935 0.32601-0.38877 1.0297-0.66712 1.495-0.59134 0.32554 0.05301 1.7223 0.71028 7.3781 3.472 1.2608 0.61566 2.6516 1.2897 3.0902 1.4979 0.43854 0.20819 1.8731 0.90634 3.1887 1.5511 3.4669 1.699 4.0428 1.9576 4.171 1.8759 0.0632-0.04028 0.51902-0.09833 1.0124-0.1292 0.76853-0.04807 0.86094-0.07205 0.64746-0.16758-0.13705-0.06133-1.3702-0.6604-2.7407-1.3318-1.3705-0.67142-3.075-1.5032-3.7876-1.8479s-2.1924-1.0648-3.2888-1.6005c-1.0964-0.53572-2.7112-1.3236-3.5883-1.7504-0.87708-0.42677-2.4466-1.1953-3.4882-1.7083l-1.8938-0.93242zm21.894 10.252 0.33182 0.49463c0.18239 0.27194 0.36098 0.62728 0.39657 0.78993 0.0356 0.16265 0.11747 0.33634 0.18247 0.38537s1.3629 0.69015 2.8841 1.4248 2.7657 1.3861 2.7657 1.4477c0 0.18324-0.22272 0.35215-0.46499 0.35215-0.2063 0-2.2844-0.76962-4.4182-1.6367-1.3841-0.56244-1.3592-0.31632 0.12434 1.2277 0.6167 0.64186 1.228 1.3683 1.3582 1.6146 0.23563 0.44577 0.24405 0.45072 1.9932 1.1509l1.757 0.70356-0.031 0.49537c-0.0263 0.42034 0.0593 0.70991 0.56948 1.9187 0.69801 1.6538 0.92844 2.4614 0.88657 3.1095-0.0276 0.42734-0.0622 0.4817-0.42894 0.6814-0.21927 0.1194-0.88148 0.31238-1.4722 0.42893-0.59074 0.11655-1.3533 0.31291-1.6944 0.43631l-0.62024 0.22443-1.317-1.4042-0.0692-0.94497c-0.10499-1.4315-0.4324-3.1807-0.70778-3.7843-0.13539-0.29674-0.43883-0.8166-0.67469-1.1554s-0.4672-0.67856-0.51429-0.75524c-0.16439-0.26768 0.56359 0.23005 1.1058 0.75597l0.53195 0.51604v-0.33222c0-0.53357-0.33752-1.4744-0.75709-2.1092-0.2138-0.3235-0.86005-1.0683-1.4362-1.6552l-1.0477-1.0675 0.13391-0.32926c0.0737-0.18127 0.10869-0.45583 0.078-0.6098-0.0634-0.31848 0.0927-0.38428 0.18909-0.07973 0.10542 0.33328 0.24868 0.22482 0.24868-0.18826 0-0.59849-0.45625-1.3789-1.0448-1.7858-0.46246-0.31978-0.53428-0.33883-1.0462-0.28054-1.3236 0.1507-1.4277 0.17949-1.7768 0.50054l-0.34653 0.31893-0.60332-0.24436c-0.507-0.20548-0.72246-0.2372-1.356-0.20007-0.6831 0.04004-0.86263 0.10019-1.9277 0.64671-0.64596 0.33147-1.1962 0.56734-1.2228 0.52416s0.15401-0.24848 0.40171-0.45624c0.24771-0.20776 0.45102-0.40531 0.45102-0.43926s-0.22389-0.16678-0.49737-0.2953c-0.40731-0.19142-0.54152-0.2141-0.74016-0.12329-0.42671 0.19508-1.5359 1.5995-1.7158 2.1719-0.15116 0.48116-0.22186 0.55847-0.94617 1.0343-0.43053 0.28283-1.1657 0.72226-1.6334 0.97598-0.46764 0.25372-0.89385 0.54365-0.94763 0.64449-0.12704 0.23791-0.12547 0.75812 3e-3 0.99886 0.0906 0.16994-0.0192 0.24632-1.072 0.74859-0.64481 0.30764-1.4938 0.65791-1.8872 0.77886-0.53765 0.1653-0.75475 0.28625-0.8726 0.48577-0.22514 0.38117-0.19545 0.60055 0.14274 1.069 0.23313 0.32292 0.29872 0.51924 0.29872 0.89255 0 0.45183 0.0361 0.51668 0.63789 1.1509 0.35073 0.36968 0.71418 0.67255 0.80786 0.67255 0.11484 0 0.15071 0.05203 0.10962 0.15946-0.18866 0.49333-0.17934 0.65665 0.0522 0.90953 0.16562 0.18086 0.19837 0.27167 0.10962 0.30342-0.36438 0.13035-1.3164 0.97044-1.4759 1.3023-0.17527 0.36466-0.30392 1.3962-0.22219 1.7836 0.0339 0.16032 0.0688 0.13906 0.21189-0.13141 0.20123-0.3803 0.74978-1.0269 0.87113-1.0269 0.0464 0-0.0741 0.33341-0.26708 0.74121-0.40146 0.84825-0.46082 1.38-0.63495 5.6595-0.0526 1.2926-0.12465 2.4853-0.16039 2.6503l-0.0655 0.29973 0.36052-0.34329c0.1981-0.1888 0.4548-0.52632 0.57021-0.75007l0.20968-0.40678-0.053 0.7006c-0.0486 0.64671-0.35138 1.8279-0.54519 2.1269-0.0647 0.0999-0.18282 0.0827-0.54887-0.0797-1.0139-0.45003-2.0857-0.34782-3.3749 0.32114-0.43153 0.22394-1.0848 0.46233-1.495 0.54557-0.40071 0.0813-1.2337 0.31835-1.8504 0.52712s-1.1213 0.34331-1.1213 0.29899c0-0.16591 0.74467-1.7721 1.2236-2.64 1.2928-2.343 3.0679-4.5009 5.1466-6.256l0.53856-0.45477-0.20381-0.69544c-0.29189-0.99447-0.33249-1.393-0.22145-2.1786 0.13054-0.92359 0.40476-1.5166 0.96825-2.0922l0.46572-0.47543-0.42967-0.43115-0.96678 0.57953c-2.4776 1.4835-5.5066 4.2263-7.2434 6.5601-3.1337 4.2108-4.8534 8.8098-5.2628 14.074-0.0586 0.75364-0.0928 1.7974-0.0758 2.3189l0.0316 0.94792-0.44881 0.2451c-0.24668 0.13493-0.76641 0.56362-1.1551 0.95234-1.5517 1.5517-2.1965 3.9779-1.5694 5.9068 0.1736 0.53393 0.68969 1.4115 0.96383 1.6382 0.15226 0.1259 0.13824 0.16858-0.16996 0.51087-1.4669 1.6292-2.6834 5.3546-3.4374 10.528-0.0602 0.41311-0.0515 0.5751 0.0302 0.5751 0.0625 0 0.6497-0.20563 1.3052-0.45698 1.6819-0.6449 4.8917-1.7078 7.5208-2.4901 1.2334-0.36705 2.5868-0.77033 3.007-0.89625l0.76371-0.22886 0.73133 0.74491c4.3135 4.3947 10.12 7.1315 16.379 7.7207 1.3331 0.12548 4.204 0.0541 5.6807-0.14174 4.882-0.64736 9.6201-2.7231 13.306-5.8285 2.787-2.3481 4.9984-5.1479 6.6865-8.4663l0.76151-1.4972 0.83581-0.18087c3.2867-0.70947 5.6177-2.2904 6.6806-4.5307 0.50821-1.0711 0.69229-1.803 0.75488-3.0003 0.0801-1.5324-0.31113-2.7995-1.1647-3.7725l-0.39289-0.44886 0.59375-0.97818c0.32681-0.53786 1.2689-1.9452 2.0932-3.1273 0.82434-1.1821 1.4822-2.1657 1.4619-2.186-0.0534-0.0536-5.3278-0.32944-7.9343-0.4149-1.8272-0.0599-2.2472-0.10015-2.3154-0.22295-0.0459-0.0825-0.22137-0.52061-0.39068-0.97376l-0.30828-0.8239-0.32153 0.42376c-0.38918 0.51303-1.367 1.0424-2.1565 1.1672-0.3015 0.0477-0.55858 0.0771-0.57094 0.0657-0.0124-0.0114 0.28506-0.33605 0.6607-0.72128 0.37565-0.38523 0.76492-0.85479 0.86451-1.0439 0.25856-0.49094 0.29901-1.9668 0.10374-3.7644-0.0884-0.81402-0.20373-2.1981-0.25604-3.0756l-0.0949-1.5954 0.46867-0.51087c0.25782-0.28102 0.62862-0.68849 0.82404-0.9051 0.19541-0.21662 0.63042-0.6551 0.96677-0.9745 0.33637-0.3194 0.63938-0.66828 0.67321-0.77517 0.077-0.24333 0.21451-0.24413 0.60626-0.0044 0.26093 0.15965 0.31747 0.2669 0.36788 0.69396 0.1194 1.0116 0.6663 1.578 1.4163 1.4669 1.734-0.25672 3.3019-3.4587 2.4817-5.0674-0.39141-0.76765-1.2098-0.8853-2.0756-0.29899l-0.4672 0.31597-0.49295-0.21262c-0.55047-0.23761-0.62257-0.44111-0.30166-0.85047 0.33103-0.42227 0.35794-0.9606 0.078-1.5607-0.51489-1.1037-1.1153-1.4876-3.6582-2.3418-1.1077-0.3721-1.587-0.48506-2.0542-0.48356-0.56456 0.0015-0.62119-0.01906-0.77033-0.2798-0.21306-0.37251-0.84308-0.6408-2.0652-0.87852-1.4845-0.28876-1.9012-0.26057-2.7348 0.18604l-0.6975 0.3743-3.1394-1.537c-1.7268-0.84527-3.4232-1.6681-3.7692-1.8287-0.34605-0.16058-0.89111-0.42523-1.2118-0.58765zm-1.9762 0.79953c0.21663 0.0021 0.36949 0.04075 0.44366 0.11517 0.17339 0.17397 0.14765 0.32674-0.0302 0.17866-0.29015-0.24162-1.4786 0.13564-1.5958 0.50644-0.0323 0.1022 0.0148 0.29752 0.10448 0.43483 0.0897 0.13731 0.14773 0.32015 0.1295 0.40604-0.0229 0.10807-0.16338 0.0039-0.45617-0.33812l-0.42306-0.49389 0.2509-0.29973c0.17699-0.21105 0.3987-0.33077 0.75194-0.40678 0.32782-0.07055 0.60814-0.1047 0.82477-0.10262zm-6.763 3.5104c0.0222 0.0118-0.0481 0.04487-0.19056 0.11l-0.29061 0.13288 0.41349 0.12477c0.22766 0.06844 0.45531 0.20098 0.50546 0.2953 0.0812 0.15287 0.0247 0.17269-0.52165 0.18161-0.55548 0.0091-0.7548 0.08169-2.1315 0.77517-0.8353 0.42077-1.5577 0.76557-1.6047 0.76557s-0.16213-0.0856-0.25604-0.18973c-0.15724-0.17434-0.15847-0.21908-0.0155-0.56255 0.1254-0.30117 0.18206-0.35038 0.2943-0.25691 0.10957 0.09125 0.43832-0.03576 1.5539-0.60094 0.98417-0.4986 1.5569-0.72922 1.8798-0.75745 0.22728-0.0199 0.34134-0.02953 0.36346-0.01773zm19.254 0.51604c0.16637-0.02269 0.31414-0.0027 0.55328 0.04577 0.97478 0.1968 1.6656 0.51089 1.7349 0.78772 0.0965 0.38598-0.0965 0.49224-0.37891 0.20892-0.18429-0.18491-0.39251-0.2573-0.88438-0.30785-0.73207-0.07524-1.1594 0.02055-1.7033 0.38168-0.45174 0.29996-0.61035 0.58967-0.78431 1.4366-0.22365 1.0889-0.18362 1.3552 0.41497 2.7662 0.6703 1.5802 0.71598 1.7537 0.58492 2.2421-0.0568 0.21155-0.17053 0.44051-0.25237 0.50866-0.12704 0.10579-0.14862 0.07381-0.14862-0.22 0-0.56101-0.25622-1.2648-0.955-2.6267-0.74845-1.4587-0.74716-1.4467-0.32079-3.3022 0.24666-1.0735 0.44612-1.3038 1.4737-1.7083 0.31443-0.12378 0.49949-0.18993 0.66586-0.21262zm-24.232 1.1502c0.33312 0.03902 0.34535 0.05342 0.21558 0.24953-0.0757 0.11444-0.18032 0.22247-0.2325 0.23993-0.13313 0.04453-0.33623-0.17944-0.33623-0.3706 0-0.12428 0.0785-0.15102 0.35315-0.11886zm29.178 0.31966c0.37-0.0044 0.85166 0.07758 1.5127 0.24584 1.1344 0.28876 1.5209 0.49127 1.7768 0.93094 0.27463 0.47184 0.17331 0.5508-0.29798 0.23255-0.59846-0.40411-2.5772-0.74842-2.9989-0.52194-0.11341 0.0609-0.42744 0.44237-0.69749 0.84752-0.47733 0.7161-0.49495 0.7678-0.62539 1.8752-0.19484 1.6542-0.18397 2.7618 0.0302 3.1797 0.22726 0.44349 0.22357 0.46551-0.10227 0.60094-0.15217 0.06324-0.43273 0.25162-0.62318 0.41933-1.1969 1.054-3.1813 2.5304-3.8899 2.8932-0.24356 0.12473-0.91431 0.42006-1.4899 0.65631l-1.0462 0.42892 0.49811-0.44886c0.27409-0.24711 0.73705-0.60943 1.0286-0.8047 0.29152-0.19526 0.50935-0.37555 0.48412-0.40087-0.0858-0.08606-5.7535 2.2147-6.9617 2.826-0.25594 0.1295-0.74044 0.46522-1.0771 0.74638l-0.61214 0.51162 0.24721-0.49021c0.73519-1.4558 1.1486-1.7209 5.3364-3.4255 4.1828-1.7026 5.4904-2.3321 6.1575-2.9634 0.31045-0.29386 0.34795-0.38062 0.31416-0.73604-0.0305-0.32081-5e-3 -0.40308 0.1236-0.40308 0.0889 0 0.23521-0.0825 0.32594-0.18309 0.13382-0.14836 0.16551-0.40827 0.16702-1.3754 4e-3 -2.4154 0.33522-3.3319 1.5774-4.3675 0.21435-0.17871 0.47242-0.26948 0.84243-0.2739zm-25.84 0.0038c0.21564-0.0027 0.41345 0.04692 0.49737 0.14839 0.10467 0.12656 0.0895 0.19257-0.0875 0.38168-0.11768 0.12569-0.21411 0.25458-0.21411 0.28644 0 0.11735 0.83256-0.13468 1.0735-0.32483 0.25316-0.19981 0.62097-0.26585 0.62097-0.11148 0 0.04675-0.13067 0.26642-0.29063 0.48799-0.20882 0.28927-0.42522 0.44828-0.76591 0.56476-0.45652 0.15608-1.0531 0.20085-1.3074 0.09745-0.0788-0.03201-0.0263-0.13426 0.14935-0.2894l0.27076-0.2392-0.51061-0.0031c-0.85913-0.0053-0.87273-0.27856-0.0404-0.83792 0.15506-0.1042 0.38916-0.15846 0.60479-0.16094zm-3.5919 1.0269c0 0.03056-0.1769 0.15536-0.39363 0.27758-0.46099 0.25998-0.63562 0.54487-0.28031 0.45772 1.0097-0.24765 1.5505-0.27736 2.1572-0.1196 0.81164 0.21103 1.9379 0.61832 2.5155 0.91027 0.57327 0.28972 0.83071 0.82211 0.72839 1.5068-0.0662 0.44307-0.23923 0.70118-0.24574 0.36691-2e-3 -0.09951-0.0608-0.28448-0.13097-0.41121-0.12069-0.21821-0.143-0.18914-0.4201 0.54557-0.24039 0.63733-0.3691 0.83432-0.72251 1.1044-0.23662 0.18085-0.66276 0.39575-0.94691 0.47765-0.28416 0.0819-1.0098 0.2549-1.6128 0.38463l-1.0963 0.23624-0.64819-0.25987c-0.683-0.27378-0.78866-0.43058-0.65408-0.96859 0.0462-0.18501 0.12669-0.23994 0.35242-0.23994 0.16096 0 0.69959-0.11689 1.1963-0.25986 0.56555-0.16278 1.0696-0.24677 1.3494-0.22443 0.24575 0.01956 0.44735 0.0042 0.44735-0.03469 0-0.1214-0.6357-0.56196-0.90939-0.63047-0.16102-0.04031-0.72373 0.05239-1.4693 0.24214-0.66467 0.16916-1.2789 0.30786-1.3648 0.30786s-0.37739-0.14621-0.64819-0.3241c-0.48445-0.31822-0.49222-0.33105-0.49222-0.83718 0-0.6343 0.14807-0.78572 0.69824-0.71168 0.35495 0.04777 0.39926 0.02991 0.4098-0.16242 0.0202-0.36917-0.0223-0.5079-0.22292-0.72497l-0.19424-0.21041 0.72618-0.33074c0.64692-0.29492 1.8718-0.53565 1.8718-0.36765zm13.162 0.4555c0.0348 0.04193 0.76677 1.209 1.1956 2.1579 0.34151 0.75576 0.64403 2.0288 0.73869 3.1058 0.10959 1.2468 0.1225 1.2809 0.54004 1.5201 0.66317 0.3798 0.98556 0.71615 1.1492 1.1982 0.087 0.2561 0.14674 0.47675 0.13318 0.4902-0.0135 0.01345-0.12682-0.05954-0.25237-0.16168-0.12553-0.10213-0.59692-0.328-1.047-0.50201-1.5246-0.5895-1.5532-0.62596-1.8033-2.2952-0.19268-1.2859-0.39509-1.9761-0.7203-2.4569-0.13645-0.20175-0.2281-0.38683-0.2038-0.41121 0.0867-0.08704 1.1234 1.024 1.253 1.3429 0.2097 0.51602 0.28061 0.38068 0.1832-0.34993-0.0986-0.73936-0.23207-1.1572-0.86598-2.7079-0.23227-0.56821-0.35119-0.99161-0.30018-0.9302zm-16.945 0.5153c0.31044 0.0089 0.63658 0.05719 0.74679 0.13806 0.17152 0.12585 0.14343 0.13494-0.27297 0.08785-0.25531-0.02888-0.60104-0.0045-0.76812 0.05389-0.30628 0.10714-0.48082 0.01773-0.35757-0.18235 0.047-0.07634 0.34144-0.10639 0.65187-0.09745zm12.171 0.01696c0.0739 0.02311 0.21631 0.20727 0.31638 0.40973 0.17244 0.34894 0.17299 0.39785 0.0162 0.93906-0.22782 0.78636-0.7141 1.7577-1.1147 2.2273-0.18419 0.21593-0.56855 0.50435-0.85493 0.64081-0.28639 0.13646-0.63329 0.27592-0.77034 0.30933l-0.24868 0.06054 0.24868-0.17497c0.47847-0.33605 0.88792-0.83717 1.1897-1.4566 0.46236-0.94898 0.47354-1.1412 0.0971-1.7091-0.26773-0.40389-0.30595-0.52905-0.22882-0.75007 0.1355-0.38824 0.42986-0.37631 0.91013 0.03618l0.4179 0.3588 0.061-0.24584c0.0339-0.13518 9e-3 -0.34508-0.0559-0.46658-0.0952-0.17851-0.0923-0.2126 0.0162-0.17866zm9.5368 0.07677c-0.1295 0.06703-0.14607 0.30901-0.19865 0.80322-3e-3 0.02708 0.41426 0.23599 0.92705 0.46436 0.88204 0.39283 1.0842 0.47024 1.0808 0.41195-7.9e-4 -0.01375-0.084-0.28992-0.18466-0.61349-0.17825-0.57298-0.19804-0.59485-0.74827-0.81946-0.50441-0.20591-0.74677-0.31361-0.87628-0.24658zm18.876 1.9335c0.27303-0.03978 0.51449 0.06824 0.67616 0.37134 0.0954 0.1788 0.0778 0.19045-0.19792 0.1351-0.72963-0.14642-1.8154 1.2679-1.9004 2.4754-0.0446 0.63288 5e-3 0.89103 0.20232 1.0609 0.14605 0.12548 0.16501 0.1895 0.0743 0.24731-0.14666 0.09348-0.16128 0.09244-0.43925-0.0199-0.34764-0.14054-0.45422-0.45856-0.41349-1.2366 0.0769-1.4686 1.1792-2.9142 1.9983-3.0335zm-3.2483 0.07087c0.0498 0 1.0882 0.56061 1.2155 0.65631 0.0175 0.01314-0.0276 0.11866-0.0993 0.23403-0.14466 0.23241-0.5737 0.27202-0.95428 0.08785-0.18158-0.08787-0.22439-0.19132-0.22439-0.54335 0-0.23912 0.0281-0.43484 0.0626-0.43484zm-15.563 0.71759c-0.11051 0.11089 0.18093 2.1358 0.33257 2.3107 0.0851 0.0982 0.20217 0.16043 0.26045 0.13806 0.0583-0.02239 0.5547-0.1401 1.1029-0.26208 0.54819-0.12198 1.0511-0.23828 1.1176-0.25839 0.092-0.02777 0.0948-0.11249 0.0118-0.35141-0.0951-0.27374-0.28211-0.39896-1.4421-0.97081-0.73281-0.36126-1.3551-0.63434-1.3832-0.60611zm19.327 0.08195c0.1727 0.17382 0.10209 1.1023-0.1236 1.6227-0.11258 0.2596-0.39206 0.67584-0.62097 0.92503-0.62256 0.6777-0.87587 0.57677-0.74531-0.29678 0.14625-0.97862 1.189-2.5539 1.4899-2.2509zm-32.61 3.3044c2.9278-0.0078 4.1609 0.26583 5.819 1.2897 1.4745 0.9105 1.9373 1.4565 2.5258 2.9818 0.18785 0.4869 0.18982 0.52492 0.0294 0.52416-0.28958-0.0011-0.63737-0.2295-1.6613-1.0934-0.90078-0.75993-1.7907-1.303-2.141-1.3052-0.0777-3.78e-4 -0.11696-0.02514-0.0868-0.05537 0.0782-0.07854 1.3599 0.15274 1.7629 0.31819 0.99105 0.40691-0.10444-0.36644-1.7445-1.2314-0.89631-0.47272-1.1382-0.55246-2.1933-0.72201-0.65208-0.10478-1.6114-0.23635-2.1322-0.29235-0.52077-0.05601-1.1038-0.17141-1.2957-0.25617-0.33469-0.14787-0.28915-0.15421 1.1176-0.15799zm-6.6975 1.9734c0.0576-0.09261 0.0979 0.03946 0.0979 0.43483 0 0.6577 0.22662 1.4776 0.55108 1.9933 0.31781 0.50516 1.1057 1.1849 2.8849 2.4901 1.3818 1.0137 1.8141 1.2666 1.4215 0.83128-0.0871-0.09659-0.25117-0.39246-0.3642-0.65705l-0.20527-0.48134 0.57241 0.49094c1.2381 1.0626 1.9755 1.4415 3.6118 1.8538 3.6565 0.92116 7.4774 1.7991 7.5429 1.7334 0.044-0.0441-0.21561-0.25217-0.92852-0.74342-0.34413-0.23714 0.72549-0.0305 1.5436 0.29826 0.94789 0.38085 1.8101 0.49175 2.9025 0.37355 0.71305-0.0771 0.99971-0.16798 1.7761-0.56255 0.5092-0.25878 0.97985-0.53727 1.0462-0.6194 0.10196-0.12609 0.0897-0.13696-0.0787-0.0672-0.10964 0.0454-0.6029 0.0991-1.0963 0.11885l-0.89688 0.0362 0.54814-0.20007c0.30149-0.10988 1.0902-0.46937 1.7526-0.79879 1.2843-0.63873 2.0846-1.2404 3.5117-2.6393 0.64612-0.63332 0.80111-0.74623 0.70265-0.51235-0.16485 0.39155-0.38452 0.71458-1.2125 1.7844-0.37623 0.4861-0.66435 0.90292-0.64084 0.92651 0.12349 0.12391 2.1821-1.6754 4.2975-3.7555 0.926-0.91055 1.6465-1.5878 1.601-1.5053-0.23182 0.42011-1.636 2.4362-2.1146 3.0357-1.1604 1.4538-2.2051 2.2679-5.4056 4.2125-0.79487 0.48296-1.5676 0.96435-1.7165 1.0697-0.41096 0.29087-1.0878 0.45486-2.5898 0.62678-1.3636 0.15607-1.5043 0.16226-1.9733 0.0908-2.3583-0.35933-5.931-1.1118-9.0004-1.8958-3.1854-0.81369-3.4095-0.91568-5.616-2.5492-1.0657-0.78901-2.2434-1.8783-2.5148-2.3262-0.27015-0.44591-0.34305-1.1971-0.21116-2.1727 0.0683-0.50497 0.14319-0.82209 0.20086-0.9147zm31.181 2.5411c0.0618-0.05084 0.0937-0.0251 0.12287 0.05389 0.15435 0.41867 0.20221 1.9276 0.0927 2.9176-0.17945 1.6223-0.56719 2.4731-1.3987 3.0719-0.24702 0.17788-0.67645 0.41326-0.955 0.52342l-0.50693 0.20007 0.77327-0.76705c0.70722-0.70165 0.79035-0.82666 0.9734-1.4669 0.26142-0.91426 0.34621-1.4507 0.22955-1.4507-0.0514 0-0.11985 0.10141-0.15303 0.22517-0.0332 0.12376-0.15409 0.33792-0.26855 0.47543l-0.20822 0.24953 0.061-0.24953c0.0337-0.13751 0.0887-0.65516 0.12213-1.1502 0.0649-0.95872 0.17822-1.2706 0.81227-2.2288 0.14948-0.22589 0.24133-0.35299 0.30313-0.40382zm-22.312 6.9654c0 0.0428-0.22413 0.33081-0.49884 0.64007-1.0649 1.1988-2.6113 2.1943-3.9995 2.575-0.41871 0.11482-1.1933 0.2903-1.7209 0.39053l-0.95942 0.18235-0.40466-0.59429c-0.22251-0.3271-0.38996-0.60441-0.37229-0.61571 0.0177-0.0113 0.43589-0.16966 0.92926-0.35215 1.082-0.4002 2.3308-1.035 2.9121-1.4802 0.23474-0.17978 0.42673-0.2993 0.42673-0.26577 0 0.29157-1.3979 1.7379-1.6797 1.7379-0.0629 0-0.11403 0.0447-0.11403 0.0997 0 0.13125-0.0148 0.13275 1.0094-0.10852 0.98443-0.23191 2.2628-0.84223 3.6118-1.7246 0.47311-0.30943 0.86009-0.52709 0.86009-0.4843zm-12.972 2.3174c0.12121 9e-3 0.22244 0.0482 0.2943 0.12033 0.15883 0.15935 0.1548 0.59558-5e-3 0.56477-0.1732-0.0334-0.57315 0.11196-0.57315 0.20819 0 0.0436 0.23059 0.10681 0.51207 0.14027 0.28149 0.0335 0.79388 0.19307 1.139 0.3551 2.7486 1.2906 2.7154 4.2638-0.0662 5.9356l-0.55769 0.33517 0.2266 0.33295c0.12484 0.18281 0.2808 0.55706 0.34654 0.83202 0.58821 2.4603-1.8474 5.3302-4.7117 5.5517-0.5884 0.0455-0.73733 0.0186-1.228-0.22221-0.54168-0.26593-1.1419-0.90584-1.1419-1.2174 0-0.22701-0.13803-0.15097-0.38478 0.21262-0.45767 0.67435-1.7537 1.8134-2.4626 2.1638-0.59951 0.29638-0.79918 0.34268-1.5855 0.36986-0.8106 0.028-0.9519 5e-3 -1.4259-0.2355-0.81455-0.41255-1.2184-1.0894-1.2184-2.0428 0-0.76733 0.26033-1.4585 0.73576-1.9564 0.56071-0.58719 0.72227-0.58602 0.67541 5e-3 -0.0444 0.56031 0.16106 0.90689 0.66218 1.117 0.80466 0.33736 1.9938-0.078 2.9621-1.0343 0.88643-0.87535 1.6548-2.153 3.2373-5.3856 1.3454-2.7482 1.7778-3.5735 2.2529-4.3011l0.16995-0.26061-0.28914 0.0687c-0.47714 0.11303-1.2553 0.46037-1.7849 0.79658-2.2866 1.4514-3.5684 4.3425-2.5759 5.8101 0.2174 0.32145 0.22985 0.38359 0.10153 0.51235-0.0804 0.0806-0.34115 0.167-0.57977 0.19194-0.58347 0.061-1.2312-0.27677-1.6275-0.84899-0.25017-0.36124-0.30455-0.5475-0.33476-1.1495-0.14175-2.8231 3.075-5.626 6.9102-6.0205 0.52095-0.0536 0.76085-0.12975 0.94691-0.30047 0.47281-0.43384 1.0166-0.67626 1.3803-0.64893zm37.928 1.3001h1.0771c0.59251 0 1.0771 0.0176 1.0771 0.0391s-0.42042 0.64994-0.9344 1.396c-2.0179 2.9291-3.0519 5.0326-3.0519 6.2065 0 0.42264 0.12526 0.45318 0.67615 0.16685 0.72106-0.37477 1.4518-1.27 2.0969-2.5706 0.33085-0.66708 0.9119-1.7697 1.292-2.4503s0.85496-1.5635 1.0551-1.9623l0.36419-0.72497h1.0286c0.56577 0 1.0549 0.0264 1.0874 0.0591 0.0325 0.0326-0.20101 0.42614-0.5187 0.87483-1.5992 2.2587-2.7139 4.2073-3.1387 5.4845-0.26388 0.79339-0.3285 1.4254-0.15672 1.5319 0.14765 0.0916 0.68939-0.20025 1.2177-0.65483 0.42444-0.36522 0.45913-0.42598 0.36125-0.64154-0.15673-0.34516-0.0249-0.72663 0.31196-0.90141 0.41435-0.215 0.64092-0.18986 0.99694 0.11074 0.69531 0.58706 0.93519 1.5963 0.65923 2.7773-0.27513 1.1775-0.69395 1.9181-1.5929 2.8187-1.1627 1.1647-2.4281 1.8466-4.0459 2.1793-2.7194 0.55936-5.9434 0.9888-12.119 1.6131-5.4057 0.54652-5.8081 0.59042-8.1646 0.90289-9.7303 1.2902-19.146 3.3282-27.957 6.0493-1.2334 0.38093-2.6355 0.82611-3.1152 0.98926-0.73666 0.25058-0.87187 0.27156-0.87187 0.13805 0-0.24712 0.77627-2.468 1.2684-3.6293 0.83559-1.9715 1.2041-2.5939 2.0145-3.4011 1.2919-1.287 1.9397-1.5093 6.3848-2.1889 11.59-1.7719 21.765-2.5506 38.024-2.9109 4.229-0.0937 5.5545-0.2033 6.7277-0.55665 1.1638-0.35053 1.7521-0.77865 2.1521-1.5651 0.28812-0.56659 0.31321-1.2275 0.0589-1.5592l-0.1773-0.23033-0.67396 0.80174c-0.99573 1.184-1.9143 1.8095-2.6568 1.8095-0.80044 0-1.1574-0.46308-1.0632-1.3798l0.0559-0.54336-0.76665 0.74711c-0.90603 0.88302-1.2962 1.107-1.9453 1.1177-0.4266 7e-3 -0.51625-0.0305-0.78504-0.33222-0.28675-0.32189-0.30059-0.37543-0.25237-0.97819l0.0508-0.63785-0.66144 0.68731c-0.82075 0.85279-1.4704 1.2475-2.0755 1.2602-0.38693 8e-3 -0.48594-0.0355-0.74753-0.32927-0.28188-0.31651-0.29911-0.38056-0.26118-0.97819l0.0404-0.64006-0.25236 0.32852c-1.1523 1.4974-1.9966 1.9541-2.7554 1.4898-0.97395-0.59593-0.86539-2.1592 0.26855-3.8603 1.4828-2.2246 4.2072-3.5456 4.828-2.341 0.14775 0.28654 0.15697 0.2894 1.0543 0.2894 0.69636 0 0.8935 0.0296 0.85568 0.12846-0.0271 0.0707-0.33564 0.5355-0.68646 1.0328-0.90191 1.2786-1.4083 2.4866-1.1868 2.8327 0.0785 0.12269 0.15481 0.11521 0.52311-0.0502 0.66729-0.29967 1.597-1.321 2.024-2.2236 0.2005-0.42378 0.80389-1.5805 1.3413-2.5706s1.1262-2.0814 1.3082-2.4252zm-12.408 0.0576c0.0212 0.0202-0.14123 0.31901-0.36051 0.66443-0.21929 0.34542-0.55706 0.89843-0.7512 1.2285-0.43732 0.74338-2.1712 4.1785-2.13 4.2199 0.0165 0.0166 0.17912-0.17812 0.36126-0.43262 1.6705-2.334 3.5798-3.162 4.1886-1.8161 0.23803 0.52628 0.24734 1.0172 0.0361 1.873-0.4577 1.8538-1.6619 3.533-2.9401 4.1003-0.78761 0.34958-1.2103 0.36557-1.8136 0.0694-0.31117-0.15276-0.6397-0.41145-0.78872-0.62161l-0.2553-0.36027-0.71957 1.2905-1.0072 0.0694c-0.55403 0.0383-1.0262 0.0511-1.0492 0.028-0.023-0.023 0.18399-0.43394 0.45985-0.91323 0.27585-0.47928 0.50177-0.89524 0.50177-0.92355 0-0.0283-0.3118 0.23782-0.69234 0.59134-1.3597 1.2633-2.9903 1.8064-3.784 1.2602-0.47832-0.32919-0.71503-0.68803-0.73722-1.1155-0.0105-0.20236-0.0364-0.36745-0.0573-0.36765-0.0211-2.5e-4 -0.36266 0.30853-0.7593 0.68658-1.0686 1.0185-2.4588 1.6164-3.3638 1.447-0.62678-0.1173-1.2706-0.66488-1.2706-1.0808 0-0.23784-0.14048-0.18249-0.38701 0.15208-0.32436 0.44021-1.3623 1.1771-1.7643 1.2528-0.81938 0.15424-1.3485-0.49811-1.1404-1.4056 0.0501-0.21847 0.0781-0.41031 0.0618-0.42671s-0.15706 0.16233-0.31196 0.39718c-0.42146 0.63904-1.2426 1.4733-1.6613 1.6877-0.45048 0.23059-0.74354 0.23573-1.0889 0.0207-1.0835-0.67471-0.75697-2.5742 0.79461-4.6244 1.3338-1.7625 3.4729-2.9191 4.1916-2.2664 0.11519 0.10459 0.20969 0.25385 0.20969 0.33221 0 0.11554 0.12685 0.1302 0.67247 0.0783 0.37002-0.0352 0.79616-0.0874 0.94691-0.11591 0.15075-0.0285 0.27443-0.018 0.27443 0.0229s-0.28935 0.50557-0.64231 1.0328c-0.80345 1.2002-1.2561 2.1632-1.2817 2.7249-0.0165 0.362 0.01 0.43139 0.15819 0.41933 0.36986-0.0301 0.88594-0.49184 1.1684-1.0454 0.36304-0.71155 0.7361-1.1551 1.2449-1.4817 0.22125-0.14201 0.87254-0.66328 1.4472-1.1583 0.83432-0.7187 1.1017-1.0163 1.3266-1.4765 0.36296-0.74289 0.99814-1.0995 1.3428-0.75376 0.20321 0.20391 0.13391 0.46352-0.23177 0.86966l-0.35095 0.3898 0.15156 0.87336c0.17105 0.98421 0.1894 1.7147 0.0574 2.2856l-0.0898 0.38758 0.40171-0.38758c0.22061-0.21333 0.62802-0.72585 0.90571-1.1384 0.7429-1.1037 1.9759-2.3001 2.7642-2.6821 0.35631-0.17267 0.83738-0.34246 1.069-0.37799 0.38997-0.0598 0.44804-0.0377 0.78579 0.30121 0.34976 0.35096 0.36238 0.38826 0.30975 0.89993-0.1546 1.5031-1.5326 2.7708-3.0401 2.7972l-0.66953 0.0118-0.0316 0.33442c-0.052 0.5447 0.21129 0.75037 0.87333 0.68216 0.84892-0.0875 1.724-0.58841 2.6487-1.5156l0.79902-0.80101 1.4553-3.0505 1.4553-3.0497 1.0345-0.065c0.56905-0.0356 1.0522-0.0482 1.0735-0.028zm-26.241 0.27463c-0.30533 0.11756-1.13 1.9715-2.6097 5.8684-0.36552 0.96259-0.93095 2.3078-1.2567 2.9892-0.3257 0.68136-0.55516 1.2745-0.51061 1.3185 0.0446 0.044 0.2152 0.15272 0.37965 0.24141 1.0795 0.58221 3.4165-0.59337 4.1268-2.076 0.26306-0.5491 0.3207-1.3262 0.12507-1.6936-0.12765-0.23974-0.16611-0.24921-0.81961-0.20229-0.53178 0.0382-0.74278 0.0125-0.93809-0.11591-0.33974-0.22335-0.33495-0.65022 0.011-0.99738 0.2958-0.29681 0.86284-0.3529 1.5333-0.15134 0.34786 0.10458 0.40755 0.0899 0.84464-0.21188 0.49719-0.34325 1.0192-1.0025 1.214-1.5326 0.19745-0.53737 0.15969-1.5473-0.0758-2.0354-0.3762-0.77976-1.5418-1.5869-2.024-1.4012zm32.193 3.4875c-0.37198-0.0262-0.94353 0.26828-1.4936 0.8992-0.80828 0.92714-1.4435 2.55-1.2236 3.125 0.0804 0.21015 0.24867 0.19664 0.65702-0.0532 0.78888-0.48256 1.991-1.9851 2.3566-2.9456 0.2482-0.65213 0.0754-0.99929-0.29651-1.0254zm-5.8676 0.082c-0.38128 2e-3 -1.2179 0.56111-1.7938 1.1997-0.79396 0.88035-2.1974 2.9689-2.0417 3.0387 0.27548 0.12338 1.0697-0.0225 1.6186-0.29752 1.4013-0.70216 2.7517-2.6941 2.5023-3.6913-0.0436-0.17431-0.13085-0.25029-0.28546-0.24953zm-6.7277 0.29899c-0.57511 0-1.4872 0.94409-2.1101 2.1838-0.21641 0.43073-0.21638 0.43382-0.0132 0.36913 0.74277-0.23655 1.9659-1.2153 2.2382-1.791 0.25019-0.52903 0.21474-0.76188-0.11479-0.76188zm-12.364 1.0099c-0.58192 0.026-1.575 0.95144-2.2065 2.2111-0.4616 0.92064-0.66759 1.7701-0.50325 2.0782l0.11109 0.20819 0.4054-0.22886c1.1501-0.64787 2.8612-3.2532 2.6097-3.974-0.074-0.21203-0.22246-0.30323-0.41643-0.29456zm5.9162 0.28201c-0.0154-0.0597-0.0562-0.0356-0.13391 0.0295-0.0926 0.0774-0.39955 0.3299-0.68204 0.56107-0.35924 0.29399-0.49998 0.47377-0.4672 0.59947 0.0318 0.12213-0.0349 0.21723-0.20895 0.29678-0.61166 0.27964-0.90519 1.5338-0.4363 1.8634 0.38585 0.27119 1.0072 7e-3 1.3692-0.58027 0.22584-0.36666 0.4488-1.3153 0.5393-2.2967 0.025-0.27038 0.0352-0.41352 0.0198-0.47322zm19.861 11.456c0.1728 0.17339-2.0691 3.0382-3.3322 4.2583-3.707 3.5807-8.1695 5.6256-13.293 6.0914-5.2886 0.4808-10.728-1.151-15.075-4.5218-0.42485-0.32945-0.77218-0.62708-0.77181-0.66147 3.8e-4 -0.0343 0.84136-0.25406 1.8688-0.48873 4.666-1.0657 10.004-2.0515 14.476-2.6732 3.6707-0.5103 4.6031-0.6074 5.3423-0.69396l0.50914-0.0598s1.3569-0.19701 1.6091-0.19712c0.31302-1.8e-4 6.093-0.72313 7.579-0.94792 0.56978-0.0862 1.0594-0.13366 1.0874-0.10557z" fill="#0a2b5b" stroke-width=".099839"/>
<path d="m-135.28 77.444c-0.059 1e-4 -0.12032 2e-3 -0.17676 0.0043-0.0903 0.0037-0.1681 0.0083-0.24373 0.01855-0.0756 0.01031-0.14915 0.02646-0.1859 0.03457-0.0368 0.0081-0.0368 0.0081-0.0771 0.01621-0.0403 0.0081-0.12102 0.02424-0.18417 0.0375-0.0632 0.01326-0.10869 0.02361-0.15494 0.03614-0.0462 0.01252-0.0931 0.02727-0.14309 0.04864-0.0499 0.02136-0.10284 0.04925-0.15203 0.07872-0.0492 0.02947-0.0947 0.06052-0.1351 0.0922s-0.0757 0.06402-0.11466 0.10528c-0.0389 0.04126-0.0814 0.09137-0.11525 0.13263-0.0337 0.04126-0.0586 0.0737-0.0841 0.10567s-0.0516 0.0634-0.0777 0.09493c0.12883 0.1541 0.25776 0.30829 0.35449 0.41996 0.0967 0.11167 0.16134 0.18107 0.21861 0.24221 0.0573 0.06113 0.10708 0.11408 0.146 0.14942 0.0389 0.03534 0.0668 0.05308 0.0903 0.06114 0.0235 0.0081 0.0426 0.0065 0.058-0.0023s0.027-0.02498 0.0292-0.04629c2e-3 -0.02132-5e-3 -0.04783-0.0196-0.09571-0.0147-0.04788-0.0368-0.11717-0.0676-0.19084-0.0309-0.07367-0.0705-0.15174-0.10064-0.21877-0.0301-0.06704-0.0507-0.12301-0.0625-0.17385-0.0118-0.05083-0.0146-0.09653-8e-3 -0.13634 7e-3 -0.03981 0.0226-0.07357 0.049-0.10821s0.0634-0.07003 0.11913-0.11056c0.0558-0.04052 0.13055-0.08627 0.20324-0.12384 0.0727-0.03757 0.14328-0.06692 0.22698-0.09786s0.18053-0.06335 0.26864-0.08692c0.0881-0.02357 0.16748-0.03833 0.23282-0.04864 0.0654-0.01031 0.11673-0.01624 0.16372-0.01992 0.047-0.0037 0.0895-0.0052 0.13276-8.02e-4 0.0433 0.0044 0.0873 0.01483 0.12848 0.03106 0.0411 0.01623 0.0793 0.03838 0.10863 0.05606 0.0294 0.01768 0.0499 0.03087 0.0675 0.03672 0.0176 0.0059 0.0323 0.0044 0.0411-8.03e-4 9e-3 -0.0051 0.0118-0.01395 8e-3 -0.03086-4e-3 -0.01692-0.014-0.04192-0.0302-0.07286-0.0161-0.03094-0.0382-0.06776-0.0705-0.10313-0.0323-0.03538-0.0748-0.06933-0.13062-0.0922-0.0558-0.02287-0.12472-0.03463-0.21062-0.03907-0.0322-0.0016-0.0668-0.0022-0.10221-0.0021zm-6.8163 3.4868c-0.0316 1.03e-4 -0.0799 0.0041-0.15418 0.01348-0.0991 0.01249-0.24453 0.03461-0.36714 0.06114-0.12261 0.02651-0.22247 0.05753-0.35683 0.10762-0.13435 0.05009-0.3032 0.11934-0.46545 0.19006-0.16224 0.07072-0.31787 0.14289-0.45882 0.21213-0.14096 0.06925-0.26722 0.13566-0.40744 0.2049-0.14022 0.06925-0.29432 0.14126-0.37143 0.17736-0.0771 0.0361-0.0771 0.03625-0.13724 0.06719h-2e-4c-0.0602 0.0309-0.18043 0.0928-0.27954 0.14142-0.0991 0.04862-0.17705 0.0839-0.25559 0.11779-0.0785 0.03388-0.15782 0.06638-0.22096 0.08848-0.0632 0.02212-0.11002 0.03388-0.14892 0.03906-0.0389 0.0052-0.0697 0.0038-0.0961-0.0058s-0.0485-0.0272-0.0684-0.04121c-0.0198-0.01398-0.0374-0.02441-0.0588-0.02227-0.0214 0.0023-0.0462 0.01704-0.0697 0.04063-0.0235 0.02357-0.0456 0.05597-0.0742 0.1127-0.0286 0.05674-0.064 0.13776-0.0927 0.21291-0.0286 0.07515-0.0507 0.1444-0.0609 0.20041-0.0102 0.056-9e-3 0.09865 4e-3 0.14064 0.0125 0.04199 0.0359 0.0833 0.0755 0.1297 0.0397 0.0464 0.0956 0.09794 0.14035 0.13771 0.0448 0.03978 0.0784 0.06785 0.10414 0.08106 0.0257 0.01318 0.0434 0.01158 0.0661 0.0057 0.0227-0.0059 0.0507-0.01624 0.22095-0.09727 0.17032-0.08103 0.48306-0.23266 0.76056-0.3682s0.51966-0.255 0.74578-0.36918c0.22611-0.11418 0.43607-0.22315 0.613-0.31155s0.32094-0.15607 0.45163-0.20764c0.13069-0.05156 0.24811-0.08697 0.34943-0.11349 0.10131-0.02655 0.18645-0.04427 0.26942-0.05606 0.083-0.0118 0.16375-0.01757 0.23496-0.02052 0.0712-0.0031 0.13277-0.0031 0.1937-0.0053 0.0609-0.0023 0.12121-0.0066 0.1748-8e-3 0.0536-0.0015 0.1005 1.5e-5 0.13938-0.0066 0.0389-0.0066 0.0697-0.02132 0.0867-0.04336 0.0168-0.02204 0.0198-0.05155 0.0111-0.08321-9e-3 -0.03167-0.0294-0.06567-0.0646-0.09884-0.0352-0.0332-0.0851-0.06542-0.15554-0.10079-0.0705-0.03538-0.16151-0.07378-0.25035-0.10841-0.0889-0.03461-0.17544-0.06562-0.25365-0.09024-0.0782-0.02464-0.14824-0.04284-0.21802-0.06113 0.0742-0.03033 0.14859-0.06067 0.2077-0.08614 0.0591-0.02548 0.10308-0.04613 0.1464-0.06602 0.0433-0.01987 0.0859-0.039 0.11154-0.05372 0.0256-0.01471 0.0345-0.02506 0.0368-0.03457 2e-3 -0.0095-2e-3 -0.0183-0.0308-0.02128-7e-3 -7.64e-4 -0.016-0.0011-0.0265-0.0011zm19.416 0.5356c-0.21044 0.0052-0.39644 0.08657-0.6428 0.18341-1.0118 0.39778-1.2429 0.59627-1.4627 1.2569-0.17219 0.51757-0.41366 1.7265-0.41366 2.0715 0 0.44182 0.0748 0.65438 0.61183 1.7423 0.26229 0.53132 0.54303 1.126 0.62392 1.3216 0.18142 0.43863 0.31885 0.99993 0.31925 1.304 2.9e-4 0.20986 7e-3 0.22547 0.0806 0.18595 0.0953-0.05117 0.25335-0.40201 0.30426-0.67545 0.0634-0.34079-0.0262-0.648-0.57018-1.9529-0.65343-1.5674-0.68694-1.7917-0.44151-2.9544 0.18688-0.88531 0.41935-1.2241 1.0615-1.5464 0.41025-0.20594 0.70246-0.25953 1.2504-0.22932 0.55083 0.03037 0.84959 0.15362 1.1022 0.35629 0.23883 0.1916 0.34091 0.16373 0.35897-0.05587 0.0116-0.14158-8e-3 -0.20466-0.13821-0.32776-0.18774-0.17766-0.68404-0.37607-1.2798-0.5311-0.31883-0.08298-0.55362-0.154-0.76406-0.14884zm-24.537 1.1429c-0.0163 2.02e-4 -0.0327 7.64e-4 -0.0465 0.0015-0.0368 0.0027-0.0566 0.0089-0.0738 0.0209s-0.0315 0.02965-0.0394 0.05625c-8e-3 0.02663-9e-3 0.06204 8.1e-4 0.10841 0.01 0.04637 0.0291 0.10373 0.0598 0.15216s0.0721 0.08798 0.10686 0.11348c0.0348 0.02552 0.0629 0.03694 0.0878 0.04317 0.0249 0.0062 0.0467 0.0072 0.0679 3.82e-4 0.0213-0.0068 0.042-0.02132 0.0689-0.04629 0.027-0.02498 0.0602-0.06053 0.0884-0.09434 0.0281-0.03381 0.0513-0.06602 0.0751-0.1004 0.0239-0.03434 0.0487-0.07096 0.0625-0.09806 0.0139-0.02708 0.017-0.0446 0.0134-0.05918-4e-3 -0.01459-0.014-0.02605-0.029-0.03595s-0.0349-0.01834-0.0634-0.0246c-0.0286-0.0063-0.0658-0.01047-0.11407-0.0162-0.0483-0.0057-0.10741-0.01299-0.13706-0.01662-0.0297-0.0038-0.0299-0.0039-0.0569-0.0043-0.0168-2.02e-4 -0.0443-7.64e-4 -0.0715-3.82e-4zm29.406 0.30901c-0.0407 3.82e-4 -0.0817 0.0019-0.12049 0.0039-0.0776 0.0041-0.1462 0.01115-0.21608 0.02304-0.0699 0.01188-0.14094 0.02846-0.19721 0.04629-0.0563 0.01784-0.0978 0.03702-0.12147 0.04708-0.0237 0.01009-0.0297 0.01108-0.0623 0.03125s-0.0918 0.05948-0.15749 0.1088c-0.0658 0.04932-0.13796 0.10865-0.19836 0.16154-0.0605 0.05289-0.10894 0.09936-0.17053 0.16056-0.0616 0.0612-0.13624 0.13712-0.22212 0.23576-0.0859 0.09864-0.18304 0.21998-0.26358 0.32991-0.0806 0.10994-0.14447 0.20847-0.19836 0.30296-0.0539 0.09449-0.0977 0.18484-0.14387 0.29358-0.0462 0.10875-0.0947 0.23594-0.12847 0.33577-0.0338 0.09983-0.0527 0.17226-0.0812 0.30061-0.0284 0.12835-0.0663 0.31269-0.0959 0.49868s-0.0508 0.37366-0.0661 0.54361c-0.0154 0.16994-0.0249 0.32196-0.0307 0.45922-6e-3 0.13726-9e-3 0.25972-0.0107 0.42074-2e-3 0.16103-5e-3 0.36071-7e-3 0.54907s-5e-3 0.36535-8e-3 0.48657-7e-3 0.18671-0.0131 0.24553c-7e-3 0.05882-0.0161 0.11109-0.025 0.15744-9e-3 0.04635-0.0171 0.08663-0.0302 0.12345-0.0131 0.03683-0.0308 0.07013-0.0461 0.09805-0.0154 0.02792-0.0285 0.05051-0.0475 0.07247-0.019 0.02197-0.0437 0.04351-0.068 0.06192s-0.048 0.03381-0.0728 0.04688c-0.0249 0.01306-0.051 0.02372-0.0711 0.03144-0.0201 0.0077-0.0345 0.01245-0.0475 0.01486-0.013 0.0023-0.0247 0.0023-0.0395 0.0023s-0.0327 2.03e-4 -0.0487 0.0031c-0.0161 0.0031-0.0302 0.0088-0.0432 0.01952-0.0131 0.0107-0.025 0.02609-0.0344 0.04395-0.01 0.01784-0.0165 0.03813-0.0212 0.06251-5e-3 0.02437-7e-3 0.05289-8e-3 0.08438-5.9e-4 0.03148 5.7e-4 0.06604 2e-3 0.09337 9.7e-4 0.02732 3e-3 0.04757 6e-3 0.08262 3e-3 0.03507 8e-3 0.08489 0.01 0.13302s2e-3 0.09447 0 0.12833c-2e-3 0.03385-7e-3 0.05526-0.0165 0.08555-0.01 0.03029-0.0238 0.0695-0.0379 0.10157-0.0142 0.03209-0.0283 0.05707-0.0473 0.08321-0.019 0.02613-0.0427 0.05341-0.0794 0.09024s-0.0864 0.08326-0.14444 0.13614c-0.058 0.05288-0.12424 0.11213-0.19233 0.16798-0.0681 0.05585-0.13797 0.10828-0.21258 0.15998-0.0747 0.05169-0.15413 0.10271-0.22815 0.14786-0.074 0.04516-0.14262 0.08445-0.23204 0.13614-0.0895 0.0517-0.19952 0.11576-0.34223 0.19181-0.14271 0.07606-0.318 0.16416-0.47965 0.24319-0.16167 0.07903-0.30978 0.14898-0.50283 0.23811-0.19306 0.08913-0.43107 0.19744-0.69341 0.31331s-0.54898 0.23938-0.80125 0.34574-0.47015 0.19553-1.1404 0.46957c-0.6702 0.27405-1.7926 0.7329-2.3539 0.96239-0.56125 0.22949-0.5613 0.22996-0.76835 0.32229-0.20704 0.09233-0.62114 0.27703-1.0156 0.46997-0.39443 0.19294-0.7691 0.3941-1.037 0.55571s-0.42902 0.2836-0.57037 0.41058c-0.14134 0.12699-0.26296 0.25882-0.38622 0.41879s-0.2481 0.34791-0.37493 0.57623-0.25553 0.49707-0.38427 0.7657c0.22735-0.18288 0.45476-0.36576 0.69827-0.5479 0.24352-0.18214 0.50318-0.36356 0.84174-0.5565s0.75587-0.39741 1.1651-0.5854c0.40922-0.18799 0.81018-0.3596 1.1487-0.50141 0.33855-0.14182 0.61466-0.25398 0.88419-0.36117 0.26952-0.10719 0.53253-0.20929 0.77905-0.30823s0.47655-0.1947 0.74772-0.30354 0.58348-0.23088 0.83493-0.33147c0.25144-0.10059 0.44195-0.17957 0.60794-0.24553s0.30739-0.11879 0.43722-0.16662c0.12983-0.04782 0.24816-0.09073 0.32704-0.11876 0.0789-0.02804 0.11825-0.04111 0.15769-0.0543-0.0691 0.06266-0.13797 0.12523-0.21356 0.18459-0.0756 0.05936-0.15772 0.11539-0.24976 0.1797-0.0921 0.06431-0.1941 0.13686-0.29764 0.21271-0.10354 0.07586-0.20854 0.15507-0.31536 0.23752s-0.2153 0.16828-0.31555 0.25569c-0.10026 0.0874-0.19242 0.17642-0.29006 0.27307-0.0976 0.09665-0.203 0.20322-0.30738 0.30862 0.16026-0.05264 0.32056-0.1053 0.49601-0.16954 0.17544-0.06425 0.36589-0.14026 0.63871-0.25569 0.27281-0.11544 0.62789-0.27028 0.89741-0.39066 0.26953-0.12038 0.45355-0.20626 0.59159-0.27717 0.13805-0.07091 0.23012-0.12696 0.35995-0.21271s0.29743-0.2012 0.5801-0.40238c0.28268-0.20118 0.68037-0.48809 1.037-0.75358s0.67224-0.50939 0.93518-0.71881c0.26295-0.20943 0.47331-0.38421 0.63929-0.52602 0.16599-0.14182 0.28752-0.25082 0.37299-0.32503 0.0855-0.07421 0.13484-0.11371 0.18415-0.14669 0.0493-0.03297 0.0986-0.05945 0.14464-0.08419 0.046-0.02472 0.0887-0.04773 0.13802-0.07247 0.0493-0.02472 0.10513-0.05123 0.1495-0.07267 0.0444-0.02143 0.0772-0.03786 0.10512-0.05762 0.028-0.01979 0.0511-0.04278 0.0658-0.06583 0.0148-0.02304 0.0213-0.04622 0.0196-0.07423-2e-3 -0.028-0.0114-0.06094-0.0344-0.117-0.023-0.05607-0.0592-0.13532-0.0888-0.19963s-0.0525-0.11383-0.0755-0.17814-0.046-0.14346-0.0658-0.2424c-0.0197-0.09895-0.0361-0.2175-0.0492-0.37582-0.0132-0.15831-0.023-0.35625-0.0181-0.61021 5e-3 -0.25396 0.0245-0.56391 0.0623-0.97782s0.0937-0.93178 0.13315-1.255c0.0395-0.32321 0.0626-0.45178 0.0905-0.56392 0.028-0.11215 0.0607-0.20779 0.14619-0.36117 0.0855-0.15338 0.22353-0.36452 0.34515-0.54262 0.12161-0.1781 0.22666-0.32324 0.32198-0.44692 0.0954-0.12368 0.18086-0.22583 0.24333-0.2885 0.0625-0.06268 0.10182-0.08578 0.1495-0.10392 0.0477-0.01815 0.10373-0.0314 0.15632-0.03965 0.0526-0.0083 0.1018-0.01142 0.15769-0.0131 0.0559-0.0015 0.11827-0.0019 0.20537-0.0019s0.19891-2.6e-5 0.33696 0.01154c0.13806 0.01154 0.30245 0.03469 0.53418 0.08087 0.23172 0.04618 0.53088 0.11549 0.76425 0.18146 0.23338 0.06597 0.40084 0.12866 0.51587 0.17814 0.11504 0.04948 0.17761 0.08569 0.22718 0.11466 0.0496 0.02896 0.0863 0.05072 0.1277 0.07403 0.0414 0.0233 0.0876 0.04818 0.13023 0.06778 0.0427 0.0196 0.0817 0.03388 0.11252 0.04219 0.0309 0.0083 0.0533 0.01058 0.0711 0.0082 0.0177-0.0023 0.0307-0.0095 0.0407-0.01776 0.0101-0.0083 0.0173-0.0178 0.0214-0.03201 4e-3 -0.01421 5e-3 -0.03327-0.01-0.08556-0.0148-0.05227-0.0456-0.13773-0.0876-0.22092-0.0421-0.08319-0.0953-0.16411-0.16216-0.24612-0.0669-0.08201-0.14753-0.16508-0.20674-0.21857-0.0592-0.05349-0.0971-0.07731-0.18531-0.12247-0.0882-0.04517-0.22676-0.11172-0.41211-0.18244-0.18537-0.07072-0.41756-0.14562-0.64378-0.20861-0.22621-0.06299-0.44649-0.11401-0.67685-0.16036-0.23037-0.04635-0.47074-0.08795-0.62293-0.11232-0.1522-0.02437-0.21621-0.03155-0.29142-0.03457-0.0376-0.0015-0.0781-0.0019-0.11875-0.0015zm-24.143 0.31624c-0.0211 1.99e-4 -0.0444 0.0015-0.069 0.0057-0.0327 0.0055-0.0672 0.01601-0.11018 0.03182-0.0429 0.01585-0.0944 0.03709-0.13588 0.05664-0.0415 0.01956-0.0731 0.03721-0.10064 0.05528-0.0276 0.01807-0.0509 0.03652-0.0773 0.05567-0.0264 0.01918-0.0559 0.03899-0.0878 0.05704-0.0319 0.01803-0.0663 0.03431-0.11408 0.05567-0.0477 0.02135-0.10876 0.0478-0.16235 0.06954-0.0536 0.02174-0.0998 0.03867-0.15923 0.05782-0.0595 0.01918-0.13216 0.04054-0.18942 0.05528-0.0573 0.01475-0.0991 0.02269-0.14425 0.02968-0.0452 7e-3 -0.0935 0.01303-0.13685 0.02189-0.0433 0.0088-0.0815 0.02051-0.11932 0.03751-0.0378 0.01692-0.0753 0.03905-0.10746 0.05957-0.0321 0.02051-0.0588 0.03954-0.0722 0.04903-0.0134 0.0095-0.0132 0.0094-0.0557 0.04708-0.0425 0.03763-0.12738 0.1129-0.1933 0.17267-0.066 0.05976-0.11287 0.10386-0.14444 0.13849-0.0315 0.03461-0.0478 0.05984-0.0584 0.08047s-0.0157 0.03675-0.0138 0.05079c2e-3 0.01402 0.0105 0.02579 0.0279 0.03829 0.0173 0.01249 0.043 0.0259 0.0969 0.0369 0.054 0.01104 0.13619 0.0199 0.2408 0.02246 0.10461 0.0027 0.2317-0.0011 0.33191-0.0092 0.1002-0.0081 0.17356-0.02071 0.23964-0.03358 0.066-0.01287 0.12467-0.02628 0.19057-0.04356 0.0659-0.01727 0.13902-0.03846 0.21316-0.06387 0.0742-0.0254 0.14933-0.05491 0.21336-0.08477 0.064-0.02987 0.11689-0.06005 0.17597-0.10313 0.0591-0.04309 0.12443-0.09923 0.18572-0.16037 0.0613-0.06113 0.11858-0.12736 0.16702-0.18849 0.0485-0.06114 0.088-0.11716 0.1244-0.1713s0.0694-0.10638 0.0977-0.15353c0.0282-0.04714 0.0517-0.08912 0.0667-0.12188 0.0151-0.03278 0.0217-0.05629 0.0198-0.07579-2e-3 -0.01952-0.0119-0.03503-0.0222-0.0461-0.0102-0.01108-0.0206-0.01761-0.036-0.02208-0.0155-0.0045-0.036-0.0067-0.0617-0.0074-7e-3 -1.99e-4 -0.0132-1.99e-4 -0.0202-1.99e-4zm7.8235 1.202c0.0156 0.0596 0.23317 0.66223 0.46739 1.2607 0.57859 1.4784 0.72063 1.9983 0.74362 2.7217 0.012 0.37888-0.0566 0.41647-0.20323 0.11134-0.0594-0.12348-0.19128-0.3333-0.29317-0.46625-0.23167-0.30233-0.94568-1.023-0.9784-0.99013-0.0133 0.01345 0.10552 0.20084 0.20323 0.36312 0.35912 0.59639 0.44988 0.99342 0.71132 2.5145 0.2567 1.4935 0.38372 1.6692 1.261 2.0314 1.0172 0.41997 1.3975 0.5912 1.5749 0.70905 0.10587 0.07035 0.24627 0.20839 0.25482 0.19982 0.034-0.03404-0.13862-0.49424-0.26416-0.7319-0.15757-0.29827-0.48787-0.61346-0.90053-0.85945-0.50994-0.30398-0.553-0.39798-0.64416-1.4031-0.0873-0.96278-0.27915-1.9312-0.54079-2.7309-0.41435-1.6531-1.4172-2.7867-1.3918-2.73zm-16.984 0.50182v1.99e-4c-0.0399 0-0.11997 8.8e-5 -0.19525 0.0027-0.0752 0.0027-0.14578 0.0078-0.19564 0.01505-0.0498 0.0073-0.0789 0.01662-0.10493 0.02441-0.0259 0.0078-0.0486 0.01413-0.0689 0.02246-0.0202 0.0084-0.038 0.01857-0.051 0.0332s-0.0213 0.03347-0.0265 0.0543c-5e-3 0.02086-7e-3 0.04368-4e-3 0.06504 3e-3 0.02135 0.0115 0.04117 0.0261 0.05782 0.0146 0.01662 0.0353 0.03014 0.0592 0.03848 0.0239 0.0083 0.0508 0.01158 0.0813 0.01211 0.0307 3.82e-4 0.0649-0.0015 0.095-0.0063 0.0301-0.0047 0.0561-0.01207 0.0841-0.0209 0.0281-0.0089 0.0581-0.01933 0.0913-0.02873s0.0696-0.01757 0.11271-0.02541c0.0431-0.0078 0.0929-0.01513 0.1386-0.02032 0.0456-0.0052 0.0872-0.0083 0.14639-0.0094 0.0592-0.0011 0.13607-2.02e-4 0.20927 0.0019 0.0732 0.0019 0.14275 0.0052 0.19622 0.0094 0.0535 0.0042 0.0908 0.0095 0.12401 0.01368 0.0333 0.0042 0.0623 0.0071 0.0841 0.0082s0.0364 2.02e-4 0.0473-0.0019c0.0109-0.0019 0.0182-0.0051 0.0233-0.01035 5e-3 -0.0052 9e-3 -0.01249 5e-3 -0.02189s-0.0141-0.02078-0.0348-0.0369c-0.0208-0.01616-0.0517-0.03717-0.083-0.05332-0.0311-0.01616-0.0624-0.02754-0.10804-0.04004-0.0457-0.01253-0.10582-0.02605-0.17072-0.03751s-0.13451-0.02074-0.19213-0.02754c-0.0576-0.0068-0.10325-0.01112-0.14269-0.01368-0.0395-0.0027-0.0727-0.0038-0.0894-0.0041-0.0166-3.82e-4 -0.0167-7.64e-4 -0.0567-7.64e-4zm12.162 0.01c-9e-3 -7.64e-4 -0.016-3.82e-4 -0.021 0.0015-0.0197 0.0076-8e-3 0.05103 0.0413 0.15588 0.0684 0.14495 0.0889 0.24026 0.0829 0.3848-3e-3 0.06707-8e-3 0.09554-0.0378 0.21584-0.019 0.07622-0.0358 0.13967-0.0371 0.14103-9.6e-4 0.0015-0.10727-0.08717-0.23516-0.19689-0.12788-0.10972-0.2587-0.22026-0.29083-0.24553-0.12315-0.09685-0.25545-0.17454-0.35312-0.20744-0.22649-0.07629-0.3785 0.02307-0.46234 0.30237-0.014 0.04672-0.0167 0.0674-0.0169 0.1297-2e-4 0.06451 2e-3 0.0806 0.0165 0.12501 0.0352 0.10693 0.0854 0.19951 0.22834 0.42113 0.11323 0.17557 0.15529 0.24682 0.19389 0.32913 0.0625 0.13324 0.0861 0.23312 0.0861 0.36429-7e-5 0.22563-0.0767 0.4511-0.33658 0.9911-0.29222 0.60714-0.65142 1.0723-1.0995 1.4236-0.0305 0.02388-0.11758 0.08714-0.19369 0.14064-0.0761 0.0535-0.14444 0.10352-0.14444 0.10352 2e-3 7.64e-4 -0.0626 0.02972 6e-3 0.0027 7e-3 -0.0019 0.0795-7e-3 0.14717-0.02384 0.17831-0.0445 0.30554-0.10468 0.57543-0.22053 0.28007-0.1202 0.44768-0.21098 0.63968-0.34632 0.16365-0.11535 0.33185-0.25632 0.42535-0.35668 0.32329-0.34698 0.74104-1.1042 1.0168-1.8427 0.0653-0.17494 0.11465-0.32606 0.16917-0.5184 0.12787-0.45121 0.12612-0.51446-0.0242-0.82078-0.0969-0.19744-0.20945-0.36071-0.28908-0.41937-0.0237-0.01746-0.0611-0.03113-0.0868-0.03358zm-3.6025 6.2029c-0.64448-2.98e-4 -1.2558 0.01307-1.2782 0.03557-0.0325 0.03262 0.20574 0.13532 0.44618 0.1924 0.25875 0.06142 0.68412 0.12898 1.1849 0.1883 0.95943 0.11365 2.0888 0.28262 2.5943 0.38812 0.41292 0.08617 0.71897 0.1967 1.1867 0.42816 0.93828 0.46432 2.1298 1.1701 2.4057 1.4251 0.0596 0.05506 0.0721 0.0794 0.0517 0.09982-0.0203 0.0204-0.10468 2.98e-4 -0.34632-0.08243-0.17569-0.06016-0.41373-0.13179-0.52891-0.1592-0.52164-0.12412-1.273-0.22686-1.2375-0.16916 8e-3 0.01306 0.0672 0.03006 0.1314 0.03771 0.34019 0.04043 1.0921 0.49576 1.892 1.1458 0.87955 0.71483 1.0407 0.84234 1.2264 0.96962 0.23251 0.15933 0.36208 0.22809 0.48298 0.25666 0.13089 0.03094 0.18366 0.02903 0.21413-0.0078 0.0367-0.04428 0.0131-0.1278-0.16255-0.57603-0.28358-0.72399-0.59442-1.2828-0.92253-1.6584-0.68866-0.7883-2.3351-1.7868-3.5118-2.1299-0.76314-0.22249-1.4967-0.32061-2.7528-0.3682-0.29061-0.011-0.68923-0.01601-1.0759-0.0162zm-6.7094 1.9006c-0.0167-0.0019-0.0339 0.0034-0.0473 0.01662-0.0177 0.0178-0.0284 0.04986-0.0514 0.14923s-0.0583 0.26606-0.0867 0.43109c-0.0282 0.16503-0.0495 0.3284-0.0671 0.51118-0.0177 0.18277-0.0318 0.38494-0.0407 0.55884-9e-3 0.1739-0.0124 0.31953-2e-3 0.4686 0.0106 0.14906 0.0354 0.3017 0.0619 0.43656s0.0548 0.2519 0.10258 0.36546c0.0478 0.11357 0.11502 0.22351 0.24237 0.38675 0.12733 0.16325 0.31462 0.37971 0.62235 0.67604 0.30771 0.29633 0.73577 0.67269 1.2026 1.0542 0.46687 0.38151 0.97262 0.76826 1.4254 1.0806s0.85245 0.54997 1.1867 0.72741c0.33424 0.17744 0.60289 0.2946 0.93713 0.41703 0.33424 0.12244 0.73391 0.25022 1.6942 0.5022 0.96028 0.25197 2.4812 0.62807 4.1542 0.99715 1.673 0.36909 3.498 0.73107 4.5025 0.92626s1.1883 0.22371 1.3333 0.23967c0.14501 0.016 0.25112 0.0195 0.35546 0.023 0.10434 3e-3 0.20686 7e-3 0.3395 3e-3 0.13262-3e-3 0.29529-0.0142 0.50535-0.0391 0.21007-0.0248 0.4675-0.0639 0.79113-0.10821 0.32363-0.0444 0.71344-0.094 1.0516-0.15256 0.33816-0.0585 0.62465-0.12599 0.83862-0.1881 0.21398-0.0621 0.3556-0.11888 0.53067-0.21115 0.17507-0.0923 0.3836-0.22009 0.62411-0.37269 0.24051-0.15261 0.51293-0.32998 0.91084-0.57486s0.92137-0.55722 1.5492-0.9618c0.6278-0.40458 1.36-0.90138 1.8198-1.2243 0.45979-0.32295 0.64722-0.47211 0.86121-0.66198 0.21398-0.18986 0.45432-0.42055 0.70898-0.69381 0.25465-0.27326 0.52354-0.58913 0.82947-0.98661 0.30594-0.39748 0.64897-0.87644 0.94783-1.297 0.29887-0.42055 0.55362-0.7827 0.72514-1.0534 0.17152-0.27072 0.27855-0.45014 0.32276-0.53989 0.0442-0.08975 0.0256-0.08968-0.15982 0.08829-0.18543 0.17797-0.55633 0.53377-0.84389 0.80612-0.28755 0.27236-0.49173 0.46123-0.76854 0.72819s-0.62632 0.61202-0.92194 0.90594c-0.29562 0.29393-0.53734 0.53663-0.81682 0.80359-0.2795 0.26696-0.59664 0.55824-0.85732 0.79284s-0.46497 0.41245-0.62352 0.54458-0.27133 0.21851-0.37882 0.29671c-0.1075 0.0782-0.20969 0.14828-0.27954 0.19142-0.0698 0.04315-0.10752 0.05943-0.13705 0.06485-0.0295 0.0054-0.0511-1.9e-5 -0.0592-0.01349-8e-3 -0.01345-3e-3 -0.03507 0.0135-0.05938 0.0161-0.0243 0.0429-0.05124 0.17462-0.22112 0.13166-0.16988 0.36814-0.48262 0.59119-0.78464 0.22306-0.30202 0.43281-0.59341 0.58867-0.81453 0.15588-0.22112 0.25792-0.37199 0.3251-0.48793 0.0672-0.11594 0.0994-0.19688 0.12361-0.26428 0.0242-0.0674 0.0733-0.16325 0.0196-0.14981-0.0537 0.01345-0.21041 0.13631-0.37973 0.28732-0.16932 0.15102-0.38429 0.37209-0.66109 0.63365-0.27679 0.26156-0.61543 0.56355-0.91104 0.81433-0.29562 0.25078-0.54817 0.45025-0.80884 0.63092-0.26068 0.18067-0.52937 0.34254-0.8653 0.5313s-0.73896 0.40459-1.0426 0.56099c-0.30367 0.1564-0.50797 0.25331-0.6934 0.33421-0.18542 0.0809-0.35201 0.14577-0.5402 0.21955-0.1882 0.0738-0.39798 0.15664-0.60776 0.23948 0.20978-2e-3 0.41955-4e-3 0.64806-0.0104 0.22851-6e-3 0.47569-0.017 0.67724-0.0359 0.20156-0.0189 0.35741-0.0459 0.48102-0.0729 0.12362-0.027 0.21504-0.0539 0.30641-0.0809-0.10212 0.10247-0.20426 0.205-0.33055 0.29397-0.12629 0.089-0.27678 0.16443-0.45415 0.25882-0.17737 0.0944-0.38171 0.20764-0.58596 0.30471-0.20423 0.0971-0.40835 0.17785-0.57289 0.23557-0.16455 0.0577-0.28943 0.0923-0.46857 0.1256-0.17914 0.0332-0.41252 0.0652-0.64065 0.0865-0.22812 0.0213-0.45107 0.032-0.63675 0.0338-0.18569 2e-3 -0.33424-5e-3 -0.48278-0.0178-0.14855-0.0124-0.29697-0.0302-0.43314-0.0568-0.13616-0.0266-0.25996-0.0622-0.39789-0.0994-0.13795-0.0373-0.29017-0.0761-0.4458-0.1258-0.15562-0.0497-0.31475-0.11004-0.4633-0.16505-0.14855-0.055-0.28636-0.10469-0.41192-0.14728-0.12556-0.0426-0.23889-0.0781-0.33969-0.10645-0.1008-0.0284-0.18906-0.0498-0.26864-0.0676-0.0796-0.0178-0.15032-0.0319-0.20868-0.0408-0.0583-9e-3 -0.10436-0.0123-0.14328-0.0123-0.0389-1e-5 -0.0708 3e-3 -0.0938 0.0178-0.023 0.0142-0.0372 0.039-0.0177 0.0674s0.0725 0.0603 0.14153 0.1047c0.069 0.0444 0.15387 0.1011 0.22815 0.15079 0.0743 0.0497 0.13793 0.0923 0.21044 0.14376 0.0725 0.0515 0.15384 0.1119 0.23165 0.17756 0.0778 0.0657 0.15193 0.13646 0.2262 0.20744-0.27941-0.0426-0.55863-0.0851-0.81683-0.1295-0.25819-0.0444-0.49513-0.0905-0.75686-0.14728-0.26173-0.0568-0.54824-0.12414-0.85595-0.1969-0.30772-0.0727-0.6366-0.15098-0.90364-0.21486-0.26704-0.0639-0.47231-0.11341-0.67745-0.1631-0.20514-0.0497-0.41017-0.0994-1.0786-0.26623-0.66848-0.1668-1.8003-0.45065-2.451-0.61744-0.65079-0.1668-0.82058-0.21664-1.0027-0.27873-0.18215-0.0621-0.37661-0.13655-0.57291-0.21995s-0.39446-0.17564-0.63851-0.31936-0.53409-0.33903-0.77107-0.51469c-0.23698-0.17567-0.42078-0.33175-0.61593-0.49731s-0.40176-0.34051-0.60814-0.51547c0.0543 0.12528 0.10871 0.25063 0.1606 0.3807 0.0519 0.13007 0.10152 0.26491 0.15106 0.36605 0.0495 0.10114 0.0989 0.16861 0.13958 0.22717 0.0407 0.05856 0.0726 0.10827 0.11329 0.16505 0.0407 0.05678 0.09 0.12051 0.13958 0.1844-0.21928-0.12067-0.43839-0.24132-0.79385-0.48442-0.35547-0.2431-0.84716-0.60867-1.2893-0.94227-0.44212-0.3336-0.83467-0.63512-1.176-0.91903-0.34131-0.28392-0.6314-0.5501-0.82947-0.75593-0.19808-0.20583-0.30406-0.35146-0.38719-0.49164-0.0832-0.14018-0.14336-0.27498-0.19642-0.40629-0.0531-0.13131-0.0991-0.25909-0.13977-0.3975-0.0407-0.13841-0.0761-0.28745-0.10084-0.44184-0.0248-0.15439-0.0389-0.31407-0.0459-0.44184s-7e-3 -0.22367-0.0123-0.30706c-5e-3 -0.08339-0.0159-0.15436-0.0212-0.21115-5e-3 -0.05679-6e-3 -0.09932-0.0142-0.13126-9e-3 -0.03194-0.0265-0.05318-0.0477-0.06211-5e-3 -0.0023-0.0107-0.0038-0.0163-0.0043zm31.199 2.5688c-7e-3 3.82e-4 -0.0131 0.0015-0.0196 0.0039-0.0132 0.0046-0.0265 0.01394-0.0444 0.02987s-0.0403 0.03847-0.0662 0.07169c-0.0258 0.0332-0.055 0.07697-0.0934 0.13341s-0.086 0.12561-0.13295 0.19533c-0.047 0.06972-0.0933 0.14003-0.14035 0.21506-0.047 0.07503-0.0946 0.15472-0.14154 0.2344-0.047 0.07967-0.0933 0.15936-0.13373 0.23439-0.0403 0.07503-0.0748 0.14542-0.10649 0.21116-0.0317 0.06574-0.0608 0.12685-0.088 0.19592-0.0272 0.06906-0.0522 0.146-0.0734 0.22834s-0.0384 0.16995-0.0529 0.25628c-0.0146 0.08632-0.0266 0.17128-0.0358 0.23635-0.01 0.06507-0.0158 0.11029-0.0224 0.17404-7e-3 0.06374-0.0133 0.14597-0.0192 0.22698-6e-3 0.081-0.0112 0.16074-0.0165 0.2424-5e-3 0.08167-0.0105 0.16535-0.0171 0.24436-7e-3 0.07901-0.0146 0.15347-0.0231 0.23381-9e-3 0.08034-0.0179 0.16663-0.0265 0.23635-9e-3 0.06972-0.0165 0.12274-0.0302 0.19709-0.0136 0.07435-0.0331 0.16987-0.0523 0.26546 0.0355-0.03904 0.0711-0.07812 0.10804-0.11876 0.0369-0.04065 0.0753-0.08285 0.10764-0.12228 0.0323-0.03943 0.0583-0.07607 0.0888-0.12208 0.0304-0.04601 0.0651-0.10139 0.0927-0.15255 0.0276-0.05117 0.0483-0.09819 0.0646-0.1381 0.0164-0.03991 0.0285-0.07277 0.0407-0.10236 0.0122-0.02957 0.0244-0.0557 0.0356-0.07637s0.0215-0.03583 0.0313-0.04805c0.01-0.01223 0.0191-0.02162 0.0277-0.02674 9e-3 -0.0052 0.016-0.0059 0.0236-0.0058 8e-3 1.5e-5 0.0148 7.64e-4 0.0194 0.0041 5e-3 0.0034 7e-3 0.0091 0.01 0.02032 3e-3 0.01127 7e-3 0.02812 8e-3 0.04454 9.7e-4 0.01643 3.4e-4 0.03243-2e-3 0.05469-2e-3 0.02223-5e-3 0.05064-6e-3 0.06485-9.7e-4 0.01421-9.7e-4 0.01421-0.0196 0.10743-0.0183 0.09321-0.0549 0.27955-0.0901 0.44614-0.0352 0.16658-0.069 0.31347-0.10551 0.45746-0.0366 0.14399-0.076 0.28498-0.10979 0.39085-0.0338 0.10587-0.0619 0.17647-0.0928 0.24846-0.031 0.072-0.0646 0.14557-0.10959 0.21897-0.045 0.0734-0.10129 0.1467-0.16742 0.22717-0.0662 0.0805-0.14221 0.16801-0.21959 0.25412-0.0774 0.0861-0.15622 0.17078-0.25189 0.26819-0.0957 0.0974-0.20818 0.20745-0.34924 0.34964-0.14105 0.14219-0.3105 0.31661-0.48005 0.49086 0.25678-0.10084 0.51361-0.20182 0.71093-0.29319 0.19732-0.0914 0.33517-0.17313 0.45046-0.24338 0.11528-0.0702 0.20803-0.12901 0.30933-0.20666 0.10129-0.0776 0.21103-0.17415 0.31945-0.28459 0.10841-0.11045 0.21546-0.23483 0.29706-0.33929s0.13784-0.18904 0.19272-0.28362c0.0548-0.0946 0.1083-0.19918 0.16176-0.31917 0.0535-0.11999 0.10694-0.25547 0.16042-0.41781 0.0535-0.16234 0.10684-0.35153 0.14483-0.50258 0.038-0.15105 0.0605-0.26397 0.0845-0.42914 0.0239-0.16517 0.0492-0.38246 0.069-0.64928 0.0197-0.26681 0.0339-0.58314 0.0352-0.87254 9.6e-4 -0.2894-0.01-0.55186-0.0183-0.75515-9e-3 -0.20329-0.014-0.34735-0.0253-0.48852-0.0112-0.14117-0.0281-0.27953-0.0448-0.38128-0.0166-0.10176-0.0332-0.16689-0.0473-0.21076-0.0142-0.04387-0.0262-0.06649-0.0367-0.08243-0.0105-0.01593-0.0198-0.02525-0.0298-0.03125s-0.0204-0.0086-0.0323-0.01c-6e-3 -7.64e-4 -0.0122-0.0011-0.0187-7.64e-4zm-22.27 6.9125c-0.35517 0.20789-0.71028 0.41579-1.0845 0.63853-0.37421 0.22275-0.76753 0.46026-1.0973 0.64693-0.32981 0.18668-0.5961 0.32249-0.85615 0.44341-0.26003 0.12091-0.51379 0.22705-0.74634 0.30979-0.23255 0.0827-0.44387 0.14207-0.62781 0.19299-0.18393 0.0509-0.34049 0.0932-0.47791 0.12716-0.13741 0.034-0.25568 0.0595-0.35293 0.0807-0.0973 0.0212-0.17351 0.0382-0.22212 0.0445-0.0486 6e-3 -0.0696 2e-3 -0.0845-0.0127-0.0148-0.0148-0.0233-0.0401-0.0212-0.0613 2e-3 -0.0213 0.0149-0.0383 0.0381-0.0553 0.0233-0.017 0.0571-0.0339 0.15009-0.0891 0.093-0.0552 0.2451-0.14862 0.38252-0.25256 0.13741-0.10394 0.26009-0.21841 0.38272-0.3266 0.12262-0.10819 0.2452-0.21009 0.34455-0.30979 0.0994-0.0997 0.17544-0.19724 0.23886-0.28421 0.0634-0.087 0.11418-0.16331 0.15224-0.22482 0.038-0.0615 0.0635-0.10815 0.0868-0.14845 0.0232-0.0403 0.0443-0.0743 0.0549-0.10822 0.0105-0.0339 0.0106-0.0679-6e-3 -0.085-0.0168-0.017-0.0508-0.0168-0.10785 9e-3 -0.0572 0.0255-0.13752 0.0762-0.29609 0.18655-0.15857 0.11031-0.39526 0.28003-0.59821 0.41156-0.20296 0.13152-0.37204 0.22489-0.63462 0.3598-0.26258 0.1349-0.60862 0.30636-0.96379 0.46547-0.35518 0.1591-0.71454 0.30328-0.99573 0.41996-0.28118 0.11667-0.48405 0.20585-0.58555 0.25041-0.10151 0.0446-0.10165 0.0445 0.0269 0.24494l0.64241 1.0018c0.37307-0.0613 0.74623-0.12266 1.0934-0.18302 0.34721-0.0604 0.66864-0.11985 1.028-0.20471 0.3594-0.0849 0.75686-0.19518 1.1036-0.32034s0.64262-0.26513 0.93226-0.42211c0.28963-0.15698 0.57286-0.33092 0.84135-0.51548 0.26849-0.18455 0.5223-0.37965 0.78023-0.60239 0.25792-0.22274 0.52001-0.47315 0.72085-0.67468 0.20085-0.20152 0.34042-0.35431 0.45669-0.50492 0.11628-0.15061 0.2093-0.29901 0.30232-0.4475z" fill="#147bdb" stroke="#147bdb" stroke-width=".077675" style="paint-order:stroke fill markers"/>
<path d="m-155.3 67.469c-0.0808 0.0018-0.16083 0.01-0.23867 0.02618-0.15566 0.0324-0.30244 0.09719-0.44929 0.1797s-0.2938 0.1827-0.42009 0.30647-0.23194 0.27124-0.35235 0.45688c-0.1204 0.18564-0.25541 0.40951-0.35819 0.5981s-0.17335 0.34179-0.19389 0.48032c-0.0205 0.13852 9e-3 0.26234 0.0529 0.36546 0.0441 0.10313 0.10278 0.1855 0.17034 0.2385 0.0676 0.053 0.144 0.07658 0.2262 0.0795 0.0822 0.0029 0.1703-0.01463 0.25249-0.05293 0.0822-0.0383 0.15839-0.09732 0.23768-0.15919 0.0793-0.06188 0.16152-0.12663 0.24373-0.22385 0.0822-0.09722 0.16448-0.22689 0.23496-0.34769 0.0705-0.1208 0.12919-0.2328 0.17618-0.34476 0.047-0.11196 0.0822-0.22384 0.11154-0.32991 0.0294-0.10607 0.053-0.2064 0.0794-0.28303s0.0558-0.12969 0.0911-0.16212c0.0353-0.03244 0.0763-0.04412 0.13217-0.02344 0.0558 0.02068 0.12627 0.07365 0.1791 0.13849 0.0528 0.06484 0.0881 0.14158 0.10571 0.25354 0.0176 0.11196 0.0176 0.25924 9e-3 0.42719-9e-3 0.16795-0.0265 0.35649-0.0352 0.49204-9e-3 0.13555-9e-3 0.218 0.0177 0.28577 0.0265 0.06777 0.0793 0.12093 0.16449 0.18869 0.0852 0.06776 0.2025 0.15028 1.7442 0.83094 1.5417 0.68065 4.5075 1.9594 6.5396 2.8256 2.0321 0.86629 3.1305 1.32 3.8433 1.623 0.71284 0.30304 1.0401 0.45537 1.2437 0.54829s0.2836 0.12644 0.3905 0.16466c0.10691 0.03822 0.24077 0.08111 0.37474 0.12404 0.33976 0.1042 1.076 0.288 1.3986 0.24728 0.32258-0.04072 0.97377 0.01185 1.2507 0.09686 0.26733 0.08207 0.29399-0.01152 0.44138-0.05499 0.17272-0.05095 0.20196-0.04842 0.39054-0.04771 0.24959 9.17e-4 0.31059-0.34601-0.22439-0.60944l-2.8513-1.3732c-2.8514-1.3731-8.5541-4.1191-11.485-5.5099-2.9307-1.3908-3.0892-1.4262-3.2507-1.4439-0.0808-0.0089-0.16219-0.01336-0.24295-0.01152zm22.869 10.831v0.042c0 0.04204 3e-5 0.12604-6e-3 0.21369-6e-3 0.08765-0.0177 0.17887-0.0339 0.30042s-0.0367 0.27336-0.0602 0.3971c-0.0235 0.12375-0.0499 0.2195-0.0763 0.31526 0.0631 0.01918 0.12638 0.0383 0.29083 0.0965s0.43023 0.15544 0.73857 0.27405c0.30834 0.1186 0.65918 0.25856 1.0835 0.42504 0.42435 0.16648 0.92204 0.3595 1.3633 0.52524s0.82591 0.30427 1.0946 0.40004c0.26869 0.09576 0.42136 0.14864 0.53222 0.184 0.11085 0.03534 0.17992 0.0531 0.23203 0.06192 0.0521 0.0088 0.0874 0.0089 0.12926 0.0015 0.0419-0.0074 0.0902-0.02223 0.12985-0.03771 0.0396-0.01547 0.0704-0.03152 0.10414-0.05508 0.0338-0.02353 0.0706-0.05462 0.0977-0.08848 0.0272-0.03388 0.0447-0.07057 0.0535-0.10001 9e-3 -0.02945 9e-3 -0.05174 9e-3 -0.07383-0.11159-0.07072-0.22301-0.14124-0.4528-0.26721-0.22978-0.12597-0.57778-0.30721-0.98229-0.51274-0.40452-0.20553-0.86552-0.43549-1.2671-0.63365s-0.74379-0.36464-1.08-0.52817c-0.33623-0.16354-0.66652-0.32397-0.92641-0.45141s-0.44927-0.22181-0.59977-0.29768-0.26217-0.13338-0.37376-0.19084zm-15.049 5.604c-0.0197 1e-4 -0.0403 0.0011-0.0603 0.0027-0.0399 0.0031-0.0773 0.0095-0.12088 0.01681-0.0436 0.0073-0.0936 0.01555-0.11856 0.01975-0.025 0.0042-0.0249 0.0044-0.0695 0.01268l-2.1e-4 -3.82e-4c-0.0446 0.0083-0.13399 0.02498-0.25442 0.05157-0.12044 0.02659-0.27201 0.06296-0.40802 0.09943-0.13601 0.03648-0.25643 0.07292-0.36442 0.11251-0.10799 0.03958-0.20337 0.08223-0.31186 0.12911s-0.23009 0.09805-0.32354 0.13868c-0.0934 0.04062-0.15876 0.07068-0.21724 0.09864-0.0585 0.02796-0.11002 0.05379-0.16158 0.0795 0.0485 0.05033 0.0969 0.10075 0.13821 0.14728 0.0414 0.04653 0.0755 0.0892 0.10668 0.12775 0.0311 0.03854 0.0593 0.07304 0.0815 0.11056 0.0223 0.03751 0.039 0.07801 0.0536 0.1254 0.0145 0.0474 0.0269 0.10163 0.0346 0.15216 8e-3 0.05053 0.0109 0.09735 0.01 0.1463-2e-3 0.04896-8e-3 0.10007-0.015 0.14435-8e-3 0.04428-0.0156 0.0817-0.0327 0.10822-0.0171 0.02651-0.0431 0.04218-0.0831 0.05-0.04 0.0078-0.0938 0.0077-0.15555 0.0031-0.0618-0.0047-0.13146-0.01394-0.19583-0.0207-0.0644-0.0068-0.12347-0.011-0.17384-0.01-0.0504 0.0011-0.0919 0.0073-0.13393 0.0162-0.0421 0.0088-0.0847 0.02032-0.12576 0.04688-0.041 0.02659-0.0805 0.06821-0.10589 0.10626-0.0254 0.03805-0.037 0.07239-0.0473 0.11251-0.0105 0.04012-0.0197 0.08607-0.0275 0.1465-8e-3 0.06044-0.0141 0.13537-0.0177 0.19943-4e-3 0.06407-5e-3 0.11726-3e-3 0.17404 9.7e-4 0.05678 4e-3 0.11719 9e-3 0.17189 5e-3 0.05469 0.011 0.10365 0.0204 0.1422 0.01 0.03855 0.0217 0.06661 0.0394 0.09786s0.0405 0.06558 0.0847 0.1088c0.0441 0.04322 0.10953 0.09546 0.1713 0.14025 0.0618 0.04479 0.11999 0.08217 0.18436 0.12072 0.0644 0.03854 0.13497 0.07826 0.20245 0.1168 0.0675 0.03855 0.13192 0.076 0.19058 0.10411 0.0587 0.02812 0.11147 0.04689 0.14834 0.05782 0.0368 0.01093 0.0576 0.01398 0.0794 0.01601 0.0218 0.0019 0.0447 0.0031 0.0965-0.0031 0.0519-0.0063 0.13282-0.01979 0.44014-0.09063 0.30731-0.07084 0.84103-0.19904 1.1452-0.27092 0.30421-0.07188 0.37889-0.08745 0.45415-0.10255 0.0752-0.01513 0.15113-0.02976 0.22173-0.04121 0.0706-0.01146 0.13594-0.01987 0.1972-0.02716 0.0612-0.0073 0.11847-0.01349 0.1678-0.01505 0.0493-0.0015 0.0908 0.0015 0.12926 0.01093 0.0384 0.0094 0.0737 0.02506 0.11836 0.04434 0.0447 0.01929 0.0987 0.04218 0.15165 0.07031 0.0529 0.02812 0.10485 0.0614 0.16507 0.10099 0.0603 0.03959 0.12875 0.08555 0.18999 0.13087 0.0612 0.04532 0.11525 0.09011 0.15574 0.12658 0.0405 0.03648 0.0674 0.06465 0.0845 0.08653 0.0171 0.02189 0.0244 0.03736 0.0281 0.05196 4e-3 0.01459 4e-3 0.02812-5e-3 0.03848-9e-3 0.01035-0.0265 0.01761-0.0717 0.02128-0.0452 0.0038-0.11778 0.0038-0.1863 0.0015-0.0686-0.0023-0.13282-0.0062-0.19408-0.0078-0.0612-0.0015-0.11939-7.64e-4 -0.18065 0.0027-0.0612 0.0031-0.12563 0.0082-0.23049 0.02227-0.10487 0.01406-0.25027 0.0369-0.42418 0.07442-0.17392 0.03751-0.37643 0.08972-0.56123 0.13712-0.1848 0.04741-0.35195 0.08998-0.489 0.12384-0.13704 0.03388-0.24399 0.05886-0.33172 0.07501-0.0877 0.01612-0.15611 0.02361-0.21062 0.02987-0.0546 0.0062-0.0951 0.01138-0.14075 0.01818-0.0456 0.0068-0.0965 0.01517-0.13549 0.02716-0.039 0.012-0.066 0.02758-0.0853 0.04532-0.0192 0.01772-0.0305 0.03751-0.0425 0.05782-0.0119 0.02029-0.0245 0.04114-0.0379 0.07969-0.0134 0.03856-0.028 0.09479-0.039 0.1547-0.0109 0.05991-0.0181 0.12356-0.0196 0.17619-2e-3 0.05262 3e-3 0.09422 9e-3 0.13068 6e-3 0.03648 0.0146 0.06772 0.0292 0.09844 0.0145 0.03072 0.0353 0.06089 0.0638 0.09317s0.0649 0.06675 0.11681 0.10372c0.0519 0.03698 0.11939 0.07658 0.18376 0.11095 0.0644 0.03434 0.12563 0.06342 0.19155 0.09259 0.066 0.02919 0.1366 0.05834 0.21082 0.08751 0.0742 0.02919 0.15216 0.05837 0.24432 0.09318 0.0922 0.0348 0.19839 0.07518 0.30484 0.11563 0.1448-0.03003 0.28975-0.06005 0.46078-0.09591 0.17103-0.03587 0.36824-0.07755 0.62469-0.1338 0.25644-0.05626 0.57212-0.12703 0.83531-0.18849 0.26319-0.06147 0.47389-0.11355 0.62547-0.1547 0.15157-0.04115 0.24398-0.0713 0.33794-0.10724 0.0939-0.03595 0.18948-0.07774 0.27876-0.12149 0.0893-0.04375 0.17235-0.08959 0.25229-0.13595 0.08-0.04635 0.15679-0.09317 0.23049-0.1463s0.14432-0.11259 0.21335-0.18342c0.0691-0.07083 0.13654-0.15315 0.20246-0.26252 0.066-0.10937 0.13029-0.24579 0.18532-0.36664 0.055-0.12084 0.10057-0.226 0.13899-0.31976 0.0384-0.09375 0.0695-0.17612 0.0981-0.25217 0.0285-0.07604 0.0545-0.14571 0.0763-0.20041s0.0396-0.09426 0.0567-0.12345 0.0337-0.04798 0.0467-0.05997c0.013-0.012 0.0224-0.01723 0.0354-0.01406 0.0131 0.0031 0.0296 0.01459 0.0446 0.03125s0.0286 0.03854 0.0473 0.07344c0.0187 0.03488 0.0425 0.08282 0.0617 0.12814 0.0191 0.04532 0.0338 0.08803 0.0452 0.12657s0.0197 0.07299 0.0249 0.10685c5e-3 0.03389 7e-3 0.06725 0.01 0.09591 3e-3 0.02865 6e-3 0.05247 0.01 0.07227 4e-3 0.01983 0.01 0.03541 0.0183 0.04473 9e-3 0.0093 0.0214 0.01253 0.0327 0.01093 0.0114-0.0015 0.0217-0.0078 0.0331-0.02032 0.0114-0.01245 0.0238-0.03113 0.0367-0.05821 0.013-0.02708 0.0265-0.06264 0.0442-0.12306 0.0176-0.06042 0.0395-0.14569 0.0504-0.18674s0.0109-0.03821 0.0156-0.07051c5e-3 -0.03232 0.0139-0.09995 0.0191-0.17599 5e-3 -0.07604 7e-3 -0.1605 6e-4 -0.24905-6e-3 -0.08854-0.0183-0.18127-0.0396-0.27346-0.0213-0.0922-0.0513-0.18374-0.0938-0.27229-0.0426-0.08856-0.0977-0.1741-0.17034-0.25588-0.0726-0.08179-0.16287-0.15996-0.28693-0.23967s-0.28182-0.16087-0.50555-0.25881c-0.22374-0.09793-0.5134-0.21258-0.76466-0.30842-0.25124-0.09585-0.46408-0.17286-0.67588-0.24162s-0.42255-0.12924-0.57621-0.17092c-0.15366-0.04167-0.25021-0.06464-0.3395-0.08184-0.0893-0.01719-0.17151-0.02861-0.24626-0.03752-0.0748-0.0089-0.14216-0.01505-0.21121-0.01662-0.0691-0.0015-0.13964 0.0015-0.2118 0.0047-0.0721 0.0031-0.14586 0.0063-0.23983 0.01563-0.094 0.0094-0.20823 0.02491-0.31672 0.04161-0.1085 0.01666-0.21121 0.03434-0.30622 0.05254-0.095 0.01822-0.18227 0.03709-0.25442 0.0543-0.0721 0.01719-0.1292 0.03282-0.17073 0.04219-0.0415 0.0094-0.0674 0.01245-0.0882 0.01505-0.0208 0.0027-0.0364 0.0048-0.0536 0.0023-0.0171-0.0027-0.0358-0.0099-0.0452-0.02032-0.01-0.01039-0.01-0.02399-7e-3 -0.04121 3e-3 -0.01719 8e-3 -0.03786 0.0244-0.06446 0.0166-0.02663 0.0447-0.05898 0.0956-0.10274s0.12458-0.0989 0.20401-0.15099c0.0794-0.05209 0.1645-0.10105 0.23302-0.1422 0.0686-0.04115 0.12056-0.07461 0.16312-0.10274 0.0426-0.02812 0.0756-0.05093 0.0985-0.06915 0.0228-0.01822 0.0353-0.03175 0.039-0.04317 4e-3 -0.01139-2e-3 -0.02074-0.0119-0.03068-0.0104-0.0099-0.0259-0.0204-0.0452-0.02773-0.0192-0.0073-0.0421-0.01158-0.0748-0.01368-0.0163-0.0011-0.0352-0.0015-0.0549-0.0015zm37.095 3.0534c-0.0433-2.03e-4 -0.0839 0.0054-0.12887 0.01368-0.0513 0.0096-0.10859 0.02281-0.16293 0.04121-0.0544 0.01841-0.10577 0.04187-0.16157 0.07208-0.0558 0.03018-0.11614 0.06703-0.17268 0.10313-0.0565 0.0361-0.10924 0.07158-0.13568 0.08927-0.0264 0.01769-0.0265 0.01761-0.0815 0.07286-0.0551 0.05527-0.16526 0.16571-0.26066 0.27248-0.0955 0.10682-0.1761 0.20989-0.25833 0.32776-0.0822 0.11787-0.16599 0.25038-0.23574 0.37562-0.0697 0.12524-0.12549 0.24313-0.17247 0.34847-0.047 0.10535-0.0851 0.19817-0.12109 0.29983-0.036 0.10166-0.0698 0.2123-0.10064 0.32796-0.0309 0.11566-0.0587 0.23635-0.0792 0.3557-0.0206 0.11934-0.0339 0.2372-0.0405 0.35433-7e-3 0.11713-7e-3 0.23359-5.9e-4 0.34925 6e-3 0.11566 0.0176 0.2306 0.0278 0.30647 0.0103 0.07588 0.0191 0.11268 0.0352 0.16056s0.0396 0.10682 0.075 0.16427c0.0353 0.05745 0.0822 0.11344 0.14094 0.16056 0.0587 0.04712 0.12934 0.08529 0.18513 0.10958 0.0558 0.0243 0.0967 0.03469 0.1349 0.04278 0.0382 0.0081 0.0735 0.0141 0.11642 0.0053 0.0429-0.0088 0.0936-0.0324 0.11894-0.04415 0.0253-0.01177 0.0251-0.01177 0.0358-0.02285 0.0106-0.01108 0.0321-0.03331 0.0413-0.05391 0.01-0.02059 6e-3 -0.03961-6e-3 -0.06465-0.0125-0.02506-0.0345-0.056-0.058-0.08106s-0.0484-0.04423-0.0792-0.07442c-0.0309-0.03022-0.0675-0.07152-0.0961-0.12013s-0.0493-0.1046-0.064-0.19006-0.0234-0.20026-0.025-0.32991c-2e-3 -0.12965 5e-3 -0.27415 0.0162-0.41117 0.0117-0.13702 0.0294-0.26655 0.0551-0.38148s0.0594-0.21525 0.10122-0.32796c0.0419-0.11271 0.0918-0.23781 0.14172-0.34906 0.0499-0.11124 0.0997-0.20859 0.16508-0.31468 0.0654-0.10608 0.14625-0.22094 0.23069-0.32776 0.0844-0.10682 0.17247-0.20542 0.24956-0.28498 0.0771-0.07956 0.1431-0.13999 0.2077-0.19377s0.12778-0.10096 0.19019-0.13927c0.0624-0.03831 0.1242-0.06786 0.18221-0.08848 0.058-0.02059 0.11221-0.03232 0.15846-0.04043 0.0462-0.0081 0.0845-0.01249 0.12343-0.01173 0.0389 7.64e-4 0.0786 0.0067 0.11679 0.01329 0.0382 0.0066 0.0748 0.0139 0.10629 0.01757 0.0315 0.0038 0.058 0.0039 0.0742 0.0023 0.0162-0.0015 0.0221-0.0045 0.0265-0.01406 5e-3 -0.0095 7e-3 -0.0256-2e-3 -0.05138-9e-3 -0.02579-0.0294-0.06121-0.0513-0.10098-0.0221-0.03978-0.0455-0.08395-0.0859-0.13185-0.0403-0.0479-0.0976-0.09944-0.1497-0.13556-0.0521-0.03614-0.0991-0.05679-0.15048-0.07227-0.0513-0.01551-0.10721-0.02571-0.15787-0.02793-7e-3 -2.98e-4 -0.0125-3.82e-4 -0.0187-3.82e-4zm-3.365 0.07598c-0.0132 0.0442-0.0264 0.08861-0.0344 0.1424s-0.011 0.11703-0.0132 0.19806c-2e-3 0.08103-4e-3 0.17976 0 0.2549s0.0125 0.12675 0.0228 0.16506c0.0102 0.0383 0.022 0.06338 0.039 0.09063 0.0169 0.02724 0.0388 0.05676 0.0755 0.08399 0.0367 0.0272 0.0882 0.05218 0.13958 0.07501 0.0513 0.02285 0.10274 0.04344 0.1534 0.05743 0.0507 0.01398 0.10055 0.02135 0.16001 0.02579 0.0595 0.0044 0.12856 0.0059 0.18727 7.64e-4 0.0587-0.0052 0.10708-0.01692 0.14892-0.02873 0.0419-0.0118 0.0773-0.02365 0.10804-0.03985 0.0309-0.01624 0.0573-0.03683 0.0796-0.05977 0.0223-0.02292 0.0406-0.04814 0.0648-0.08497 0.0243-0.03683 0.0543-0.08522 0.0717-0.12267 0.0172-0.03748 0.0217-0.06412 0.0261-0.09063-0.2775-0.15912-0.55497-0.31811-0.69379-0.39769-0.1388-0.07959-0.13871-0.07963-0.17169-0.09727-0.033-0.01765-0.099-0.05298-0.15185-0.0795-0.0528-0.02655-0.0926-0.04421-0.12555-0.05821-0.0331-0.01398-0.0596-0.02445-0.0861-0.03476zm3.6704 0.75925c-0.0251-7.64e-4 -0.0537 0.0023-0.079 0.01135-0.0339 0.0118-0.0618 0.03381-0.11096 0.07657-0.0492 0.04273-0.11966 0.10616-0.17987 0.16584-0.0602 0.05967-0.10999 0.11558-0.1423 0.15685-0.0323 0.04126-0.047 0.06782-0.0544 0.08107-8e-3 0.01322-8e-3 0.01322-0.0471 0.07364-0.0397 0.06042-0.11882 0.18129-0.19077 0.29768-0.072 0.1164-0.13666 0.22829-0.19466 0.34026s-0.10942 0.22402-0.15125 0.32347c-0.0419 0.09945-0.0741 0.18637-0.10493 0.27698-0.0309 0.09061-0.0602 0.18493-0.0815 0.26154s-0.0343 0.13542-0.0483 0.22014c-0.0139 0.08472-0.0287 0.19537-0.0339 0.28967-5e-3 0.0943-6.3e-4 0.1724 5e-3 0.22912 6e-3 0.05673 0.0132 0.09197 0.0286 0.12364 0.0155 0.03167 0.0389 0.05971 0.0638 0.07735 0.025 0.01765 0.0514 0.0251 0.0859 0.02284 0.0345-0.0023 0.0773-0.0141 0.12419-0.0369 0.047-0.02285 0.0982-0.05672 0.17715-0.1254 0.0789-0.06868 0.18532-0.17212 0.27195-0.26272 0.0867-0.0906 0.15357-0.16842 0.22075-0.25295 0.0672-0.08453 0.1346-0.17581 0.197-0.26936s0.11969-0.18934 0.16741-0.28362c0.0477-0.09428 0.0858-0.18705 0.11739-0.2887 0.0315-0.10164 0.0566-0.21209 0.0779-0.31448s0.039-0.19676 0.0529-0.30725 0.0242-0.23718 0.0279-0.33441c4e-3 -0.09723 8.1e-4 -0.16509-8e-3 -0.2299-9e-3 -0.06481-0.0235-0.12663-0.0411-0.17599s-0.0382-0.08613-0.058-0.109c-0.0198-0.02288-0.039-0.03163-0.0683-0.03538-8e-3 -7.64e-4 -0.0154-0.0019-0.0238-0.0019z" fill="#edcc97" stroke="#edcc97" stroke-linejoin="round" stroke-width=".099839px"/>
<path d="m-157.04 66.995c0.0789-0.06043 0.23672-0.18127 0.37663-0.2766s0.2619-0.16512 0.39896-0.2245c0.13707-0.05938 0.28916-0.10834 0.42544-0.1422 0.13628-0.03385 0.25671-0.0526 0.39065-0.0651s0.28136-0.01874 0.41842-0.01666c0.13705 0.0021 0.26371 0.01251 0.36703 0.02573 0.10333 0.01323 0.1833 0.02924 0.30269 0.07823 0.11941 0.04898 0.27822 0.13089 0.38771 0.22709s0.16964 0.2065 0.22987 0.31693c-1.1254 0.04584-2.2508 0.09167-2.8136 0.11459-0.56277 0.02292-0.56277 0.02292-0.48385-0.03751z" fill="#0a2b5b"/>
<path d="m-132.65 79.776c-2e-3 -0.0086-7e-3 -0.02575-0.01-0.03903-3e-3 -0.01329-3e-3 -0.02265-2e-3 -0.03362 9.6e-4 -0.01096 5e-3 -0.02349 8e-3 -0.03259 4e-3 -0.0091 7e-3 -0.01486 0.0137-0.03129 7e-3 -0.01643 0.0166-0.04365 0.0265-0.07081 0.0686 0.0225 0.13719 0.04499 0.18521 0.06092 0.0481 0.01593 0.0754 0.02525 0.10293 0.03461l-0.32237 0.12032s-1e-5 0-2e-3 -0.0086z" fill="#0a2b5b"/>
<path d="m-129.07 124.38-0.9603 1.0122-0.3391-0.0176 0.6387 1.1491 0.91182 0.0176-0.53747-1.0739 0.25988 0.0176 1.2202-0.78659zm-1.4051 0.0664-1.3039 0.11055-0.32588 1.0872h-0.26884l1.0837 1.1005 0.83687-0.21213-0.94257-1.0122 0.28635-0.0309zm-2.5021 0.22971-1.22 0.36253 0.20693 1.3878-0.18941 0.0795 1.4888 0.76022 0.73118-0.34905-1.2245-0.79558-0.1717 0.0662 4e-3 -0.0752 0.25112-0.10606zm6.2506 0.4598-1.3039 0.51255-0.28187-0.0707 0.14094 1.0786 0.79287 0.22971v-0.97235l0.21141 0.12384 1.2686-0.28284zm-8.5146 0.38441-1.0263 0.61002 0.74869 1.3923-0.22892 0.12814 1.8456 0.49047 0.66498-0.49497-1.5725-0.52153-0.14094 0.0752zm9.8889 0.69401-1.1102 0.35355 0.0352 0.74244 0.59918 0.21233-0.0177-0.65416 1.0925-0.19455zm-11.677 0.53481-0.79716 0.65416 0.94257 1.2993 0.64747-0.59224zm-11.937 0.83524-1.1057 0.6188 0.16741 1.0298 0.81936-0.91043 0.0442-0.27483-0.0574 0.49575 1.2509 0.15919-0.30388-0.49067-0.84777-0.42309zm10.545 0.40218-0.72689 0.59673 0.8503 1.3038 0.70022-0.56118zm2.0263 0.27854-0.60347 0.57017 1.8367 0.45082 0.67393-0.66744zm-3.3124 0.79558-0.66071 0.45961 0.46954 1.4091-0.20089 0.11134 1.7532 0.76901 0.99533-0.67623-1.9424-0.53911-0.39556 0.21897 0.63345-0.36937zm-9.1003 9e-3 -0.61671 1.0255 0.71793 0.79109 0.40083-1.2198-0.0576-0.0686 0.20732 0.22756 1.5153-0.14572-0.60347-0.52602-1.4491 0.0522zm11.034 0.41097-0.66069 0.56138 1.8986 0.49946 0.73546-0.65846zm-3.0833 0.34925-0.81487 0.32699-0.11447 1.4101 0.97782-0.26526zm-5.1361 0.0662-1.4271 0.50844 0.74013 0.45961 1.4183-0.65416zm-1.6298 0.40238-0.33463 1.2331 0.97334 0.58326 0.10141-1.3613zm4.5811 0.0838-0.77963 1.2775 0.9778 0.0353 0.58148-1.3038zm-1.6342 5e-3 -1.1277 0.92372 0.8943 0.23869 1.1805-1.1271zm-1.4006 0.86629 0.13198 1.3083 1.2951 0.31819-0.47577-1.3833zm5.0127 0.12384-0.95153 0.29163 1.2334 1.0431 1.3389-0.39769zm-2.057 0.31819-0.96029 9e-3 0.67822 1.3392 1.3611-0.0795z" fill="#eb001f" stroke="#eb001f" stroke-width=".099996"/>
<path d="m-120.88 118.09-4.3695 0.10606 0.21141 0.38891-0.81039 2.2984 4.0171-0.35375 0.70471-0.42425 0.56394-1.6619zm-6.9066 0.10606-0.66965 1.8386-1.057-1.7326-1.8676 0.0707 0.28187 0.53032-0.84582 2.5459 1.5153-0.14142 0.59919-1.9801 1.057 1.7679 1.4448-0.0707 0.95134-2.7934zm-5.462 0.24749-4.722 0.56587 0.35235 0.56568-0.9161 2.6872 1.5858-0.21212 0.49329-1.4497 1.621-0.21213-0.49329 1.4497 1.656-0.24749 0.88107-2.6518zm11.7 0.23303-0.44851 1.3376-2.6911 0.22502 0.49834-1.4626zm-13.091 0.49594-0.24664 0.7071-1.4801 0.21232 0.14094-0.70729zm-7.912 0.26116-2.1849 0.21212 0.28207 0.63639-1.022 3.0409 5.1096-0.84871 0.21141-0.53032-3.5239 0.45961zm-3.6296 0.45961-1.6915 0.21213-0.77536 2.5459-1.1628-2.4045-2.0792 0.35355 0.2116 0.67193-0.98677 3.4298 1.7267-0.31839 0.77516-2.5457 1.1277 2.1568 1.621-0.31819zm-7.6117 0.99013-2.2552 0.28284 0.31711 0.74244-1.0218 3.6773 1.6562-0.31819zm-3.841 0.56567-6.2371 1.096 0.31711 0.81335-1.5153 4.349 1.9381-0.49496 0.77536-2.369 2.22-0.49516 0.35235-0.81316-2.1848 0.45961 0.28188-1.0253 1.9733-0.35354-0.14094 0.3889 1.7972-0.35355z" fill="#0e90e0" stroke="#0e90e0" stroke-width=".099839px"/>
</g>
<g transform="translate(48.625 151.86)" fill="#fff" stroke="#fff" stroke-width=".099839px">
<path d="m-0.54421-129.78c-0.035199-2e-3 -0.070499-4e-3 -0.1059-6e-3 -0.039353 0.0272-0.078806 0.0543-0.11836 0.0813-0.014436 0.048-0.028973 0.0959-0.043606 0.14376-0.028972 0.20637-0.087211 0.61881-0.087211 0.61881s0.46107 0.23762 0.69146 0.35628c0.18491 0.0772 0.36971 0.15428 0.55441 0.23127 0.15168 0.0647 0.30326 0.12928 0.45474 0.19377 0.070701 0.0293 0.1413 0.0584 0.2118 0.0875 0.025017 1e-4 0.049934 1e-4 0.074752 0 0.00633-0.0103 0.012559-0.0207 0.018688-0.0313 9.98e-5 -0.027 9.98e-5 -0.0541 0-0.0813-0.095419-0.27284-0.19093-0.54578-0.28655-0.81882-0.024817-0.0603-0.049735-0.12074-0.074752-0.18127-0.051812-0.0457-0.10372-0.0916-0.15573-0.13751-0.076731-0.0395-0.15356-0.0791-0.23049-0.11876-0.15356-0.0624-0.30721-0.12491-0.46097-0.18752-0.14733-0.0499-0.29476-0.0999-0.44228-0.15001z"/>
<path d="m-15.115-131.84c-0.08711 8e-3 -0.17432 0.0168-0.26163 0.025-0.09334 0.048-0.18678 0.0959-0.28032 0.14376-0.09334 0.0709-0.18678 0.14178-0.28032 0.21252-0.08711 0.0793-0.17432 0.15844-0.26163 0.23752-0.02482 0.0605-0.04973 0.12094-0.07475 0.18127 0.03332 0.0418 0.06655 0.0834 0.09967 0.12501 0.08939 0.023 0.17868 0.0459 0.26786 0.0687 0.13507 4e-3 0.27004 8e-3 0.40491 0.0125 0.08316 2e-3 0.16622 4e-3 0.24917 6e-3 0.04163-2e-3 0.08316-4e-3 0.12459-6e-3 0.05616-0.0103 0.11223-0.0207 0.16819-0.0312 0.02917-0.0186 0.05824-0.0374 0.08721-0.0563 0.01463-0.0186 0.02917-0.0374 0.04361-0.0563 1e-4 -0.0207 1e-4 -0.0416 0-0.0625 0.03333-0.0541 0.06655-0.10825 0.09967-0.16252 0.05824-0.0541 0.11638-0.10824 0.17442-0.16251 0.02917-0.0457 0.05824-0.0916 0.08721-0.13752-0.0041-0.052-0.0082-0.10407-0.01246-0.15626-0.04974-0.0416-0.09957-0.0832-0.14951-0.12501-0.0622-0.0207-0.12449-0.0416-0.18688-0.0625-0.0622-4e-3 -0.12449-8e-3 -0.18688-0.0125-0.03727 6e-3 -0.07465 0.0126-0.11213 0.0188z"/>
</g>
<g transform="translate(168.03 -31.716)" stroke-width=".26458">
<text x="-129.27827" y="273.52362" fill="#000000" font-family="sans-serif" font-size="10.583px" style="line-height:1.25" xml:space="preserve"><tspan x="-129.27827" y="273.52362" stroke-width=".26458"/></text>
<g transform="matrix(.38544 -.0057724 .0057087 .38974 -102.51 18.717)" fill="#fff" stroke="#fff" aria-label="FINNISH BASEBALL &amp; SOFTBALL FEDERATION">
<path d="m-114.69 202.5-1.2404-1.2595-0.70251 0.69186 1.0658 1.0822-0.29438 0.28993-1.0658-1.0822-1.1993 1.1811-0.32616-0.33118 2.4906-2.4528 1.5666 1.5907z"/>
<path d="m-115.46 206-1.0088-0.94226 0.24358-0.26077 0.33454 0.31248 1.899-2.033-0.33454-0.31248 0.24357-0.26077 1.0088 0.94226-0.24357 0.26077-0.33455-0.31248-1.899 2.033 0.33455 0.31248z"/>
<path d="m-112.7 208.38-0.43903-0.37157 0.75498-3.4576-2.0201 2.3869-0.33152-0.28057 2.2582-2.6682 0.55014 0.4656-0.69016 3.1557 1.8442-2.179 0.33151 0.28057z"/>
<path d="m-109.68 210.67-0.46134-0.34348 0.53802-3.498-1.8674 2.5082-0.34836-0.25937 2.0875-2.8038 0.57809 0.43041-0.49214 3.1926 1.7048-2.2897 0.34836 0.25937z"/>
<path d="m-107.73 211.99-1.1468-0.76828 0.1986-0.29646 0.38033 0.25479 1.5483-2.3112-0.38033-0.25479 0.1986-0.29646 1.1468 0.76828-0.19861 0.29646-0.38032-0.25479-1.5483 2.3112 0.38033 0.25479z"/>
<path d="m-104.22 212.98q-0.10551 0.17487-0.29101 0.29601-0.18349 0.12234-0.40178 0.1524-0.23842 0.0316-0.49716-0.0258-0.25673-0.0562-0.55824-0.2381-0.32362-0.19526-0.54654-0.41201-0.22091-0.21554-0.41669-0.49543l0.30076-0.4985 0.0281 0.017q0.11313 0.32599 0.34877 0.60799 0.23564 0.28201 0.49696 0.43967 0.36985 0.22315 0.65856 0.20816 0.29072-0.0138 0.43019-0.24494 0.12006-0.199 0.0786-0.3529-0.0395-0.15269-0.20695-0.32501-0.1265-0.13116-0.28762-0.26402-0.15911-0.13164-0.33185-0.29069-0.34706-0.32456-0.41753-0.644-0.0673-0.32024 0.13042-0.64788 0.22679-0.37589 0.68871-0.42347 0.46312-0.0496 0.95157 0.24511 0.31558 0.19041 0.54252 0.40958 0.22694 0.21918 0.37659 0.43011l-0.28379 0.47036-0.0281-0.017q-0.0835-0.24781-0.30593-0.51086-0.21918-0.26385-0.51064-0.4397-0.31961-0.19283-0.59463-0.1778-0.27301 0.0162-0.39914 0.22529-0.11278 0.18693-0.0806 0.35168 0.0322 0.16475 0.24147 0.36777 0.11167 0.10576 0.3246 0.28907 0.21294 0.18331 0.35229 0.32497 0.28032 0.28976 0.34123 0.57053 0.0609 0.28077-0.13314 0.60239z"/>
<path d="m-101.55 215.54-0.41183-0.21554 0.79356-1.5163-1.5454-0.8088-0.79356 1.5163-0.41183-0.21554 1.6209-3.0971 0.41183 0.21554-0.63572 1.2147 1.5454 0.8088 0.63572-1.2147 0.41183 0.21553z"/>
<path d="m-95.968 216.81q-0.09907 0.24101-0.26614 0.38808-0.16706 0.14708-0.37032 0.20313-0.2413 0.0683-0.48559 0.039-0.24212-0.0285-0.57868-0.16681l-1.1464-0.47128 1.329-3.2331 0.95755 0.39362q0.35392 0.14549 0.51909 0.24384 0.16516 0.0984 0.29192 0.24691 0.13967 0.16656 0.15931 0.34723 0.02054 0.17851-0.06337 0.38261-0.09461 0.23016-0.2788 0.34481-0.1833 0.11248-0.41888 0.12985l-0.0071 0.0174q0.3002 0.20209 0.39806 0.50122 0.09875 0.29695-0.03959 0.63351zm-0.12414-1.7542q0.0482-0.11725 0.04214-0.21366-0.0061-0.0964-0.07238-0.18205-0.07795-0.10057-0.21807-0.1734-0.13923-0.075-0.35419-0.16337l-0.51243-0.21064-0.3838 0.93366 0.55585 0.2285q0.20193 0.083 0.32939 0.11255 0.12835 0.0274 0.25718 4e-3 0.12883-0.0232 0.21203-0.10828 0.08627-0.0864 0.14428-0.2275zm-0.3303 1.5877q0.08033-0.19542 0.06901-0.3346t-0.13246-0.28289q-0.08191-0.0971-0.22548-0.17391-0.14051-0.0781-0.3533-0.16553l-0.67528-0.27759-0.49448 1.2029 0.56888 0.23385q0.28227 0.11604 0.47409 0.16189 0.19271 0.0437 0.33992 0.0128 0.1564-0.0347 0.25749-0.12006 0.10108-0.0854 0.17159-0.25689z"/>
<path d="m-92.973 219-0.46824-0.1616-0.0062-1.0328-1.4291-0.49323-0.64184 0.80914-0.44605-0.15394 2.3432-2.8892 0.58586 0.2022zm-0.47957-1.6184-0.01935-1.8221-1.1413 1.4216z"/>
<path d="m-89.587 218.92q-0.05545 0.19657-0.20226 0.3625-0.14455 0.16656-0.34709 0.25334-0.22154 0.0936-0.48625 0.10677-0.26244 0.0138-0.60136-0.0818-0.36377-0.10261-0.63612-0.25261-0.27009-0.14936-0.53299-0.36743l0.15805-0.56034 0.03163 9e-3q0.19541 0.2844 0.4973 0.49395 0.30189 0.20956 0.59562 0.29241 0.41574 0.11726 0.69018 0.0264 0.2767-0.0903 0.34999-0.3501 0.06309-0.22368-0.01767-0.3611-0.0785-0.13679-0.28561-0.25863-0.15671-0.093-0.34726-0.17844-0.18829-0.0848-0.39696-0.19247-0.4206-0.22108-0.57314-0.51047-0.14964-0.291-0.04576-0.65929 0.11918-0.42252 0.55201-0.5907 0.43347-0.17043 0.98251-0.0156 0.35473 0.10006 0.6316 0.25133t0.47703 0.31506l-0.14913 0.52871-0.03163-9e-3q-0.14617-0.21685-0.43028-0.41163-0.28121-0.1964-0.60883-0.28881-0.35925-0.10133-0.62048-0.014-0.25897 0.0879-0.32525 0.32293-0.05927 0.21012 0.01541 0.36046 0.07467 0.15035 0.33022 0.29072 0.13568 0.0724 0.38955 0.19282 0.25387 0.12039 0.42576 0.2201 0.34703 0.2052 0.4801 0.45983 0.13307 0.25462 0.0311 0.61613z"/>
<path d="m-86.699 220.61-2.2477-0.50173 0.76155-3.4116 2.2477 0.50173-0.09002 0.40325-1.794-0.40046-0.20867 0.93481 1.794 0.40047-0.09001 0.40325-1.794-0.40046-0.28283 1.267 1.794 0.40046z"/>
<path d="m-83.01 220.15q-0.04268 0.25706-0.17263 0.43777-0.12995 0.1807-0.31552 0.28078-0.21991 0.12055-0.46458 0.14656-0.24236 0.0264-0.60132-0.0332l-1.2228-0.20301 0.5725-3.4484 1.0213 0.16956q0.37749 0.0627 0.56047 0.12161 0.18297 0.0589 0.33974 0.17539 0.17337 0.13111 0.23291 0.30282 0.05993 0.16939 0.02378 0.38708-0.04075 0.24549-0.19465 0.39842-0.15351 0.15061-0.37924 0.22023l-0.0031 0.0185q0.33778 0.12985 0.50005 0.39953 0.16265 0.26735 0.10305 0.62632zm-0.5132-1.682q0.02076-0.12506-0.0067-0.21767-0.02746-0.0926-0.11125-0.16125-0.09847-0.0806-0.25132-0.12026-0.15247-0.042-0.38175-0.08l-0.54655-0.0907-0.16533 0.99584 0.59287 0.0984q0.21538 0.0358 0.34621 0.0361 0.13122-2e-3 0.2516-0.0534t0.18246-0.15295q0.06477-0.10347 0.08977-0.25401zm0.03305 1.6213q0.0346-0.20843-0.0075-0.34156-0.04215-0.13312-0.19236-0.24611-0.10155-0.0764-0.25866-0.11909-0.1544-0.0447-0.38136-0.0824l-0.72025-0.11958-0.21301 1.283 0.60677 0.10074q0.30107 0.05 0.49829 0.0518 0.1976-5.1e-4 0.33419-0.0635 0.14469-0.0688 0.22412-0.17459 0.07944-0.10579 0.10981-0.28875z"/>
<path d="m-79.602 221.62-0.49247-0.0532-0.23604-1.0055-1.5031-0.16251-0.44549 0.93177-0.46913-0.0507 1.6408-3.3386 0.61618 0.0666zm-0.82799-1.4709-0.42471-1.772-0.79597 1.64z"/>
<path d="m-76.674 221.78-2.208-0.12421 0.19634-3.4901 0.46409 0.0261-0.17313 3.0775 1.7439 0.0981z"/>
<path d="m-73.807 221.81-2.2113-0.0218 0.0345-3.4954 0.4648 5e-3 -0.03042 3.0822 1.7465 0.0172z"/>
<path d="m-70.089 218.84q-0.01626-0.22242-0.15896-0.3391-0.14053-0.11919-0.34657-0.10413-0.2154 0.0157-0.34059 0.17084-0.12536 0.15275-0.11012 0.36113 0.01284 0.1756 0.11408 0.30473 0.10358 0.12895 0.42382 0.29149 0.22346-0.0987 0.32906-0.26415 0.10777-0.16794 0.08929-0.42081zm0.60416 2.0178-1.1989-1.0093q-0.07001 0.0404-0.13832 0.10427-0.06848 0.0615-0.13387 0.16514-0.05888 0.0961-0.09161 0.22796-0.03273 0.13185-0.02092 0.29341 0.02499 0.34183 0.23941 0.53801 0.21659 0.19366 0.58418 0.16679 0.21775-0.0159 0.42311-0.13686 0.20753-0.12345 0.33695-0.34946zm0.60308-1.4423 0.01643 0.22477q0.01643 0.22477-0.02156 0.51001-0.038 0.28525-0.15982 0.55072l0.94802 0.79692-0.57597 0.0421-0.57451-0.48527q-0.24495 0.35216-0.51616 0.50615-0.27138 0.15166-0.56873 0.1734-0.487 0.0356-0.83082-0.22409-0.34165-0.26219-0.37537-0.72344-0.01575-0.2154 0.03366-0.37673 0.04941-0.16132 0.12297-0.28203 0.0739-0.11604 0.18864-0.22093 0.11456-0.10724 0.23335-0.18889-0.26987-0.14975-0.39709-0.31229-0.12488-0.1627-0.14388-0.42259-0.01147-0.15687 0.03914-0.3018 0.05278-0.14745 0.16831-0.27359 0.10885-0.12094 0.29102-0.20487 0.18452-0.0841 0.41163-0.10071 0.40505-0.0296 0.67064 0.15811 0.26542 0.18539 0.28835 0.49913 0.0075 0.10302-0.01098 0.23619-0.01868 0.13083-0.07905 0.23881-0.06654 0.1202-0.19697 0.23566-0.13044 0.11546-0.34505 0.20648l0.9306 0.78407q0.02593-0.0961 0.03411-0.20964 0.0082-0.11358 0.0016-0.2355-0.0049-0.13146-0.01905-0.29284-0.01181-0.16156-0.02003-0.27394z"/>
<path d="m-63.385 219.8q0.03256 0.20162-0.03064 0.41396-0.06089 0.21197-0.20799 0.37603-0.16145 0.17826-0.39596 0.30175-0.23219 0.1231-0.57982 0.17924-0.37313 0.0603-0.68333 0.039-0.30788-0.0216-0.6382-0.10858l-0.09282-0.57476 0.03245-5e-3q0.29707 0.17556 0.65916 0.23836t0.66337 0.0142q0.42643-0.0689 0.637-0.26696 0.21288-0.19846 0.16984-0.46498-0.03705-0.22944-0.16821-0.32003-0.12884-0.091-0.36801-0.11416-0.1813-0.0183-0.39012-0.0155-0.20649 2e-3 -0.4411-7e-3 -0.4746-0.0232-0.73489-0.22138-0.25835-0.20084-0.31935-0.5786-0.06999-0.43339 0.25165-0.76831 0.32126-0.33725 0.88443-0.4282 0.36386-0.0588 0.67869-0.0383t0.56537 0.0847l0.08758 0.54231-0.03245 5e-3q-0.22394-0.13505-0.56368-0.19196-0.33779-0.0596-0.67384-5e-3 -0.36849 0.0595-0.5686 0.24878-0.19778 0.18889-0.15886 0.42991 0.03481 0.21554 0.16589 0.32041 0.13108 0.10486 0.42199 0.12447 0.15356 8e-3 0.43452 0.0107 0.28096 2e-3 0.47886 0.0202 0.40119 0.0398 0.62917 0.21467 0.22799 0.17482 0.28787 0.54564z"/>
<path d="m-60.434 217.02q0.25957 0.18268 0.44359 0.49043 0.18631 0.30724 0.28025 0.72886t0.05391 0.78169q-0.03825 0.35727-0.19266 0.62498-0.15924 0.2784-0.42192 0.4596-0.26039 0.18068-0.6293 0.26288-0.35975 0.0802-0.68189 0.0269-0.31985-0.0538-0.57662-0.2347t-0.44257-0.48584q-0.18351-0.30546-0.27796-0.72937-0.09292-0.41704-0.05645-0.77151 0.03596-0.35676 0.19418-0.63975 0.15161-0.26948 0.42294-0.45501 0.27363-0.18604 0.6265-0.26466 0.36663-0.0817 0.6847-0.0251 0.31985 0.0538 0.57331 0.23063zm0.25182 1.3245q-0.14806-0.66451-0.5261-0.95789-0.37855-0.29567-0.89412-0.18079-0.52015 0.1159-0.73737 0.54431-0.21543 0.42562-0.06737 1.0901 0.14959 0.67139 0.53171 0.96145 0.3816 0.28778 0.8903 0.17444 0.50869-0.11335 0.72973-0.5354 0.22282-0.42485 0.07323-1.0962z"/>
<path d="m-57.121 216.13-1.7015 0.47924 0.2673 0.94907 1.462-0.41178 0.11201 0.39771-1.462 0.41177 0.45632 1.6202-0.44742 0.12601-0.94765-3.3647 2.149-0.60525z"/>
<path d="m-54.146 215.14-1.1843 0.39661 0.97886 2.9228-0.44076 0.14761-0.97886-2.9228-1.1843 0.39661-0.13121-0.39179 2.8093-0.94083z"/>
<path d="m-50.49 215.87q0.0955 0.24245 0.07689 0.46425t-0.12638 0.40302q-0.1267 0.21643-0.32322 0.36448-0.19434 0.1472-0.5329 0.28055l-1.1533 0.45426-1.281-3.2524 0.96326-0.37941q0.35604-0.14024 0.54329-0.18372 0.18725-0.0435 0.38158-0.0241 0.2161 0.0234 0.35543 0.14008 0.13846 0.11451 0.21933 0.31983 0.0912 0.23154 0.03777 0.44182-0.05429 0.20809-0.21216 0.38381l0.0069 0.0175q0.3565-0.0622 0.63428 0.0857 0.27693 0.14577 0.41028 0.48433zm-1.3047-1.1792q-0.04646-0.11796-0.11761-0.18329-0.07115-0.0653-0.17831-0.0812-0.12589-0.0185-0.2774 0.026-0.15237 0.0424-0.36861 0.12753l-0.51549 0.20304 0.36995 0.93924 0.55917-0.22025q0.20314-0.08 0.31553-0.14699 0.11153-0.0692 0.18838-0.17512 0.07685-0.10597 0.07792-0.22498 0.0024-0.12205-0.05353-0.26402zm0.86157 1.3738q-0.07743-0.19658-0.182-0.28912-0.10457-0.0925-0.29149-0.11227-0.12635-0.0133-0.28309 0.0308-0.15541 0.041-0.36947 0.12535l-0.67931 0.26756 0.47663 1.2101 0.57228-0.22541q0.28396-0.11184 0.45407-0.21165 0.16925-0.10199 0.25404-0.22622 0.08877-0.13336 0.10254-0.26495 0.01377-0.13158-0.05419-0.30414z"/>
<path d="m-46.81 215.38-0.45034 0.2063-0.71737-0.74299-1.3745 0.62967 0.09415 1.0285-0.429 0.19653-0.29906-3.7079 0.56346-0.25812zm-1.4641-0.83988-1.2718-1.305 0.15554 1.8163z"/>
<path d="m-44.207 214.03-1.9627 1.019-1.6106-3.1024 0.41254-0.21417 1.4202 2.7357 1.5502-0.80477z"/>
<path d="m-41.721 212.6-1.9157 1.1049-1.7464-3.028 0.40266-0.23223 1.54 2.6701 1.513-0.87262z"/>
<path d="m-39.465 207.43-1.4624 0.99316 0.55395 0.81567 1.2565-0.85335 0.23213 0.3418-1.2565 0.85335 0.94567 1.3925-0.38453 0.26115-1.9639-2.8918 1.8469-1.2543z"/>
<path d="m-35.307 208.18-1.8424 1.3818-2.0974-2.7964 1.8424-1.3818 0.24791 0.33054-1.4705 1.1029 0.5747 0.76626 1.4705-1.1029 0.24791 0.33054-1.4705 1.1029 0.77894 1.0386 1.4705-1.1029z"/>
<path d="m-33.433 204.37q0.30592 0.3654 0.39438 0.79654 0.09025 0.42962-0.03721 0.81495-0.08866 0.26712-0.27327 0.50741-0.18281 0.23878-0.55182 0.54772l-0.67681 0.56663-2.244-2.6802 0.66961-0.56061q0.39241-0.32853 0.67104-0.46383 0.27892-0.1386 0.52201-0.17373 0.41677-0.0581 0.80788 0.0983 0.39111 0.15631 0.71814 0.54692zm-0.37713 0.30655q-0.26373-0.31501-0.55437-0.43908-0.29064-0.12408-0.61243-0.0659-0.23375 0.0426-0.44059 0.15761-0.20834 0.11319-0.45675 0.32116l-0.33481 0.28031 1.7316 2.0682 0.33481-0.28031q0.2574-0.2155 0.41656-0.41305 0.16096-0.19905 0.23526-0.43577 0.09281-0.29509 0.01699-0.58678-0.07401-0.29319-0.33623-0.6064z"/>
<path d="m-29.931 203.5-1.6853 1.5696-2.3824-2.558 1.6853-1.5696 0.2816 0.30236-1.3451 1.2528 0.6528 0.70091 1.3451-1.2528 0.2816 0.30235-1.3451 1.2528 0.88481 0.95 1.3451-1.2528z"/>
<path d="m-27.252 200.78-0.42059 0.43257-1.8114-0.13062-0.45659 0.46959 0.99642 0.96883-0.32403 0.33327-2.5062-2.4368 0.68244-0.70187q0.22093-0.22722 0.39852-0.34925 0.1759-0.12366 0.36947-0.1712 0.2184-0.0529 0.42333-9.7e-4 0.20488 0.0486 0.40518 0.24334 0.27099 0.26348 0.32189 0.5782 0.04922 0.31308-0.09059 0.6421zm-2.5587-0.9718q-0.10772-0.10474-0.22784-0.14621-0.12016-0.0448-0.26249-0.0129-0.11918 0.0249-0.23425 0.10622-0.11675 0.0797-0.24768 0.21432l-0.38131 0.39217 0.94593 0.91974 0.32731-0.33663q0.15383-0.15822 0.24146-0.30223 0.08594-0.14564 0.09039-0.30176 3e-3 -0.14447-0.05357-0.26819-0.05657-0.12704-0.19795-0.26451z"/>
<path d="m-25.007 198.23-0.32736 0.37175-0.95769-0.38664-0.99916 1.1346 0.50465 0.9011-0.31185 0.35413-1.7825-3.2651 0.40959-0.46513zm-1.6792-0.17117-1.6929-0.6743 0.88142 1.5958z"/>
<path d="m-25.584 194.01-0.78064 0.97489 2.4061 1.9267-0.29054 0.36283-2.4061-1.9266-0.78064 0.97489-0.32252-0.25826 1.8518-2.3126z"/>
<path d="m-22.059 194.41-0.81939 1.1109-0.28717-0.21182 0.27174-0.36841-2.2388-1.6513-0.27174 0.3684-0.28717-0.21181 0.81939-1.1109 0.28717 0.21181-0.27174 0.36841 2.2388 1.6513 0.27174-0.36841z"/>
<path d="m-22.603 189.73q0.31391-0.047 0.65949 0.0486 0.34688 0.0937 0.70589 0.3339 0.35901 0.24021 0.5786 0.52837 0.21894 0.2849 0.29202 0.58519 0.07696 0.31136 0.01197 0.62378-0.06368 0.31047-0.27386 0.6246-0.20496 0.30633-0.47483 0.49014-0.26856 0.18186-0.57922 0.22822-0.31066 0.0464-0.65559-0.046-0.34363-0.0943-0.70459-0.33585-0.35511-0.2376-0.5734-0.51925-0.22025-0.28295-0.30111-0.59692-0.07633-0.29964-0.0081-0.62117 0.06956-0.32349 0.27061-0.62396 0.20888-0.31218 0.47809-0.49079 0.26856-0.18185 0.57401-0.22887zm1.0965 0.78447q-0.56583-0.37859-1.0419-0.32991-0.47799 0.0474-0.77173 0.48639-0.29635 0.4429-0.15778 0.90282 0.13792 0.45666 0.70375 0.83525 0.57168 0.38251 1.0484 0.32862 0.47475-0.0552 0.76457-0.48835t0.15842-0.8911q-0.13205-0.46121-0.70373-0.84372z"/>
<path d="m-17.946 187.99-0.29183 0.49563-3.5355-0.1584 2.6946 1.5866-0.22036 0.37425-3.0122-1.7736 0.36568-0.62105 3.227 0.14565-2.4599-1.4484 0.22036-0.37425z"/>
</g>
</g>
</svg>
