<svg width="284" height="287" viewBox="0 0 284 287" fill="none" xmlns="http://www.w3.org/2000/svg">
<g id="dearlucy">
<path id="Vector" d="M1.65163 285.421C0.0898379 284.182 0.461438 282.444 0.461438 282.444V143.138C0.461438 5.01907 0.476405 3.81717 2.22134 2.05969C3.96631 0.299337 5.15448 0.284332 142.434 0.284332C275.451 0.284332 280.946 0.348247 282.345 1.90771C283.687 3.4038 283.801 14.4992 283.801 143.443V283.358C283.801 283.358 283.852 284.81 283.203 285.016C282.555 285.223 281.38 285.227 281.38 285.227C277.454 285.691 265.424 286.122 142.494 286.122H5.09703C5.09703 286.122 2.99793 286.489 1.65163 285.421ZM123.645 207.733C126.325 206.348 128.45 204.3 130.245 201.373L132.893 197.055L133.44 151.195H126.406L126.129 172.721C125.823 196.57 125.51 197.988 119.793 201.425C115.987 203.714 108.318 203.654 104.287 201.304C98.5573 197.965 98.137 195.982 98.1355 172.277L98.1341 151.194H91.0948V173.415C91.0948 197.168 91.4737 199.679 95.7564 204.306C101.704 210.732 114.746 212.334 123.645 207.733ZM181.771 209.785C186.628 208.424 188.306 206.878 187.151 204.829C184.871 200.788 184.867 200.786 181.474 202.216C177.338 203.96 169.376 203.948 165.203 202.191C157.375 198.897 151.821 190.062 151.84 180.931C151.87 165.196 167.049 154.159 180.943 159.767C184.55 161.223 184.61 161.216 186.234 159.102C188.65 155.956 187.945 154.542 183.043 152.696C177.009 150.423 167.029 150.886 161.322 153.703C139.255 164.594 138.925 196.933 160.769 207.946C165.28 210.22 167.203 210.669 172.411 210.665C175.843 210.663 180.055 210.266 181.771 209.785ZM79.6555 206.231V202.68H45.3646L44.8977 151.638L37.418 151.092V179.845C37.418 195.66 37.682 208.865 38.0047 209.19C38.3273 209.516 47.8307 209.782 59.1231 209.782H79.655L79.6555 206.231ZM228.376 200.239L228.386 190.696L247.668 151.094L240.4 151.638L232.853 166.951C228.702 175.372 225.069 182.263 224.778 182.263C224.488 182.263 220.92 175.276 216.849 166.736L209.447 151.209L206.147 151.204C204.332 151.2 202.847 151.6 202.847 152.092C202.847 152.585 207.203 161.769 212.527 172.502L222.206 192.016V209.785H228.365L228.375 200.242L228.376 200.239ZM62.814 131.316C71.3175 128.175 78.6075 120.244 80.5675 112.002C82.1179 105.482 81.2895 94.737 78.8435 89.6395C75.9592 83.6286 69.9862 77.9782 64.2138 75.7993C60.2536 74.3045 57.3161 73.9638 48.3847 73.9638H37.4184V103.11C37.4184 119.141 37.7154 132.567 38.0784 132.948C39.2045 134.128 58.6788 132.843 62.814 131.316ZM45.3382 103.611V80.8831L52.6682 81.1962C58.9868 81.4659 60.5924 81.8798 64.3042 84.1957C66.972 85.8601 69.6235 88.5358 71.2733 91.2276C73.6958 95.1802 73.9364 96.2611 73.9364 103.188C73.9364 109.664 73.6075 111.394 71.7365 114.756C67.57 122.243 59.622 126.338 49.2548 126.338H45.3384L45.3382 103.611ZM132.014 129.889V126.782L99.4561 125.894V107.252L132.558 106.769L132.014 100.151L99.0162 99.6679V81.1047L132.014 80.6216L132.56 73.964H91.9754V133.473L132.012 132.996L132.014 129.889ZM152.224 126.572L154.893 120.148L178.752 120.128L183.935 133L187.673 133.272C190.304 133.465 191.408 133.202 191.404 132.385C191.401 131.746 187.018 120.838 181.665 108.144C176.312 95.4499 170.899 82.567 169.636 79.5154C168.373 76.464 167.113 73.9705 166.836 73.9743C166.559 73.9778 165.291 76.4746 164.02 79.5222C162.748 82.5699 157.304 95.538 151.921 108.34C146.538 121.143 142.133 132.051 142.133 132.581C142.133 133.165 143.595 133.438 145.844 133.272C149.554 132.999 149.555 132.999 152.223 126.576L152.224 126.572ZM158.853 111.4C158.853 110.357 165.881 94.0821 166.698 93.2329C167.071 92.8453 168.68 95.6418 170.273 99.4468C171.866 103.252 173.715 107.663 174.382 109.25L175.595 112.135H167.224C162.62 112.135 158.853 111.804 158.853 111.4ZM209.011 125.948V118.456L229.234 117.905L234.301 125.45C239.208 132.756 239.488 133.004 243.108 133.268C245.165 133.418 246.848 133.161 246.848 132.696C246.848 132.231 244.472 128.338 241.569 124.046C238.665 119.753 236.289 115.874 236.289 115.425C236.289 114.976 237.244 113.851 238.412 112.925C242.241 109.886 245.091 102.729 245.069 96.2036C245.044 89.3819 243.185 84.6095 238.909 80.4143C233.888 75.4869 229.622 74.4074 215.17 74.4074H202.411L202.178 102.806C202.051 118.425 202.139 131.707 202.371 132.322C202.605 132.936 204.194 133.439 205.903 133.439H209.011L209.011 125.948ZM209.441 110.212C209.178 109.52 209.073 102.779 209.207 95.2315L209.451 81.5095H218.69C229.463 81.5095 233.727 83.1174 236.428 88.1982C238.531 92.1538 238.57 100.002 236.507 104.083C233.693 109.652 231.361 110.642 220.037 111.079C211.859 111.395 209.828 111.228 209.441 110.212Z" fill="#2D1525"/>
</g>
</svg>
