<svg id="Layer_1" data-name="Layer 1" xmlns="http://www.w3.org/2000/svg" xmlns:xlink="http://www.w3.org/1999/xlink" width="50mm" height="50mm" viewBox="0 0 141.73 141.73"><defs><style>.cls-1{fill:none;}.cls-2{clip-path:url(#clip-path);}.cls-3{fill:#7cb040;}</style><clipPath id="clip-path"><rect class="cls-1" width="141.73" height="141.73"/></clipPath></defs><g class="cls-2"><path class="cls-3" d="M96.27,134.1a.07.07,0,0,0,.1,0l.54-.31a.06.06,0,0,0,0-.09l-.36-.63a.07.07,0,0,0-.1,0l-.54.3a.07.07,0,0,0,0,.1Zm-3.63,1.21a.42.42,0,0,1-.5-.07c-.1-.1-.13-.15-.72-1.38a6.38,6.38,0,0,1-.63-1.44.41.41,0,0,1,.26-.43.4.4,0,0,1,.49.07,22.83,22.83,0,0,1,1.36,2.82.42.42,0,0,1-.26.43M93,136a1.15,1.15,0,0,0,.72-1.21A6.22,6.22,0,0,0,93,133.1a6,6,0,0,0-.85-1.56,1.27,1.27,0,0,0-2.11,1,5.78,5.78,0,0,0,.68,1.64,6.44,6.44,0,0,0,.85,1.56A1.14,1.14,0,0,0,93,136m-5.88,1.55a1.07,1.07,0,0,0,1.32.32,1.1,1.1,0,0,0,.7-1.54s0-.07-.08-.06l-.59.11a.06.06,0,0,0,0,.09c.13.41.06.63-.21.73a.36.36,0,0,1-.46-.12,6.54,6.54,0,0,1-.6-1.45,7.51,7.51,0,0,1-.5-1.48.37.37,0,0,1,.27-.4c.27-.1.47,0,.64.41,0,0,.06.06.1,0l.51-.3s0-.06,0-.1a1.1,1.1,0,0,0-1.54-.69,1,1,0,0,0-.78,1.1,6.21,6.21,0,0,0,.53,1.71,6.77,6.77,0,0,0,.72,1.64m-8.17,2a1.12,1.12,0,0,0,1.3.54,1.14,1.14,0,0,0,1-1,6.72,6.72,0,0,0-.25-1.75l0-.21a.07.07,0,0,0-.09-.06l-1.09.21a.07.07,0,0,0-.06.09l.11.53a.08.08,0,0,0,.08.06l.38-.08a0,0,0,0,1,.05,0,4.33,4.33,0,0,1,.17,1.11.49.49,0,0,1-.87.17,6.18,6.18,0,0,1-.35-1.52,6.31,6.31,0,0,1-.25-1.54.42.42,0,0,1,.37-.36q.44-.09.6.48s.05,0,.09,0l.56-.22a.08.08,0,0,0,0-.09,1.14,1.14,0,0,0-1.44-.9,1.12,1.12,0,0,0-1,1,5.81,5.81,0,0,0,.25,1.76,5.66,5.66,0,0,0,.44,1.72m-5.43,1.15a.07.07,0,0,0,.07.07l.54-.05s.07,0,.07-.08l-.28-3.42h0l1.23,3.34a.1.1,0,0,0,.11.07l.72-.06s.07,0,.07-.08l-.39-4.8a.07.07,0,0,0-.08-.07l-.53.05s-.08,0-.07.07l.27,3.42h0L74,135.74a.09.09,0,0,0-.11-.06l-.77.06c-.05,0-.07,0-.07.08Zm-3.72-.07a.07.07,0,0,0,.07.07l.63,0a.07.07,0,0,0,.08-.07l.13-4.82a.07.07,0,0,0-.07-.07l-.64,0a.07.07,0,0,0-.07.07Zm-3.5-.24a.08.08,0,0,0,.08-.07l1.4-4.67s0-.07-.06-.08l-.6-.08s-.07,0-.09.06l-.8,3.16h0l-.1-3.27a.09.09,0,0,0-.07-.09l-.43,0a.07.07,0,0,0-.09.06l-1,3.14h0l.07-3.25a.07.07,0,0,0-.07-.08l-.63-.09s-.07,0-.07.07l.13,4.88A.08.08,0,0,0,64,140l.54.07s.07,0,.08-.06l.94-3.1h0l.08,3.22a.08.08,0,0,0,.06.09Zm-7.76-1.72a.07.07,0,0,0,0,.09l2,.53a.07.07,0,0,0,.09-.05l.15-.55a.07.07,0,0,0,0-.09l-1.25-.33a0,0,0,0,1,0-.05l.35-1.31a0,0,0,0,1,.06,0l1.07.28A.07.07,0,0,0,61,137l.14-.54a.07.07,0,0,0-.05-.09L60,136.11s0,0,0-.05l.33-1.27a.06.06,0,0,1,.06,0l1.24.33a.06.06,0,0,0,.09-.05l.14-.54a.07.07,0,0,0-.05-.09l-2-.52s-.07,0-.09.05Zm-3.07-4-.24-.1s0,0,0,0l.53-1.35s0,0,.05,0l.24.09c.41.16.52.4.3.94s-.45.65-.86.49m.38,3.07s.06,0,.06-.05L56,135.4a1.33,1.33,0,0,0,1-1,1.26,1.26,0,0,0-.78-1.89l-.93-.37a.07.07,0,0,0-.09,0l-1.77,4.49a.07.07,0,0,0,0,.09l.6.23s.07,0,.09,0l.7-1.78a0,0,0,0,1,.06,0l.23.09.11,0-.16,2.07a.07.07,0,0,0,.06.07Zm-6.07-3.66.66-1.26s0,0,.06,0l.24.13c.41.22.47.44.2,1s-.5.59-.91.37l-.23-.12s0,0,0-.06m1-1.87s0,0,0-.06l.6-1.13a0,0,0,0,1,.06,0l.23.13c.38.2.44.39.19.87s-.45.54-.83.33Zm-2.05,2.1a.07.07,0,0,0,0,.1l.87.46a1.23,1.23,0,0,0,2-.61c.31-.58.25-1,0-1.3h0c.39,0,.72-.14,1-.68a1.11,1.11,0,0,0-.53-1.73l-1-.51a.06.06,0,0,0-.09,0Z"/><path class="cls-3" d="M109.23,64.84V55h3.48c.87,0,1.05.21,1.05,1v7.84c0,.81-.18,1-1,1Zm-6.54,5.63h12.9c3.42,0,4.7-1.28,4.7-4.76V54.09c0-3.42-1.31-4.73-4.7-4.73h-12.9ZM89.37,59.14V54.7h3.28c.81,0,1.19.44,1.19,1.25v1.68c0,1.14-.38,1.51-1.89,1.51Zm1,4.8a1.27,1.27,0,0,1,1.28,1l1.92,5.58H101l-2-5.78A2.16,2.16,0,0,0,97.26,63a3.11,3.11,0,0,0,3.14-3.37V54.06c0-3.31-1.48-4.7-4.79-4.7h-13V70.47h6.88V63.94ZM70.87,55.05l1.77,8.65H69.1ZM67.71,70.47l.71-2.76h4.94L74,70.47H81L75.61,49.36h-9.5L60.8,70.47Zm-8-5.63h-6.3L60.8,49.36H45.09L44,54.93h6.76L43,70.47H58.53ZM35.16,70.47h6.62V49.36H35.16Zm-3.19,0,1.42-5.63H25.75V49.36H19V70.47Z"/></g><path class="cls-3" d="M87.51,12.41H97.94V43.63h14.41V12.41h10.42L120.37,1H89.92ZM69,12.52,72.52,30H65.37ZM62.56,43.63l1.06-4.82H74.33l1,4.82H89.27L78.49,1H59.34L48.62,43.63ZM50.09,12.41,47.74,1H19V43.63H32.22V28.51H47.45V18.44H32.28v-6Z"/><g class="cls-2"><path class="cls-3" d="M119.4,93.55a5.28,5.28,0,0,1-.65,2.07l-2.09-2.24h2.74v.17m-3.25.79L118,96.21a3.24,3.24,0,0,1-3.73,0Zm-.5-1-2.13,2.09a4.4,4.4,0,0,1-.62-1.92.91.91,0,0,1,0-.17ZM94.38,97.23h0l-5.52,5.52a.91.91,0,0,1-1.1,0l-7.93-7.93-7.93,7.93a.67.67,0,0,1-.55.19.68.68,0,0,1-.55-.19l-7.92-7.93L55,102.76a.66.66,0,0,1-.58.18.65.65,0,0,1-.49-.19l-5.52-5.52h0a.67.67,0,0,1,1-1h0l5.11,5.11,8-8h0a.75.75,0,0,1,1,0l.74.74,7.26,7.26,8-8h0a.73.73,0,0,1,.94,0h0l8,8,5.13-5.13h0a.67.67,0,0,1,.95,1m-32,6.07a.68.68,0,0,1,0-.92.67.67,0,0,1,.92,0h0l8,8,8-8h0a.67.67,0,0,1,.94.94h0l-8.41,8.4a.64.64,0,0,1-.55.19.65.65,0,0,1-.55-.19l-8.4-8.4Zm77.92-8.1c0-3.67-4.68-6.64-10.45-6.64h-.32c-.69,0-1.14,0-1.89,0H109.6l-10.7,0H96.65a.16.16,0,0,0,0-.07l-6.72-7.41s-2.74-3.47-5.67,0l-3.47,3L74,77.17s-2.67-3.39-5.39,0l-6.72,6.88-3.47-3s-3-3.37-5.66,0l-6.73,7.41a.22.22,0,0,0,0,.07H32.17v0H14.72c-9.25,0-13.3,2.47-13.3,5.35,0,7.66,18.21,10,29.05,11.86l6.38,1V125.1a5.2,5.2,0,0,0,5.2,5.2h1.3c2.88,0,4.88-2.33,5.21-5.2l1.17-7.69C53.4,124.9,62,130.16,72.06,130.16c10.58,0,19.56-5.83,22.87-14l1.35,8.9a5.33,5.33,0,0,0,5.21,5.2h1.3a5.2,5.2,0,0,0,5.2-5.2V113.41h0v-4.06a10.88,10.88,0,0,0,1.14.06,10.75,10.75,0,0,0,8.83-4.34c-7-.29-12.52-4.8-12.52-10.31a7.87,7.87,0,0,1,.13-1.38h1.09a7,7,0,0,0-.13,1.38c0,4.85,5.68,8.8,11.86,8.92h1A43.28,43.28,0,0,0,130,102.56c1.25-.38,2.33-.66,3.36-1,4-1.27,7-3.5,7-6.39"/></g></svg>