<svg version="1.1" viewBox="0 0 79.375 79.375" xmlns="http://www.w3.org/2000/svg">
 <path d="m41.437 49.333c-1.0517-0.43499-1.0354-0.26696-1.0354-10.688v-9.6301l0.47444-0.47443c0.58423-0.58424 1.6077-0.63184 2.2585-0.10504l0.4563 0.36939 0.05347 9.7614 0.05347 9.7614-0.44004 0.4927c-0.50184 0.56189-1.216 0.76313-1.8207 0.51304zm12.069-0.05852c-0.28722-0.13046-2.2642-2.1073-4.3932-4.3929l-3.871-4.1557 7.3e-4 -2.1262 7.31e-4 -2.1261 2.4507-2.6094c4.9826-5.3052 5.5148-5.7986 6.255-5.7986 1.2391 0 1.9873 1.0295 1.556 2.1409-0.09999 0.25766-1.8778 2.2471-3.9507 4.421l-3.7689 3.9525 3.8149 4.0688c2.0982 2.2379 3.9159 4.2588 4.0394 4.491 0.33676 0.63354 0.27292 1.1449-0.21048 1.6859-0.53498 0.59872-1.2341 0.76175-1.9236 0.44856zm9.6717-0.12489c-2.0773-0.66434-3.6403-2.0311-4.5491-3.978l-0.54134-1.1597-0.05472-7.5674-0.05472-7.5674 0.51566-0.40561c0.65481-0.51508 1.4296-0.51695 2.0804-0.0051l0.50928 0.4006v6.5482c0 3.929 0.08288 6.9346 0.2072 7.5143 0.31008 1.4458 1.1576 2.4844 2.5179 3.0856l1.1406 0.5041v1.5006c0 1.7235 0.02856 1.7053-1.7712 1.1298zm3.4762-1.1255 0.06209-1.5365 1.0511-0.43564c0.63001-0.26112 1.2849-0.71831 1.6347-1.1412 1.0752-1.2999 1.1524-1.9244 1.1524-9.3279v-6.7159l0.50928-0.4006c0.71324-0.56103 1.6301-0.52044 2.2114 0.09791l0.46858 0.49852 0.05851 6.1215c0.06531 6.8354-0.08391 8.6015-0.86107 10.189-0.97179 1.9846-3.3978 3.7816-5.4949 4.0702l-0.85411 0.11751zm-61.536 0.82864c-0.26094-0.26094-0.47443-0.68871-0.47443-0.95062 0-1.4238 0.60593-1.6675 4.1461-1.6675h2.8122v-15.076h-2.9699c-2.7119 0-3.0141-0.03477-3.4792-0.4006-0.63814-0.50196-0.69825-1.5366-0.12271-2.1121 0.36553-0.36554 0.64429-0.38658 5.1221-0.38658h4.7355v17.976h2.6772c2.7946 0 3.7741 0.18689 4.0919 0.78077 0.32385 0.60512 0.20934 1.3428-0.28522 1.8374l-0.47443 0.47443h-15.305zm19.138 0.03507c-0.6813-0.58603-0.73279-1.5168-0.11796-2.1324 0.40273-0.40319 0.62636-0.42892 4.5261-0.5208 3.3941-0.07996 4.2077-0.15424 4.712-0.43021 0.88654-0.48516 1.4202-1.4589 1.4187-2.5885-0.0022-1.5544-1.0031-2.6459-2.6534-2.8934l-0.82443-0.12363v-3.1019l1.1009 0.12939c2.4845 0.292 4.6958 1.9403 5.3844 4.0135 0.73944 2.2262 0.0022 4.9824-1.7283 6.4639-1.5327 1.3119-2.4139 1.5085-7.0986 1.5832l-4.1778 0.0667zm2.7742-9.1057c-1.609-0.66179-2.5595-1.5018-3.2398-2.8632-0.50561-1.0118-0.59139-1.3988-0.59139-2.668 0-2.4904 1.0671-4.1573 3.4792-5.4346 0.83296-0.44112 1.0608-0.46322 5.3824-0.52196 4.9119-0.06677 5.0603-0.0377 5.3317 1.0437 0.15568 0.62027-0.35929 1.5948-0.90834 1.719-0.23726 0.05369-2.1342 0.12015-4.2153 0.14776-3.6603 0.04858-3.8066 0.06567-4.4756 0.52458-0.38038 0.26091-0.84036 0.72621-1.0222 1.034-0.46181 0.78178-0.43688 2.3518 0.04774 3.0062 0.5756 0.77724 1.5826 1.3807 2.3042 1.3807h0.64792v3.0926l-0.82147-0.0044c-0.45181-0.0022-1.3154-0.20773-1.919-0.45601zm-10.596-10.074v-1.4496h2.3194c2.0617 0 2.3624 0.04296 2.706 0.38658 0.5373 0.5373 0.49785 1.4526-0.08786 2.0383-0.44893 0.44892-0.59439 0.47443-2.706 0.47443h-2.2316z" stroke-width=".19329" fill="white"/>
</svg>
