<svg width="1479" height="1479" viewBox="0 0 1479 1479" fill="none" xmlns="http://www.w3.org/2000/svg">
<circle cx="739.83" cy="739.705" r="738.882" fill="#FF8A00"/>
<path d="M1443 740.705C1443 1127.4 1129.52 1440.87 742.83 1440.87C356.139 1440.87 42.6636 1127.4 42.6636 740.705C42.6636 354.014 356.139 40.5389 742.83 40.5389C1129.52 40.5389 1443 354.014 1443 740.705Z" fill="white"/>
<path d="M59.3652 895.797C28.7813 749.576 43.4522 667.992 58.3233 591.851L317.608 590.843C326.581 576.434 345.977 543.63 351.775 527.685C359.023 507.754 359.023 480.316 358.764 465.303C358.557 453.293 365.753 446.839 369.377 445.114C400.438 423.112 411.051 406.805 423.734 392.568C436.417 378.332 449.101 344.423 452.207 338.47C455.313 332.516 457.642 330.187 467.479 327.34C477.315 324.492 520.024 306.632 534.001 298.349C547.979 290.066 577.487 263.405 581.888 256.416C585.408 250.825 594.744 250.118 598.972 250.463C614.761 251.067 652.5 251.136 677.142 246.58C707.945 240.886 723.734 230.273 733.312 225.355C740.973 221.421 749.274 223.716 752.466 225.355C764.804 231.912 795.331 245.752 818.73 248.651C847.98 252.275 869.981 249.169 882.406 248.651C892.345 248.237 898.972 252.447 901.043 254.604C912.345 265.648 938.989 290.221 955.141 300.161C975.331 312.586 1011.05 325.269 1019.85 327.34C1026.89 328.996 1031.07 334.415 1032.28 336.917C1037.88 350.032 1052.83 381.024 1067.74 400.075C1086.37 423.888 1107.86 435.278 1117.44 444.078C1125.1 451.119 1126.84 463.06 1126.75 468.151C1127.01 478.936 1128.83 505.735 1134 526.65C1139.18 547.564 1162.33 579.31 1173.26 592.569H1427.41C1453.17 715.708 1442.4 815.424 1425.68 895.866H929.664V705.119C926.067 641.392 883.411 514.555 741.567 517.022C599.724 519.489 559.124 643.448 556.554 705.119V895.797H59.3652Z" fill="#003FCC"/>
<circle cx="741.847" cy="656.641" r="388.172" stroke="white" stroke-width="7"/>
<circle cx="741.847" cy="656.641" r="376.251" stroke="white" stroke-width="7"/>
<circle cx="741.847" cy="656.641" r="365.143" stroke="white" stroke-width="7"/>
<circle cx="741.846" cy="656.641" r="353.512" stroke="white" stroke-width="7"/>
<circle cx="741.846" cy="656.641" r="342.086" stroke="white" stroke-width="7"/>
<circle cx="741.846" cy="656.641" r="330.455" stroke="white" stroke-width="7"/>
<path d="M272.165 656.641H554.794V895.866H272.165V656.641Z" fill="#003FCC"/>
<path d="M941.675 656.641H1224.05V895.866H941.675V656.641Z" fill="#003FCC"/>
<path d="M1075.81 656.639H1068.83V896.155H1075.81V656.639Z" fill="white"/>
<path d="M1133.52 656.036H1126.54V896.155H1133.52V656.036Z" fill="white"/>
<path d="M1121.6 656.639H1114.62V896.155H1121.6V656.639Z" fill="white"/>
<path d="M1110.49 656.639H1103.51V896.155H1110.49V656.639Z" fill="white"/>
<path d="M1098.83 656.34H1091.85V896.155H1098.83V656.34Z" fill="white"/>
<path d="M1087.43 656.639H1080.45V896.155H1087.43V656.639Z" fill="white"/>
<path d="M357.162 656.637H350.182V895.866H357.162V656.637Z" fill="white"/>
<path d="M414.872 656.033H407.891V895.866H414.872V656.033Z" fill="white"/>
<path d="M403.292 656.637H396.312V895.866H403.292V656.637Z" fill="white"/>
<path d="M391.713 656.637H384.732V895.866H391.713V656.637Z" fill="white"/>
<path d="M380.184 656.337H373.203V895.866H380.184V656.337Z" fill="white"/>
<path d="M369.076 656.637H362.096V895.866H369.076V656.637Z" fill="white"/>
<g filter="url(#filter0_d_5_77)">
<circle cx="742.83" cy="700.43" r="185.781" fill="url(#paint0_radial_5_77)" shape-rendering="crispEdges"/>
</g>
<g filter="url(#filter1_d_5_77)">
<path d="M577.161 753.45L574.436 767.412C574.081 769.236 571.638 769.613 570.748 767.982C570.541 767.602 570.463 767.165 570.528 766.736L572.292 755.049C572.361 754.596 572.271 754.133 572.039 753.737L563.726 739.582C563.448 739.11 563.388 738.54 563.562 738.02C564.057 736.533 566.038 736.253 566.927 737.543L576.845 751.932C577.15 752.375 577.264 752.923 577.161 753.45Z" fill="#DE111A"/>
<path d="M586.726 746.081L575.167 729.505C574.575 728.656 573.433 728.399 572.534 728.913L570.783 729.913C569.788 730.482 569.473 731.77 570.095 732.734L580.634 749.08C580.88 749.462 580.989 749.917 580.942 750.37L579.027 768.883C578.905 770.063 579.83 771.089 581.016 771.089H582.214C583.218 771.089 584.067 770.345 584.197 769.35L587.068 747.485C587.133 746.991 587.011 746.49 586.726 746.081Z" fill="#DE111A"/>
<path d="M598.346 741.133L588.267 724.261C587.773 723.435 586.761 723.077 585.858 723.41L584.877 723.771C583.743 724.189 583.236 725.508 583.798 726.578L592.725 743.582C592.952 744.015 593.013 744.517 592.896 744.992L588.496 762.801C588.192 764.03 589.093 765.228 590.358 765.279L592.353 765.358C593.337 765.398 594.204 764.715 594.395 763.748L598.591 742.547C598.687 742.061 598.6 741.558 598.346 741.133Z" fill="#DE111A"/>
<path d="M616.521 736.885L603.215 718.035C602.743 717.366 601.911 717.053 601.114 717.244L599.09 717.73C597.731 718.056 597.117 719.641 597.902 720.798L609.683 738.158C610.073 738.734 610.137 739.471 609.85 740.105L601.246 759.157C600.648 760.481 601.616 761.98 603.069 761.98H604.14C604.903 761.98 605.6 761.546 605.936 760.86L616.683 738.918C617.004 738.262 616.942 737.482 616.521 736.885Z" fill="#DE111A"/>
<path d="M632.269 735.968L621.985 715.177C621.625 714.449 620.86 714.011 620.05 714.069L617.384 714.259C615.989 714.359 615.124 715.824 615.711 717.094L624.667 736.464C624.929 737.029 624.912 737.685 624.621 738.236L614.651 757.137C613.989 758.392 614.809 759.919 616.221 760.06L619.292 760.367C620.111 760.449 620.898 760.02 621.272 759.286L632.257 737.764C632.545 737.201 632.549 736.535 632.269 735.968Z" fill="#DE111A"/>
<path d="M647.789 740.197L642.856 717.77C642.679 716.965 642.026 716.351 641.211 716.224L637.766 715.686C636.326 715.461 635.136 716.803 635.533 718.206L641.31 738.632C641.478 739.228 641.361 739.869 640.992 740.366L628.751 756.892C627.861 758.093 628.555 759.81 630.029 760.056L632.947 760.542C633.708 760.669 634.473 760.347 634.915 759.716L647.475 741.773C647.795 741.315 647.91 740.743 647.789 740.197Z" fill="#DE111A"/>
<path d="M664.876 745.81L662.422 720.822C662.327 719.853 661.546 719.092 660.574 719.023L657.726 718.82C656.491 718.731 655.473 719.775 655.593 721.008L657.742 743.148C657.795 743.697 657.62 744.244 657.257 744.659L644.081 759.716C643.2 760.723 643.537 762.294 644.753 762.851L646.921 763.845C647.7 764.202 648.62 764.023 649.208 763.4L664.34 747.379C664.737 746.958 664.933 746.386 664.876 745.81Z" fill="#DE111A"/>
<path d="M681.737 754.926L682.646 728.326C682.673 727.533 682.229 726.799 681.515 726.455L678.883 725.188C677.562 724.552 676.029 725.506 676.015 726.972L675.806 750.476C675.8 751.059 675.541 751.61 675.096 751.986L659.017 765.559C657.958 766.453 658.108 768.127 659.308 768.82L662.039 770.395C662.762 770.812 663.669 770.736 664.312 770.204L681.012 756.399C681.453 756.034 681.717 755.498 681.737 754.926Z" fill="#DE111A"/>
<path d="M698.379 734.325L696.856 733.495C695.551 732.783 693.953 733.693 693.9 735.179L693.067 758.501C693.044 759.14 692.717 759.73 692.186 760.088L673.725 772.533C672.512 773.351 672.559 775.153 673.814 775.906L676.221 777.35C676.867 777.738 677.677 777.729 678.315 777.328L698.26 764.778C698.837 764.415 699.189 763.784 699.195 763.102L699.422 736.098C699.428 735.36 699.027 734.679 698.379 734.325Z" fill="#DE111A"/>
<path d="M714.662 745.341L712.613 744.061C711.329 743.258 709.654 744.118 709.557 745.629L708.118 768.032C708.075 768.71 707.69 769.32 707.097 769.651L686.914 780.91C685.772 781.547 685.538 783.09 686.44 784.036L688.529 786.23C689.152 786.884 690.135 787.04 690.929 786.61L712.743 774.813C713.346 774.487 713.739 773.876 713.787 773.192L715.597 747.176C715.648 746.439 715.288 745.733 714.662 745.341Z" fill="#DE111A"/>
<path d="M730.736 760.05L728.675 758.526C727.467 757.633 725.742 758.342 725.51 759.826L722.484 779.195C722.385 779.825 721.992 780.371 721.425 780.664L700.967 791.215C699.893 791.769 699.552 793.143 700.242 794.135L701.898 796.514C702.462 797.325 703.533 797.603 704.42 797.168L727.518 785.841C728.12 785.546 728.534 784.968 728.62 784.303L731.531 761.916C731.624 761.196 731.32 760.482 730.736 760.05Z" fill="#DE111A"/>
<path d="M746.729 771.637L745.155 770.513C743.944 769.648 742.245 770.363 742.017 771.834L738.753 792.845C738.643 793.55 738.166 794.144 737.5 794.402L716.005 802.75C714.678 803.266 714.299 804.965 715.283 805.995L717.453 808.269C718.018 808.86 718.886 809.048 719.645 808.743L743.622 799.108C744.305 798.833 744.782 798.206 744.864 797.475L747.554 773.488C747.635 772.767 747.319 772.059 746.729 771.637Z" fill="#DE111A"/>
<path d="M761.171 810.955L764.731 787.815C764.846 787.069 764.531 786.322 763.917 785.884L762.182 784.645C761.022 783.817 759.394 784.432 759.071 785.82L754.334 806.211C754.179 806.876 753.696 807.417 753.051 807.644L731.874 815.118C730.51 815.6 730.092 817.326 731.086 818.378L732.312 819.675C732.831 820.226 733.617 820.436 734.342 820.217L759.77 812.566C760.509 812.344 761.054 811.717 761.171 810.955Z" fill="#DE111A"/>
<path d="M779.952 796.03L778.111 795.026C776.935 794.385 775.472 795.059 775.196 796.37L771.041 816.107C770.907 816.746 770.469 817.279 769.868 817.535L747.354 827.124C745.954 827.72 745.707 829.601 746.906 830.539L748.979 832.162C749.548 832.607 750.313 832.711 750.98 832.434L776.665 821.75C777.319 821.479 777.78 820.882 777.878 820.181L780.975 798.063C781.09 797.239 780.682 796.429 779.952 796.03Z" fill="#DE111A"/>
<path d="M795.55 805.131L793.983 803.938C792.766 803.01 791 803.738 790.79 805.254L787.972 825.583C787.874 826.292 787.405 826.893 786.743 827.162L765.309 835.852C763.611 836.54 763.655 838.959 765.376 839.585L767.881 840.495C768.35 840.666 768.867 840.655 769.328 840.464L793.096 830.637C793.784 830.353 794.257 829.71 794.324 828.97L796.33 806.903C796.392 806.218 796.098 805.549 795.55 805.131Z" fill="#DE111A"/>
<path d="M811.545 813.113L809.435 812.058C808.164 811.422 806.653 812.279 806.546 813.697L805.136 832.434C805.081 833.166 804.63 833.808 803.96 834.109L782.791 843.605C781.213 844.313 781.217 846.555 782.798 847.257L786.652 848.97C787.228 849.227 787.891 849.196 788.441 848.888L811.19 836.149C811.807 835.803 812.196 835.156 812.212 834.449L812.65 814.947C812.668 814.173 812.237 813.459 811.545 813.113Z" fill="#DE111A"/>
<path d="M826.927 816.137L824.883 815.796C823.654 815.591 822.539 816.547 822.554 817.792L822.759 835.43C822.767 836.139 822.399 836.8 821.791 837.166L801.041 849.656C799.594 850.528 799.812 852.69 801.404 853.255L804.129 854.222C804.708 854.427 805.35 854.355 805.869 854.025L829.608 838.96C830.247 838.555 830.602 837.823 830.526 837.07L828.588 817.908C828.498 817.011 827.817 816.285 826.927 816.137Z" fill="#DE111A"/>
<path d="M839.459 818.026L838.919 817.996C837.684 817.928 836.683 818.985 836.82 820.214L838.651 836.69C838.728 837.383 838.438 838.067 837.886 838.493L821.746 850.965C820.237 852.131 821.062 854.547 822.969 854.547H825.471C825.953 854.547 826.42 854.373 826.784 854.056L844.29 838.823C844.837 838.347 845.083 837.613 844.934 836.904L841.305 819.612C841.12 818.727 840.362 818.076 839.459 818.026Z" fill="#DE111A"/>
<path d="M853.291 820.069L851.727 819.797C850.418 819.569 849.255 820.658 849.396 821.979L850.978 836.81C851.045 837.437 850.812 838.059 850.35 838.488L837.583 850.343C836.251 851.58 837.126 853.809 838.944 853.809H840.664C841.189 853.809 841.692 853.602 842.066 853.234L856.058 839.469C856.493 839.041 856.709 838.438 856.644 837.831L854.937 821.827C854.842 820.939 854.171 820.222 853.291 820.069Z" fill="#DE111A"/>
<path d="M865.235 821.804H864.623C863.531 821.804 862.641 822.68 862.623 823.772L862.422 836.238C862.414 836.769 862.194 837.275 861.812 837.644L851.164 847.925C850.062 848.989 850.815 850.854 852.348 850.854C852.8 850.854 853.233 850.675 853.553 850.355L866.047 837.861C866.399 837.509 866.607 837.039 866.631 836.542L867.233 823.899C867.287 822.759 866.377 821.804 865.235 821.804Z" fill="#DE111A"/>
</g>
<g filter="url(#filter2_d_5_77)">
<path d="M603.498 594.296L603.843 583.318C603.896 581.612 601.909 580.64 600.577 581.708C600.15 582.05 599.879 582.554 599.832 583.099L599.085 591.775C599.036 592.345 598.745 592.866 598.287 593.207L587.536 601.222C587.023 601.604 586.757 602.232 586.839 602.866C587.005 604.145 588.442 604.822 589.534 604.134L602.565 595.926C603.127 595.571 603.477 594.961 603.498 594.296Z" fill="#DE111A"/>
<path d="M611.02 603.112L596.211 612.319C595.479 612.774 594.537 612.709 593.875 612.158L592.597 611.094C591.574 610.242 591.653 608.647 592.756 607.901L605.717 599.127C606.182 598.812 606.493 598.316 606.575 597.761L608.587 584.07C608.762 582.872 609.953 582.104 611.117 582.438L612.368 582.797C613.306 583.066 613.913 583.971 613.805 584.94L611.952 601.634C611.884 602.243 611.541 602.788 611.02 603.112Z" fill="#DE111A"/>
<path d="M621.339 610.157L607.996 619.934C607.338 620.416 606.452 620.45 605.759 620.019L605.046 619.576C603.887 618.856 603.774 617.212 604.823 616.34L616.357 606.748C616.831 606.354 617.097 605.764 617.078 605.148L616.656 591.493C616.615 590.164 617.858 589.165 619.147 589.492L621.114 589.991C622.021 590.221 622.648 591.05 622.622 591.986L622.157 608.6C622.139 609.218 621.838 609.792 621.339 610.157Z" fill="#DE111A"/>
<path d="M638.085 618.554L621.304 628.847C620.716 629.208 619.984 629.24 619.367 628.932L617.796 628.15C616.406 627.457 616.302 625.514 617.609 624.676L631.677 615.662C632.404 615.197 632.75 614.318 632.536 613.482L628.581 598.035C628.198 596.538 629.585 595.19 631.07 595.616L631.973 595.875C632.631 596.064 633.147 596.576 633.34 597.232L638.957 616.284C639.213 617.151 638.855 618.081 638.085 618.554Z" fill="#DE111A"/>
<path d="M653.415 623.722L639.192 636.225C638.651 636.701 637.896 636.848 637.216 636.612L634.792 635.77C633.37 635.276 632.983 633.447 634.083 632.42L646.076 621.217C646.647 620.684 646.855 619.867 646.609 619.125L641.37 603.356C640.885 601.895 642.162 600.457 643.67 600.766L646.533 601.354C647.244 601.499 647.82 602.019 648.039 602.711L654.002 621.618C654.24 622.374 654.01 623.199 653.415 623.722Z" fill="#DE111A"/>
<path d="M669.689 624.934L660.326 639.961C659.901 640.644 659.107 641.006 658.312 640.878L654.851 640.322C653.376 640.085 652.672 638.373 653.553 637.167L662.94 624.315C663.391 623.698 663.45 622.877 663.093 622.201L655.365 607.577C654.598 606.124 655.811 604.417 657.435 604.665L659.992 605.056C660.638 605.154 661.195 605.562 661.484 606.148L669.786 622.992C670.092 623.612 670.055 624.347 669.689 624.934Z" fill="#DE111A"/>
<path d="M687.734 625.505L680.192 643.051C679.811 643.937 678.851 644.425 677.91 644.211L675.002 643.547C673.785 643.27 673.117 641.958 673.608 640.81L680.163 625.499C680.424 624.89 680.366 624.192 680.009 623.634L671.043 609.622C670.221 608.337 671.084 606.64 672.607 606.548L674.47 606.435C675.167 606.393 675.835 606.717 676.233 607.291L687.539 623.574C687.933 624.141 688.007 624.871 687.734 625.505Z" fill="#DE111A"/>
<path d="M706.331 623.316L701.631 642.953C701.428 643.798 700.704 644.415 699.838 644.481L696.908 644.705C695.528 644.811 694.461 643.517 694.827 642.182L699.532 625.026C699.709 624.382 699.552 623.692 699.114 623.187L687.099 609.337C686.06 608.139 686.761 606.266 688.332 606.046L690.704 605.713C691.368 605.62 692.035 605.866 692.48 606.369L705.884 621.526C706.316 622.014 706.483 622.682 706.331 623.316Z" fill="#DE111A"/>
<path d="M718.09 643.28L716.315 643.492C714.934 643.657 713.811 642.398 714.132 641.045L718.219 623.818C718.384 623.125 718.166 622.396 717.649 621.905L703.149 608.162C701.943 607.019 702.576 604.989 704.218 604.735L706.095 604.443C706.687 604.351 707.29 604.53 707.737 604.93L724.617 620.065C725.181 620.571 725.411 621.353 725.21 622.084L719.781 641.825C719.566 642.609 718.897 643.184 718.09 643.28Z" fill="#DE111A"/>
<path d="M736.404 639.546L734.038 639.952C732.656 640.189 731.465 638.966 731.739 637.591L735.068 620.837C735.212 620.113 734.944 619.367 734.372 618.899L717.748 605.306C716.584 604.353 716.848 602.504 718.233 601.916L720.039 601.15C720.716 600.863 721.495 600.97 722.069 601.429L741.036 616.588C741.616 617.052 741.891 617.798 741.751 618.527L738.031 637.951C737.874 638.77 737.226 639.405 736.404 639.546Z" fill="#DE111A"/>
<path d="M755.316 632.971L752.896 633.56C751.573 633.882 750.322 632.816 750.43 631.458L751.628 616.376C751.682 615.702 751.392 615.048 750.857 614.635L733.66 601.35C732.557 600.498 732.642 598.807 733.825 598.07L735.318 597.139C736.017 596.703 736.911 596.741 737.572 597.233L757.954 612.431C758.524 612.856 758.825 613.552 758.745 614.258L756.831 631.252C756.737 632.086 756.132 632.772 755.316 632.971Z" fill="#DE111A"/>
<path d="M773.533 628.698L771.668 629.123C770.351 629.423 769.121 628.359 769.23 627.012L770.55 610.635C770.609 609.899 770.258 609.19 769.636 608.791L751.097 596.904C749.743 596.035 749.916 594.005 751.397 593.378L753.168 592.629C753.782 592.369 754.485 592.433 755.043 592.798L776.644 606.941C777.289 607.363 777.633 608.119 777.53 608.883L775.07 627.017C774.958 627.843 774.346 628.512 773.533 628.698Z" fill="#DE111A"/>
<path d="M796.472 603.247L795.01 620.977C794.938 621.846 794.311 622.569 793.461 622.762L791.427 623.226C790.186 623.509 789 622.576 788.983 621.303L788.762 604.855C788.753 604.165 788.389 603.529 787.799 603.171L769.357 591.993C767.965 591.149 768.109 589.086 769.605 588.444L770.197 588.19C770.766 587.946 771.416 587.979 771.958 588.28L795.45 601.334C796.137 601.716 796.537 602.464 796.472 603.247Z" fill="#DE111A"/>
<path d="M811.427 619.563L809.332 619.813C808.132 619.956 807.079 619.011 807.095 617.802L807.294 602.083C807.303 601.411 806.974 600.78 806.418 600.403L787.284 587.41C785.869 586.449 786.235 584.27 787.887 583.824L789.317 583.438C789.874 583.288 790.47 583.385 790.95 583.707L813.982 599.113C814.595 599.524 814.933 600.239 814.86 600.974L813.18 617.776C813.087 618.709 812.358 619.452 811.427 619.563Z" fill="#DE111A"/>
<path d="M828.707 617.102L826.824 617.587C825.476 617.934 824.195 616.832 824.336 615.447L825.934 599.729C826.01 598.988 825.667 598.266 825.044 597.856L807.285 586.165C805.622 585.07 806.406 582.483 808.396 582.495L809.662 582.502C810.052 582.505 810.434 582.621 810.759 582.838L832.012 597.002C832.665 597.437 833.003 598.214 832.877 598.989L830.183 615.487C830.055 616.271 829.476 616.904 828.707 617.102Z" fill="#DE111A"/>
<path d="M846.212 615.514L843.805 615.728C842.488 615.845 841.421 614.675 841.661 613.374L844.228 599.418C844.37 598.65 844.05 597.869 843.411 597.42L825.933 585.146C824.376 584.053 825.081 581.608 826.98 581.512L829.956 581.36C830.453 581.335 830.941 581.496 831.326 581.811L850.907 597.868C851.508 598.361 851.769 599.157 851.577 599.91L847.973 614.017C847.763 614.839 847.057 615.439 846.212 615.514Z" fill="#DE111A"/>
<path d="M862.146 617.54L859.94 617.204C858.736 617.02 857.974 615.812 858.328 614.646L862.115 602.151C862.345 601.396 862.108 600.576 861.511 600.059L845.056 585.807C843.647 584.587 844.526 582.273 846.389 582.296L848.244 582.318C848.731 582.324 849.198 582.508 849.56 582.834L869.528 600.859C870.166 601.434 870.365 602.352 870.023 603.14L864.282 616.36C863.921 617.193 863.044 617.677 862.146 617.54Z" fill="#DE111A"/>
<path d="M874.94 619.659L874.304 619.506C873.086 619.212 872.435 617.884 872.949 616.742L877.912 605.697C878.244 604.96 878.099 604.096 877.546 603.508L865.809 591.016C864.418 589.535 865.865 587.164 867.818 587.724L869.187 588.116C869.568 588.226 869.908 588.446 870.164 588.749L883.867 604.996C884.42 605.653 884.493 606.589 884.048 607.323L877.119 618.752C876.668 619.496 875.787 619.863 874.94 619.659Z" fill="#DE111A"/>
<path d="M888.864 621.983L887.202 621.739C885.894 621.546 885.129 620.16 885.664 618.95L890.047 609.048C890.348 608.368 890.247 607.578 889.786 606.996L880.969 595.872C879.761 594.348 881.218 592.171 883.087 592.707L883.941 592.952C884.36 593.072 884.729 593.326 884.99 593.676L895.604 607.854C896.037 608.433 896.124 609.201 895.832 609.862L890.984 620.814C890.62 621.635 889.753 622.114 888.864 621.983Z" fill="#DE111A"/>
<path d="M900.962 624.033L900.301 623.843C899.255 623.543 898.64 622.462 898.918 621.409L901.237 612.634C901.395 612.037 901.268 611.401 900.894 610.91L893.207 600.832C892.333 599.687 893.424 598.089 894.809 598.487C895.127 598.578 895.405 598.771 895.601 599.038L905.108 611.948C905.451 612.412 905.575 613.002 905.451 613.565L903.466 622.542C903.218 623.668 902.071 624.35 900.962 624.033Z" fill="#DE111A"/>
</g>
<path d="M740.483 1441.72C320.676 1441.72 114.109 1117.61 65.6829 922.744H1419.31C1408.72 982.921 1267.27 1441.72 740.483 1441.72Z" fill="#003FCC"/>
<path d="M621.09 1276.52H583.89V999.717C583.89 995.984 583.224 992.25 581.89 988.517C580.557 984.784 577.49 982.917 572.69 982.917C567.624 982.917 564.29 984.65 562.69 988.117C561.357 991.584 560.69 995.45 560.69 999.717V1276.52H523.49V999.717C523.49 995.717 522.69 991.984 521.09 988.517C519.757 984.784 516.69 982.917 511.89 982.917C507.09 982.917 503.89 984.784 502.29 988.517C500.957 991.984 500.29 995.717 500.29 999.717V1276.52H463.09V999.717C463.09 992.25 463.89 984.917 465.49 977.717C467.357 970.517 470.157 964.117 473.89 958.517C477.89 952.917 482.824 948.384 488.69 944.917C494.824 941.45 502.157 939.717 510.69 939.717C516.557 939.717 522.024 940.917 527.09 943.317C532.424 945.717 537.357 948.784 541.89 952.517C546.424 948.784 551.224 945.717 556.29 943.317C561.624 940.917 567.357 939.717 573.49 939.717C582.024 939.717 589.224 941.45 595.09 944.917C601.224 948.384 606.157 952.917 609.89 958.517C613.89 964.117 616.69 970.517 618.29 977.717C620.157 984.917 621.09 992.25 621.09 999.717V1276.52ZM776.109 1276.52H728.509C718.376 1276.52 710.376 1274.65 704.509 1270.92C698.643 1266.92 694.243 1261.72 691.309 1255.32C688.376 1248.92 686.509 1241.85 685.709 1234.12C684.909 1226.12 684.509 1218.12 684.509 1210.12H660.909L639.709 1169.32H684.509V948.517H776.109V991.317H721.709V1169.32H776.109V1210.12H721.709V1225.32C721.709 1227.45 722.243 1229.32 723.309 1230.92C724.376 1232.52 726.109 1233.32 728.509 1233.32H776.109V1276.52ZM908.95 991.317H876.95V1276.52H839.75V991.317H807.75V948.517H908.95V991.317ZM1017.59 948.517C1003.99 963.984 993.457 980.65 985.99 998.517C978.524 1016.12 974.79 1035.32 974.79 1056.12C974.79 1068.12 976.39 1079.85 979.59 1091.32C983.057 1102.52 986.657 1113.72 990.39 1124.92C994.39 1136.12 997.99 1147.45 1001.19 1158.92C1004.66 1170.12 1006.39 1181.72 1006.39 1193.72C1006.39 1208.12 1004.79 1222.25 1001.59 1236.12C998.39 1249.98 993.724 1263.45 987.59 1276.52H940.39C948.657 1264.52 955.457 1251.85 960.79 1238.52C966.39 1224.92 969.19 1210.78 969.19 1196.12C969.19 1183.85 967.457 1172.92 963.99 1163.32C960.79 1153.45 957.057 1142.92 952.79 1131.72C948.257 1119.72 944.524 1107.45 941.59 1094.92C938.924 1082.12 937.59 1069.18 937.59 1056.12C937.59 1036.92 939.857 1018.38 944.39 1000.52C949.19 982.384 956.657 965.05 966.79 948.517H1017.59Z" fill="#FF8A00"/>
<path d="M556.347 1375.79C555.342 1378.97 553.588 1381.16 551.084 1382.37C548.581 1383.57 545.77 1383.68 542.65 1382.69L530.993 1379L535.463 1364.88L530.443 1363.29L528.681 1353.18L538.21 1356.2L554.1 1306C557.275 1308.19 559.893 1310.76 561.951 1313.72C564.066 1316.7 565.62 1319.88 566.612 1323.25C567.604 1326.62 568.053 1330.13 567.958 1333.79C567.92 1337.46 567.335 1341.08 566.204 1344.65C564.031 1351.52 560.044 1357.21 554.242 1361.74C555.556 1362.72 556.475 1363.76 556.999 1364.86C557.599 1365.92 557.898 1367.05 557.898 1368.23C557.971 1369.38 557.839 1370.59 557.501 1371.85C557.163 1373.12 556.778 1374.43 556.347 1375.79ZM557.963 1342.89C560.046 1336.31 559.807 1329.87 557.246 1323.56L546.527 1357.43C549.512 1355.69 551.908 1353.64 553.716 1351.28C555.524 1348.92 556.94 1346.12 557.963 1342.89V1342.89ZM548.618 1372.41L548.942 1371.39C549.372 1370.03 548.936 1369.14 547.631 1368.73L543.377 1367.38L541.815 1372.32L546.069 1373.66C547.374 1374.08 548.223 1373.66 548.618 1372.41Z" fill="white"/>
<path d="M590.91 1395.89L582.864 1393.85L586.499 1379.49L580.529 1377.98L576.894 1392.34L568.848 1390.31L572.483 1375.94L567.378 1374.65L565.026 1364.67L574.716 1367.12L583.541 1332.25C583.994 1330.46 584.612 1328.75 585.396 1327.11C586.253 1325.42 587.289 1324 588.504 1322.83C589.792 1321.62 591.238 1320.76 592.841 1320.24C594.502 1319.74 596.371 1319.76 598.447 1320.28C600.523 1320.81 602.137 1321.71 603.288 1322.98C604.453 1324.2 605.286 1325.63 605.786 1327.3C606.301 1328.9 606.505 1330.64 606.399 1332.51C606.307 1334.33 606.042 1336.11 605.604 1337.84L590.91 1395.89ZM588.732 1370.67L597.557 1335.8C597.689 1335.28 597.799 1334.73 597.887 1334.13C597.99 1333.49 597.999 1332.84 597.914 1332.21C597.83 1331.57 597.629 1331.03 597.313 1330.58C597.069 1330.09 596.601 1329.76 595.909 1329.58C595.217 1329.41 594.618 1329.47 594.112 1329.77C593.678 1330.03 593.273 1330.42 592.896 1330.94C592.577 1331.47 592.309 1332.05 592.09 1332.67C591.887 1333.23 591.719 1333.77 591.588 1334.29L582.763 1369.16L588.732 1370.67Z" fill="white"/>
<path d="M633.618 1329.98C629.963 1332.76 626.926 1335.94 624.507 1339.52C622.1 1343.05 620.44 1347.08 619.525 1351.63C618.998 1354.26 618.832 1356.89 619.028 1359.54C619.294 1362.14 619.589 1364.75 619.913 1367.37C620.296 1369.99 620.585 1372.63 620.781 1375.28C621.047 1377.88 620.916 1380.5 620.389 1383.12C619.756 1386.27 618.784 1389.29 617.475 1392.18C616.165 1395.08 614.553 1397.82 612.636 1400.41L602.312 1398.33C604.648 1396.07 606.692 1393.6 608.445 1390.92C610.267 1388.19 611.501 1385.22 612.146 1382.01C612.685 1379.33 612.787 1376.86 612.45 1374.61C612.184 1372.31 611.831 1369.84 611.39 1367.2C610.926 1364.38 610.648 1361.53 610.557 1358.66C610.537 1355.74 610.814 1352.85 611.388 1350C612.232 1345.8 613.543 1341.84 615.32 1338.13C617.167 1334.38 619.562 1330.91 622.506 1327.74L633.618 1329.98Z" fill="white"/>
<path d="M655.288 1407.54L644.787 1405.95C642.552 1405.61 640.849 1404.93 639.68 1403.91C638.519 1402.83 637.722 1401.54 637.289 1400.03C636.856 1398.52 636.68 1396.89 636.762 1395.16C636.853 1393.37 637.032 1391.59 637.299 1389.83L632.093 1389.04L628.78 1379.33L638.663 1380.83L646.04 1332.12L666.247 1335.18L664.817 1344.62L652.817 1342.8L646.869 1382.07L658.87 1383.89L657.506 1392.89L645.506 1391.07L644.998 1394.42C644.926 1394.89 644.982 1395.32 645.164 1395.71C645.345 1396.1 645.701 1396.34 646.23 1396.42L656.731 1398.01L655.288 1407.54Z" fill="white"/>
<path d="M696.21 1400.96C695.9 1404.28 694.649 1406.79 692.458 1408.5C690.266 1410.21 687.542 1410.91 684.283 1410.6L672.11 1409.46L673.489 1394.71L668.246 1394.22L664.384 1384.72L674.336 1385.65L679.239 1333.22C682.807 1334.69 685.91 1336.66 688.548 1339.11C691.246 1341.58 693.437 1344.35 695.12 1347.44C696.804 1350.52 697.985 1353.86 698.666 1357.45C699.405 1361.04 699.6 1364.71 699.251 1368.44C698.581 1375.61 695.89 1382.02 691.178 1387.67C692.669 1388.35 693.787 1389.17 694.533 1390.14C695.344 1391.05 695.875 1392.09 696.125 1393.24C696.44 1394.35 696.566 1395.56 696.504 1396.87C696.441 1398.17 696.343 1399.54 696.21 1400.96V1400.96ZM690.824 1368.46C691.466 1361.59 689.869 1355.34 686.032 1349.72L682.725 1385.09C685.274 1382.76 687.182 1380.25 688.449 1377.56C689.716 1374.87 690.508 1371.83 690.824 1368.46ZM687.94 1399.29L688.04 1398.23C688.173 1396.8 687.558 1396.03 686.196 1395.9L681.753 1395.49L681.271 1400.64L685.714 1401.06C687.076 1401.18 687.819 1400.6 687.94 1399.29V1399.29Z" fill="white"/>
<path d="M734.244 1413.29L725.949 1413L726.461 1398.19L720.307 1397.98L719.795 1412.79L711.5 1412.5L712.012 1397.69L706.749 1397.51L702.337 1388.25L712.327 1388.6L713.57 1352.65C713.634 1350.81 713.875 1349 714.294 1347.23C714.774 1345.4 715.485 1343.79 716.426 1342.39C717.429 1340.94 718.659 1339.79 720.117 1338.95C721.635 1338.11 723.464 1337.72 725.604 1337.8C727.745 1337.87 729.512 1338.41 730.906 1339.41C732.303 1340.35 733.421 1341.58 734.262 1343.1C735.104 1344.55 735.672 1346.21 735.965 1348.07C736.26 1349.86 736.377 1351.65 736.315 1353.44L734.244 1413.29ZM726.776 1389.1L728.02 1353.15C728.038 1352.61 728.028 1352.05 727.989 1351.45C727.953 1350.8 727.825 1350.17 727.608 1349.56C727.391 1348.96 727.08 1348.47 726.676 1348.1C726.334 1347.67 725.806 1347.45 725.093 1347.42C724.379 1347.4 723.807 1347.59 723.376 1347.99C723.007 1348.33 722.693 1348.8 722.435 1349.38C722.236 1349.97 722.095 1350.59 722.013 1351.25C721.933 1351.84 721.884 1352.4 721.866 1352.94L720.622 1388.88L726.776 1389.1Z" fill="white"/>
<path d="M765.537 1412.95L757.506 1413.08C755.186 1413.12 753.276 1412.79 751.777 1412.1C750.337 1411.35 749.16 1410.36 748.247 1409.13C747.393 1407.83 746.802 1406.32 746.477 1404.6C746.15 1402.82 745.97 1400.92 745.936 1398.9L744.968 1340.09L753.267 1339.96L754.235 1398.76C754.242 1399.18 754.254 1399.89 754.271 1400.9C754.347 1401.91 754.506 1402.57 754.749 1402.86C754.992 1403.15 755.62 1403.35 756.633 1403.45C757.646 1403.5 758.717 1403.51 759.847 1403.49C761.037 1403.47 762.167 1403.45 763.238 1403.43C764.308 1403.36 765.021 1403.31 765.378 1403.31L765.537 1412.95Z" fill="white"/>
<path d="M794.995 1411.36L786.978 1411.84C784.661 1411.98 782.739 1411.74 781.212 1411.12C779.74 1410.43 778.521 1409.49 777.556 1408.3C776.646 1407.04 775.991 1405.56 775.59 1403.85C775.186 1402.09 774.924 1400.2 774.803 1398.18L771.279 1339.47L779.564 1338.97L783.088 1397.68C783.113 1398.1 783.155 1398.81 783.216 1399.82C783.336 1400.83 783.524 1401.47 783.779 1401.75C784.035 1402.04 784.671 1402.21 785.687 1402.26C786.701 1402.26 787.771 1402.23 788.9 1402.16C790.088 1402.09 791.216 1402.02 792.285 1401.96C793.351 1401.83 794.062 1401.76 794.418 1401.74L794.995 1411.36Z" fill="white"/>
<path d="M852.951 1404.49L841.115 1406.2C836.328 1401.36 832.47 1396.09 829.541 1390.38C826.662 1384.6 824.734 1378.33 823.755 1371.56C822.794 1364.9 822.91 1358.42 824.103 1352.12C825.355 1345.81 827.537 1339.69 830.65 1333.77L842.486 1332.06C840.387 1335.01 838.532 1337.98 836.921 1340.98C835.37 1343.97 834.133 1347.06 833.213 1350.26C832.343 1353.39 831.788 1356.63 831.55 1359.97C831.311 1363.31 831.455 1366.81 831.983 1370.46C832.536 1374.29 833.37 1377.77 834.486 1380.92C835.661 1384.05 837.108 1387 838.829 1389.76C840.601 1392.45 842.653 1395.01 844.988 1397.44C847.314 1399.8 849.969 1402.16 852.951 1404.49V1404.49Z" fill="white"/>
<path d="M882.393 1399L874.506 1400.51C872.227 1400.95 870.29 1400.96 868.695 1400.54C867.146 1400.05 865.816 1399.28 864.703 1398.22C863.638 1397.09 862.796 1395.71 862.178 1394.07C861.548 1392.37 861.042 1390.53 860.66 1388.55L849.544 1330.79L857.695 1329.22L868.81 1386.98C868.889 1387.39 869.024 1388.09 869.215 1389.08C869.465 1390.06 869.735 1390.68 870.025 1390.92C870.314 1391.17 870.967 1391.26 871.983 1391.18C872.988 1391.05 874.045 1390.88 875.155 1390.66C876.323 1390.44 877.434 1390.23 878.485 1390.02C879.526 1389.76 880.221 1389.6 880.572 1389.53L882.393 1399Z" fill="white"/>
<path d="M911.532 1378.8C911.966 1380.6 912.191 1382.41 912.206 1384.24C912.208 1386.02 911.943 1387.7 911.411 1389.3C910.866 1390.84 909.969 1392.19 908.719 1393.35C907.527 1394.5 905.891 1395.32 903.809 1395.83C901.727 1396.33 899.865 1396.35 898.224 1395.89C896.64 1395.42 895.253 1394.62 894.064 1393.5C892.86 1392.32 891.853 1390.95 891.042 1389.37C890.275 1387.72 889.674 1385.99 889.24 1384.2L875.082 1325.74L883.149 1323.79L897.307 1382.25C897.433 1382.77 897.595 1383.31 897.793 1383.88C897.991 1384.44 898.268 1384.95 898.626 1385.42C898.983 1385.88 899.377 1386.25 899.808 1386.51C900.283 1386.7 900.867 1386.71 901.561 1386.54C902.255 1386.38 902.769 1386.1 903.104 1385.71C903.425 1385.27 903.645 1384.78 903.764 1384.27C903.87 1383.69 903.881 1383.11 903.799 1382.51C903.703 1381.86 903.591 1381.28 903.465 1380.76L889.307 1322.29L897.374 1320.34L911.532 1378.8Z" fill="white"/>
<path d="M950.389 1369.91C951.35 1373.1 951.137 1375.9 949.749 1378.31C948.362 1380.72 946.101 1382.39 942.968 1383.34L931.261 1386.86L926.987 1372.68L921.945 1374.2L914.79 1366.85L924.361 1363.96L909.17 1313.54C913.028 1313.56 916.642 1314.21 920.012 1315.5C923.438 1316.76 926.512 1318.51 929.233 1320.74C931.954 1322.96 934.305 1325.61 936.286 1328.68C938.325 1331.73 939.884 1335.05 940.966 1338.64C943.043 1345.53 942.963 1352.48 940.726 1359.5C942.361 1359.56 943.707 1359.9 944.762 1360.52C945.856 1361.06 946.738 1361.82 947.406 1362.8C948.114 1363.7 948.685 1364.77 949.119 1366.01C949.554 1367.25 949.977 1368.55 950.389 1369.91V1369.91ZM933.165 1341.83C931.174 1335.22 927.344 1330.04 921.674 1326.28L931.922 1360.29C933.405 1357.17 934.228 1354.12 934.39 1351.15C934.552 1348.18 934.143 1345.08 933.165 1341.83V1341.83ZM942.099 1371.48L941.79 1370.45C941.378 1369.09 940.517 1368.6 939.207 1369L934.934 1370.28L936.427 1375.24L940.7 1373.95C942.01 1373.56 942.477 1372.73 942.099 1371.48V1371.48Z" fill="white"/>
<path d="M591.805 224.093L577.605 229.225L568.446 203.878L557.3 207.905L566.459 233.252L552.258 238.383L543.1 213.036L534.091 216.292L520.371 203.641L537.472 197.462L507.017 113.176L521.217 108.045L551.672 192.331L562.819 188.303L532.363 104.018L546.564 98.8865L591.805 224.093Z" fill="#003FCC"/>
<path d="M653.468 209.277L634.626 213.552C630.615 214.462 627.281 214.442 624.624 213.491C621.942 212.434 619.734 210.771 617.998 208.501C616.262 206.232 614.888 203.602 613.877 200.613C612.842 197.518 611.965 194.388 611.247 191.221L601.905 193.34L589.85 179.095L607.583 175.071L587.753 87.6735L624.011 79.4471L627.854 96.3883L606.322 101.274L622.307 171.731L643.84 166.845L647.504 182.995L625.972 187.88L627.337 193.897C627.528 194.741 627.907 195.432 628.473 195.97C629.039 196.507 629.797 196.668 630.747 196.453L649.588 192.178L653.468 209.277Z" fill="#003FCC"/>
<path d="M703.514 202.883L689.007 204.626C684.815 205.129 681.299 204.897 678.458 203.93C675.711 202.843 673.396 201.268 671.513 199.205C669.724 197.021 668.374 194.404 667.463 191.352C666.538 188.192 665.857 184.786 665.418 181.132L652.659 74.9044L667.65 73.1039L680.409 179.331C680.499 180.084 680.654 181.373 680.874 183.2C681.2 185.014 681.611 186.164 682.105 186.65C682.6 187.135 683.773 187.376 685.626 187.371C687.466 187.259 689.407 187.081 691.448 186.836C693.598 186.577 695.64 186.332 697.574 186.1C699.495 185.76 700.778 185.552 701.423 185.474L703.514 202.883Z" fill="#003FCC"/>
<path d="M742.53 68.048C737.222 74.506 733.174 81.4093 730.386 88.758C727.595 95.9985 726.34 103.838 726.621 112.275C726.784 117.143 727.591 121.881 729.044 126.49C730.602 130.986 732.214 135.481 733.88 139.974C735.654 144.463 737.267 149.012 738.72 153.62C740.278 158.117 741.138 162.799 741.3 167.667C741.495 173.508 741.036 179.263 739.926 184.932C738.815 190.6 737.104 196.126 734.793 201.51L715.645 202.147C718.837 197.168 721.424 191.938 723.407 186.457C725.495 180.864 726.44 175.093 726.242 169.143C726.076 164.167 725.225 159.755 723.689 155.908C722.258 151.949 720.601 147.726 718.719 143.24C716.718 138.434 715.037 133.508 713.678 128.464C712.423 123.307 711.708 118.079 711.531 112.778C711.272 104.989 711.941 97.4405 713.538 90.1315C715.24 82.7107 718.035 75.5784 721.922 68.7345L742.53 68.048Z" fill="#003FCC"/>
<path d="M775.516 202.017L760.427 201.449L765.431 68.4135L780.519 68.981L775.516 202.017Z" fill="#003FCC"/>
<path d="M832.496 207.687L817.507 205.872L824.532 147.849L816.451 125.447L806.869 204.584L791.88 202.77L808.507 65.4472L811.647 65.1733L828.533 114.808L833.509 73.7077L848.499 75.5226L832.496 207.687Z" fill="#003FCC"/>
<path d="M900.072 222.78L885.4 219.213L890.617 197.758C890.898 196.601 890.943 195.498 890.753 194.449C890.693 193.321 889.927 192.578 888.454 192.22L879.147 189.957L872.78 216.145L858.108 212.577L864.475 186.39L855.168 184.127L850.719 166.003L868.388 170.298L889.56 83.2161L904.231 86.7832L883.596 171.657C889.505 167.97 894.095 163.293 897.366 157.628C900.768 151.883 903.274 145.698 904.885 139.072L916.852 89.8517L931.524 93.4188L919.557 142.639C917.92 149.37 915.534 155.975 912.4 162.453C909.396 168.852 905.126 174.274 899.59 178.72C903.546 181.687 905.708 185.165 906.076 189.152C906.573 193.061 906.285 197.223 905.211 201.641L900.072 222.78Z" fill="#003FCC"/>
<path d="M929.167 233L914.896 228.069L958.372 102.238L972.643 107.169L929.167 233Z" fill="#003FCC"/>
<defs>
<filter id="filter0_d_5_77" x="527.049" y="486.649" width="431.562" height="431.562" filterUnits="userSpaceOnUse" color-interpolation-filters="sRGB">
<feFlood flood-opacity="0" result="BackgroundImageFix"/>
<feColorMatrix in="SourceAlpha" type="matrix" values="0 0 0 0 0 0 0 0 0 0 0 0 0 0 0 0 0 0 127 0" result="hardAlpha"/>
<feMorphology radius="15" operator="dilate" in="SourceAlpha" result="effect1_dropShadow_5_77"/>
<feOffset dy="2"/>
<feGaussianBlur stdDeviation="7.5"/>
<feComposite in2="hardAlpha" operator="out"/>
<feColorMatrix type="matrix" values="0 0 0 0 0 0 0 0 0 0 0 0 0 0 0 0 0 0 0.05 0"/>
<feBlend mode="normal" in2="BackgroundImageFix" result="effect1_dropShadow_5_77"/>
<feBlend mode="normal" in="SourceGraphic" in2="effect1_dropShadow_5_77" result="shape"/>
</filter>
<filter id="filter1_d_5_77" x="559.464" y="711.064" width="311.771" height="148.483" filterUnits="userSpaceOnUse" color-interpolation-filters="sRGB">
<feFlood flood-opacity="0" result="BackgroundImageFix"/>
<feColorMatrix in="SourceAlpha" type="matrix" values="0 0 0 0 0 0 0 0 0 0 0 0 0 0 0 0 0 0 127 0" result="hardAlpha"/>
<feOffset dy="1"/>
<feGaussianBlur stdDeviation="2"/>
<feComposite in2="hardAlpha" operator="out"/>
<feColorMatrix type="matrix" values="0 0 0 0 0 0 0 0 0 0 0 0 0 0 0 0 0 0 0.25 0"/>
<feBlend mode="normal" in2="BackgroundImageFix" result="effect1_dropShadow_5_77"/>
<feBlend mode="normal" in="SourceGraphic" in2="effect1_dropShadow_5_77" result="shape"/>
</filter>
<filter id="filter2_d_5_77" x="582.824" y="578.262" width="326.674" height="71.4496" filterUnits="userSpaceOnUse" color-interpolation-filters="sRGB">
<feFlood flood-opacity="0" result="BackgroundImageFix"/>
<feColorMatrix in="SourceAlpha" type="matrix" values="0 0 0 0 0 0 0 0 0 0 0 0 0 0 0 0 0 0 127 0" result="hardAlpha"/>
<feOffset dy="1"/>
<feGaussianBlur stdDeviation="2"/>
<feComposite in2="hardAlpha" operator="out"/>
<feColorMatrix type="matrix" values="0 0 0 0 0 0 0 0 0 0 0 0 0 0 0 0 0 0 0.25 0"/>
<feBlend mode="normal" in2="BackgroundImageFix" result="effect1_dropShadow_5_77"/>
<feBlend mode="normal" in="SourceGraphic" in2="effect1_dropShadow_5_77" result="shape"/>
</filter>
<radialGradient id="paint0_radial_5_77" cx="0" cy="0" r="1" gradientUnits="userSpaceOnUse" gradientTransform="translate(742.83 700.43) rotate(90) scale(185.781)">
<stop offset="0.00520833" stop-color="#F7F7F7" stop-opacity="0"/>
<stop offset="0.880208" stop-color="#C7C7C7"/>
</radialGradient>
</defs>
</svg>
