<svg width="287" height="279" viewBox="0 0 287 279" fill="none" xmlns="http://www.w3.org/2000/svg">
<g id="point_scene">
<g id="ps_square">
<path id="Vector" opacity="0.90447" d="M8.56879 14.0781H92.3783V100.945H8.56879V14.0781Z" stroke="#FC5F23" stroke-width="15.3505" stroke-linejoin="round"/>
<path id="Vector_2" d="M60.1994 47.4335H40.7505V67.592H60.1994V47.4335Z" fill="#FC5F23" stroke="#FC5F23" stroke-width="8.37952" stroke-linejoin="round"/>
</g>
<g id="ps_text">
<path id="Vector_3" d="M17.0648 278.249C14.5905 277.755 11.1255 276.668 9.36511 275.834C5.75553 274.125 0.069397 269.435 0.069397 268.168C0.069397 266.943 5.70461 260.897 6.84633 260.897C7.38318 260.897 8.43982 261.671 9.19448 262.616C11.3826 265.356 18.1938 268.103 22.8629 268.128C28.424 268.157 32.4596 265.938 34.0409 261.983C36.6304 255.503 31.9168 250.394 22.0003 248.932C7.8966 246.852 1.06919 240.615 1.06919 229.811C1.06919 218.138 10.0401 210.123 23.1089 210.123C30.1148 210.123 38.7463 213.204 42.0965 216.901L44.4635 219.512L40.9944 223.108L37.5252 226.704L33.5435 223.882C30.2578 221.553 28.4545 221.055 23.2292 221.032C17.5144 221.008 16.6608 221.287 14.4816 223.911C11.4278 227.587 11.435 229.911 14.5122 233.701C16.5136 236.166 18.2831 236.956 24.2596 238.054C33.5061 239.753 39.4776 242.635 42.3246 246.771C44.1643 249.444 44.5584 251.402 44.5584 257.865C44.5584 264.497 44.1786 266.286 42.1048 269.423C40.7553 271.465 38.2816 273.973 36.6075 274.998C32.1851 277.706 22.4522 279.325 17.0656 278.249L17.0648 278.249ZM77.5513 277.87C69.7728 275.793 63.2232 269.159 60.3949 260.492C57.8001 252.542 58.099 235.317 60.9665 227.563C65.1456 216.262 73.6556 210.124 85.143 210.124C92.1297 210.124 98.2634 212.75 102.77 217.67C107.709 223.062 107.741 224.896 102.944 227.55L98.8298 229.826L95.1637 225.544C91.9759 221.821 90.8488 221.204 86.5237 220.816C80.0789 220.239 75.3333 222.727 72.3339 228.257C70.3756 231.868 70.0838 233.909 70.0694 244.101C70.0558 253.854 70.3923 256.488 72.0928 259.943C75.0668 265.985 79.2591 268.365 86.0112 267.846C91.0212 267.461 91.8053 267.038 95.5086 262.722L99.5454 258.019L103.294 260.51C105.356 261.879 107.043 263.288 107.043 263.64C107.043 265.705 102.228 271.742 98.408 274.467C94.6587 277.14 92.8098 277.705 86.751 278.024C82.7907 278.233 78.6506 278.164 77.5511 277.87L77.5513 277.87ZM118.494 276.171C118.228 275.453 118.13 260.648 118.276 243.271L118.541 211.678L159.03 211.118V221.466L130.538 222.04V238.619L156.031 239.2V248.464H144.616C138.338 248.464 132.489 248.747 131.619 249.093C130.351 249.597 130.038 251.444 130.038 258.418V267.115H159.03V277.477H139.004C123.818 277.477 118.861 277.162 118.495 276.171L118.494 276.171ZM172.262 244.578L172.526 211.678L176.43 211.347C183.876 210.715 184.372 211.183 193 226.97C197.436 235.087 202.742 245.106 204.792 249.236C206.841 253.365 209.071 256.746 209.747 256.748C210.675 256.751 211.044 251.215 211.247 234.215L211.516 211.677L221.013 211.045V277.474L208.517 277.427L203.518 268.473C196.519 255.935 192.3 248.061 188.123 239.742C186.143 235.799 183.96 232.379 183.273 232.143C182.299 231.808 182.023 236.751 182.023 254.596V277.479H171.998L172.262 244.578ZM237.243 244.578L237.507 211.678H276.497L277.105 221.464L248.505 222.04L248.208 229.72C247.998 235.164 248.289 237.649 249.208 238.253C249.921 238.722 255.79 239.113 262.252 239.122L273.999 239.139V248.465H262.124C253.136 248.465 249.966 248.819 249.082 249.924C248.358 250.828 248.027 254.273 248.21 258.99L248.505 266.598L276.998 267.173V277.479H236.98L237.243 244.578ZM78.3754 192.462C72.6005 191.279 68.8887 189.107 65.199 184.752C55.031 172.748 54.5379 146.256 64.2553 134.037C65.8745 132.001 69.2117 129.113 71.671 127.618C77.7418 123.931 89.2541 123.785 96.4783 127.305C107.536 132.692 113.635 149.633 110.652 166.676C109.037 175.906 108.16 178.253 104.253 183.792C99.2924 190.826 88.3246 194.5 78.376 192.462H78.3754ZM90.5458 181.11C97.3795 177.682 99.0435 173.35 99.0435 158.985C99.0435 145.363 97.8857 141.529 92.6492 137.809C88.4511 134.828 80.8454 134.706 76.3481 137.549C71.93 140.341 69.9741 144.821 69.3319 153.622C68.2094 169.005 70.9533 177.689 78.0846 181.32C82.673 183.657 85.569 183.608 90.5458 181.111V181.11ZM3.73811 191.818C3.37152 191.438 3.07167 176.252 3.07167 158.072V125.016L19.3172 125.345C38.2776 125.729 41.6074 126.81 45.4825 133.839C51.589 144.916 49.1573 158.417 40.0582 163.957C37.3035 165.635 34.2317 166.196 25.5657 166.604L14.5685 167.122L14.2828 178.459C14.1257 184.694 13.5083 190.406 12.9108 191.152C11.792 192.55 4.92486 193.048 3.73802 191.818L3.73811 191.818ZM34.7488 153.988C36.6478 152.139 37.0626 150.666 37.0626 145.769C37.0626 140.34 36.7962 139.607 34.1014 137.618C31.5595 135.742 29.9666 135.475 22.8542 135.734L14.5685 136.035L14.2755 144.757C14.1143 149.553 14.2127 154.099 14.4941 154.86C14.8663 155.865 17.3795 156.241 23.7201 156.241C31.2917 156.241 32.7381 155.946 34.7484 153.988H34.7488ZM126.703 191.818C126.336 191.438 126.036 189.34 126.036 187.155C126.036 183.645 126.317 183.183 128.454 183.183C134.193 183.183 134.034 183.879 134.034 158.784V135.643L130.285 135.321C126.554 135.001 126.536 134.977 126.536 130.336V125.674H153.529V134.999L145.531 136.036L145.261 157.566C145.089 171.235 145.376 179.842 146.046 181.139C146.785 182.569 148.141 183.183 150.565 183.183C153.726 183.183 154.029 183.447 154.029 186.207C154.029 192.479 153.965 192.509 140.093 192.509C133.095 192.509 127.07 192.198 126.703 191.818H126.703ZM172.5 191.263C172.222 190.512 172.114 175.447 172.259 157.786L172.524 125.674L177.523 125.404C180.272 125.256 183.044 125.492 183.684 125.928C185.073 126.875 197.444 148.946 203.724 161.682C206.183 166.668 208.604 170.748 209.104 170.748C209.622 170.748 210.014 161.202 210.014 148.581C210.014 123.923 209.641 125.156 217.094 125.156H221.011V158.203C221.011 194.967 221.515 192.509 213.97 192.509C209.67 192.509 207.688 190.856 204.368 184.504C202.295 180.537 199.79 175.97 195.829 168.936C194.626 166.798 191.663 161.089 189.245 156.249C186.828 151.408 184.326 147.112 183.685 146.7C182.818 146.144 182.393 151.825 182.021 168.972L181.521 191.991L177.263 192.31C174.427 192.523 172.836 192.173 172.499 191.264L172.5 191.263ZM253.249 191.31C252.32 190.347 252.004 183.262 252.004 163.396C252.004 140.076 251.808 136.696 250.423 136.145C249.553 135.799 245.704 135.516 241.87 135.516H234.899L235.203 130.594L235.508 125.672L280.996 125.115V135.516H273.689C269.408 135.516 265.686 136.052 264.7 136.811C263.21 137.958 262.987 141.197 262.759 165.047L262.501 191.988L258.498 192.295C256.25 192.467 253.948 192.035 253.249 191.31V191.31Z" fill="black"/>
</g>
</g>
</svg>
