<svg width="301" height="290" viewBox="0 0 301 290" fill="none" xmlns="http://www.w3.org/2000/svg">
<g id="poppamies">
<g id="Vector">
<path fill-rule="evenodd" clip-rule="evenodd" d="M89.165 288.094C89.7668 285.768 208.534 285.981 210.353 288.311L210.356 288.311C211.214 289.411 213.622 289.883 217.119 289.638C220.105 289.428 237.586 288.317 255.966 287.169C274.345 286.022 289.573 284.841 289.805 284.546C290.037 284.251 271.923 284.009 249.552 284.009C214.072 284.009 208.878 283.76 208.878 282.063C208.878 280.356 201.565 280.118 149.131 280.118C96.6975 280.118 89.384 280.356 89.384 282.063C89.384 283.758 84.5271 284.009 51.7472 284.009C31.0473 284.009 14.3005 284.236 14.5325 284.514C14.7643 284.792 31.5644 286.047 51.8655 287.302C79.4388 289.008 88.8751 289.208 89.165 288.094ZM266.307 256.121C266.038 254.694 265.818 257.321 265.818 261.958C265.818 266.595 266.035 269.313 266.299 267.997C266.696 266.029 267.404 265.755 270.296 266.45C277.717 268.233 283.811 262.377 283.811 253.461C283.811 250.077 282.233 247.736 273.26 237.8C269.161 233.262 269.223 230.159 273.453 228.1C276.452 226.639 280.363 229.328 281.776 233.822C282.467 236.022 282.666 235.198 282.654 230.179C282.645 226.612 282.419 224.381 282.152 225.221C281.845 226.186 280.387 226.483 278.198 226.027C270.759 224.481 264.987 231.801 267.505 239.589C268.14 241.553 271.158 245.636 274.21 248.661C278.595 253.007 279.76 254.925 279.76 257.801C279.76 262.528 278.082 264.552 274.164 264.552C270.779 264.552 267.168 260.677 266.307 256.121ZM246.596 265.673C252.783 265.784 256.469 266.363 256.469 267.223C256.469 267.979 256.925 268.236 257.482 267.795C258.038 267.354 258.494 265.165 258.494 262.931C258.494 259.262 258.365 259.093 257.167 261.193C256.348 262.627 254.002 263.783 251.044 264.211L246.248 264.903L246.549 255.324L246.849 245.744L250.393 246.189C252.343 246.434 254.507 247.235 255.203 247.969C256.154 248.971 256.469 248.537 256.47 246.227C256.47 243.339 256.159 243.178 251.407 243.6L246.343 244.049V236.141C246.343 228.376 246.393 228.237 249.128 228.251C254.058 228.283 256.469 229.676 256.469 232.493C256.469 236.39 257.111 234.806 257.933 228.882C258.515 224.681 258.406 224.003 257.358 225.315C256.529 226.355 252.594 227 246.394 227.113C241.074 227.211 237.748 227.543 239.001 227.852C241.234 228.403 241.279 228.78 241.279 246.393C241.279 264.007 241.233 264.383 239.001 264.934C237.748 265.244 241.165 265.576 246.596 265.673ZM48.3564 232.314C39.5289 242.242 42.2659 260.011 53.4332 265.273C58.6054 267.71 65.9787 266.826 71.0739 263.158C79.401 257.163 82.0943 241.544 76.2666 233.042C69.8002 223.609 56.4072 223.26 48.3564 232.314ZM60.8536 228.234C73.6598 228.234 79.3766 255.149 68.1498 262.585C62.7168 266.184 57.3215 264.763 52.7384 258.526C43.5944 246.083 48.3761 228.234 60.8536 228.234ZM61.3635 244.021C60.3333 244.273 59.3601 245.816 59.1737 247.495C58.914 249.833 59.257 250.413 60.6927 250.062C61.7229 249.811 62.6962 248.267 62.8825 246.589C63.1421 244.25 62.7992 243.67 61.3635 244.021ZM19.5111 246.393C19.5111 264.007 19.4648 264.383 17.2327 264.934C15.9794 265.243 18.3714 265.486 22.5487 265.479C26.7261 265.469 28.8907 265.218 27.359 264.921L24.5742 264.38V246.307C24.5742 228.364 24.5909 228.233 26.8805 228.233C33.9968 228.233 36.3641 239.387 30.5724 245.629C27.0141 249.464 27.2909 249.736 32.1229 247.15C36.5251 244.794 38.9798 239.982 38.5676 234.516C38.1107 228.455 35.1383 226.941 24.0679 227.132C19.0554 227.219 15.9795 227.543 17.2327 227.852C19.4646 228.403 19.5111 228.78 19.5111 246.393ZM88.3716 246.393C88.3716 264.007 88.3253 264.383 86.0931 264.934C84.8399 265.243 87.2321 265.486 91.4094 265.479C95.5868 265.469 97.7514 265.218 96.2197 264.921L93.4349 264.38V228.234H95.9665C102.512 228.234 104.689 238.663 99.525 245.277C96.8251 248.735 96.7437 249.054 98.7655 248.25C105.11 245.727 108.529 239.574 107.24 232.996C106.357 228.49 102.449 226.916 92.6279 227.113C87.7805 227.211 84.8399 227.543 86.0931 227.852C88.3251 228.403 88.3716 228.78 88.3716 246.393ZM116.502 246.633C116.221 263.699 116.206 263.795 113.688 264.691L113.685 264.69C112.22 265.212 114.567 265.562 119.254 265.526C123.71 265.49 126.149 265.223 124.674 264.933C122.972 264.598 121.775 263.366 121.397 261.56C120.612 257.8 120.605 232.907 121.391 230.285C122.308 227.223 126.186 227.807 128.824 231.403C132.119 235.895 131.053 242.928 126.544 246.45C122.768 249.399 124.582 249.887 128.838 247.067C132.619 244.563 135.966 239.031 135.966 235.287C135.966 233.619 134.794 231.132 133.298 229.625C131.024 227.334 129.264 226.945 121.399 227.019C114.758 227.078 112.816 227.434 114.477 228.288C116.737 229.451 116.779 229.829 116.502 246.633ZM143.211 247.706C139.93 258.417 137.664 264.05 136.375 264.698L136.375 264.697C135.178 265.298 136.558 265.643 140.016 265.606C143.079 265.574 144.788 265.281 143.814 264.954C141.718 264.253 141.681 263.674 143.218 255.722C144.621 248.467 145.316 247.738 150.829 247.709C155.038 247.689 155.072 247.728 157.159 254.872C159.776 263.832 159.769 264.245 156.978 264.933C155.725 265.242 160.396 265.495 167.358 265.495C174.32 265.495 178.991 265.242 177.738 264.933C177.011 264.754 176.481 264.724 176.134 264.457C175.177 263.719 175.616 261.171 177.164 248.662C178.893 234.69 179.782 232.187 181.081 237.636C182.939 245.43 188.971 264.551 189.571 264.551C189.945 264.551 192.447 257.793 195.13 249.533C197.813 241.273 200.349 234.998 200.766 235.589C201.513 236.649 204.826 258.509 204.826 262.377C204.826 263.474 203.8 264.623 202.547 264.933C201.294 265.242 203.459 265.506 207.358 265.521C211.256 265.536 213.658 265.283 212.694 264.959C210.796 264.322 209.95 260.964 207.365 243.798C206.452 237.734 205.488 231.798 205.224 230.608C204.926 229.272 205.437 228.212 206.556 227.84C207.554 227.508 205.864 227.179 202.801 227.106C199.399 227.026 197.758 227.403 198.586 228.075C199.673 228.958 199.328 231.137 196.839 239.099C193.755 248.964 192.451 253.589 191.264 253.559C190.192 253.533 189.216 249.709 187.11 242.521C183.905 231.575 183.483 229.091 184.664 228.133C185.584 227.387 183.929 227.031 180.016 227.132C176.674 227.219 174.985 227.546 176.263 227.859C177.85 228.248 178.436 229.116 178.115 230.601C177.856 231.796 176.393 239.923 174.863 248.663L172.082 264.552H168.832C165.918 264.552 165.37 263.916 163.532 258.391C161.636 252.693 155.206 229.898 155.206 228.874C155.206 228.626 156.004 228.157 156.978 227.83C157.953 227.504 155.788 227.219 152.168 227.189C148.548 227.163 146.156 227.435 146.852 227.795C148.793 228.799 148.486 230.48 143.211 247.706ZM150.196 230.828C150.736 230.828 154.194 243.546 154.194 245.534C154.194 246.903 147.289 246.527 146.61 245.12C145.956 243.763 149.201 230.828 150.196 230.828ZM222.041 246.393C222.041 264.006 221.995 264.383 219.762 264.934C218.509 265.243 220.901 265.486 225.079 265.479C229.256 265.469 231.421 265.218 229.889 264.921L227.104 264.38V246.397C227.104 228.779 227.15 228.403 229.383 227.852C230.636 227.543 228.471 227.29 224.573 227.29C220.674 227.29 218.509 227.543 219.762 227.852C221.995 228.403 222.041 228.779 222.041 246.393Z" fill="white"/>
<path fill-rule="evenodd" clip-rule="evenodd" d="M67.5971 204.618C67.0473 203.043 64.3894 200.309 61.6904 198.542C55.0349 194.185 43.6321 193.442 30.6481 196.521C18.2026 199.472 12.9428 200.148 9.94334 199.184C6.77651 198.166 1.65994 192.613 1.02575 189.507C0.568303 187.266 0.86879 187.317 4.70194 190.125C10.3368 194.252 18.3004 194.164 32.3395 189.819C46.5382 185.425 58.0294 185.851 68.3353 191.154L75.1362 194.653L78.2085 191.744C79.8983 190.144 81.2809 188.499 81.2809 188.088C81.2809 187.678 79.6923 184.32 77.7507 180.628C70.3812 166.61 65.4329 148.336 64.4151 131.378L63.758 120.428L59.6081 117.76C53.0226 113.526 49.1159 109.24 46.3691 103.236C43.4891 96.9413 40.7973 86.5223 40.7956 81.6633C40.7948 79.1692 41.3599 79.9759 43.2437 85.1585C46.1526 93.1615 52.3775 102.145 58.7751 107.573C64.979 112.837 66.091 112.654 66.091 106.372C66.091 93.8551 62.0078 79.7059 55.7134 70.4113L52.4205 65.5486L57.3454 70.0391C67.5211 79.3174 72.1116 90.2268 72.1451 105.212L72.1676 115.141L77.9904 119.349C89.1279 127.398 103.682 148.827 108.923 164.893L110.447 169.566L119.524 166.905L120.07 147.308C120.63 127.21 121.964 118.651 126.713 104.679C129.245 97.2298 135.763 84.7859 139.396 80.4657C140.85 78.7362 142.04 76.6713 142.04 75.8769C142.04 75.0827 139.813 71.6226 137.09 68.1876C134.368 64.7527 130.894 58.7885 129.372 54.9338C126.839 48.5231 126.64 46.9538 127.028 36.5361C127.418 26.1131 127.821 24.2707 131.781 14.8168C137.266 1.72267 139.802 -2.01166 137.484 6.41995C132.683 23.8809 135.722 43.7984 145.33 57.8473L148.623 62.6625L149.282 55.6253C149.645 51.7549 149.986 43.807 150.041 37.9638C150.173 24.0304 152.126 22.2039 152.285 35.865C152.35 41.436 152.692 49.7599 153.045 54.3622L153.686 62.7304L156.48 58.4638C166.868 42.6016 169.943 21.7662 164.304 5.43566C160.877 -4.48583 165.118 1.82588 170.386 14.4888C174.493 24.3632 174.892 26.1618 175.281 36.5807C175.668 46.9464 175.467 48.5268 172.937 54.9317C171.414 58.7864 167.941 64.7505 165.218 68.1855C162.496 71.6204 160.268 75.0806 160.268 75.8748C160.268 76.6691 161.472 78.7339 162.943 80.4636C166.709 84.8907 173.972 99.4833 176.502 107.707C180.792 121.649 182.663 135.349 182.476 151.462L182.299 166.623L186.22 168.145C192.79 170.695 193.197 170.433 196.846 161.319C203.493 144.715 217.6 125.416 227.103 119.926L231.034 117.656L230.892 107.117C230.778 98.71 231.21 95.2668 233.025 90.0929C235.325 83.5381 241.276 74.7057 246.849 69.5744C249.728 66.9244 249.684 67.0968 246.01 72.8567C240.952 80.7864 237.278 94.1368 237.251 104.686C237.228 114.242 237.824 114.571 244.673 108.76C250.869 103.503 256.091 95.22 259.082 85.9053C261.854 77.271 262.25 79.6903 259.936 91.1254C256.909 106.089 252.246 114.123 243.169 120.015C238.823 122.836 238.292 123.618 238.835 126.394C239.883 131.742 237.309 151.216 234.157 161.791C232.511 167.311 229.339 175.829 227.109 180.719C222.542 190.728 222.487 190.997 224.527 193.166C225.705 194.418 227.386 194.021 232.882 191.194C243.315 185.826 254.901 185.377 268.713 189.807C281.642 193.954 290.441 194.228 295.91 190.654C298.064 189.246 300.061 187.349 300.347 186.438C300.668 185.415 300.897 185.656 300.946 187.071C300.992 188.33 299.467 191.54 297.561 194.205C294.202 198.903 293.886 199.049 287.182 199.019C283.379 199.004 275.938 197.916 270.647 196.606C256.697 193.152 244.92 194.141 238.462 199.311C235.618 201.588 233.742 204.014 233.826 205.308C233.956 207.325 228.014 207.481 151.283 207.481H68.6002L67.5971 204.618ZM230.952 133.231C231.611 144.429 225.426 167.17 218.784 177.972C217.139 180.647 215.262 182.781 214.613 182.707C213.963 182.636 210.794 180.834 207.569 178.701C200.986 174.347 201.005 174.495 205.437 162.535C209.014 152.884 215.14 143.601 223.412 135.298L230.647 128.036L230.952 133.231ZM89.5412 144.95C94.8359 152.288 101.534 167.283 101.534 171.796C101.534 172.854 98.7681 175.508 95.3875 177.694L89.2408 181.668L85.7025 176.739C83.7565 174.029 80.6359 167.697 78.7678 162.668C74.152 150.243 70.4546 127.061 73.0887 127.061C74.7128 127.061 83.6329 136.76 89.5412 144.95ZM165.94 126.657C167.749 136.504 167.461 155.684 165.432 160.54C164.78 162.102 163.92 163.3 163.522 163.203C163.124 163.106 161.659 162.755 160.266 162.424C158.874 162.092 157.446 161.225 157.092 160.496C156.739 159.767 156.162 150.049 155.811 138.9C155.459 127.751 154.894 113.391 154.556 106.988C154.011 96.6956 154.117 95.5342 155.469 96.9721C158.014 99.6771 164.213 117.251 165.94 126.657ZM146.616 97.2058C148.266 95.4535 148.191 104.768 146.21 147.814L145.583 161.433L141.408 161.825C136.269 162.306 135.931 161.464 135.247 146.517C134.9 138.942 135.246 132.754 136.35 126.741C138.114 117.137 144.12 99.8599 146.616 97.2058Z" fill="#881324"/>
</g>
</g>
</svg>
