<svg width="301" height="298" viewBox="0 0 301 298" fill="none" xmlns="http://www.w3.org/2000/svg">
<g id="tableonline">
<path id="Vector" d="M127.453 297.133C122.278 296.444 118.711 294.065 116.71 289.965C114.281 284.988 114.488 277.217 117.166 272.835C119.703 268.686 125.152 266.513 132.036 266.908C139.755 267.35 144.281 270.74 145.708 277.147C146.217 279.432 146.221 284.85 145.715 287.07C144.565 292.126 141.056 295.616 135.945 296.79C133.914 297.256 129.669 297.428 127.453 297.133L127.453 297.133ZM134.904 290.707C137.834 289.347 139.157 286.547 139.106 281.816C139.081 279.571 138.921 278.515 138.41 277.242C137.122 274.032 133.991 272.377 129.837 272.71C124.871 273.109 122.387 275.685 122.02 280.815C121.725 284.939 122.788 288.186 124.986 289.877C127.261 291.627 132.057 292.028 134.904 290.707L134.904 290.707ZM9.80644 296.945C9.69464 296.838 9.60345 291.387 9.60345 284.832V272.914H5.53095C2.40738 272.914 1.37579 272.819 1.10399 272.504C0.879293 272.245 0.781953 271.204 0.838398 269.659L0.92741 267.222H24.6735V272.768L16.3016 272.93V284.685C16.3016 293.438 16.2082 296.529 15.9363 296.789C15.5475 297.162 10.1758 297.298 9.8071 296.945H9.80644ZM32.5403 296.836C28.1118 295.996 25.6878 292.573 26.5925 288.438C27.4774 284.393 31.1894 282.615 38.1436 282.904C40.6813 283.01 41.2639 282.958 41.2639 282.625C41.2639 281.827 40.5925 281.032 39.5748 280.624C38.2309 280.086 33.8201 280.094 31.1309 280.641C29.9949 280.872 28.8646 280.987 28.6193 280.897C28.277 280.771 28.1734 280.167 28.1734 278.297V275.861L29.315 275.554C32.0156 274.826 36.0219 274.565 39.0321 274.919C43.6571 275.464 46.0579 276.716 47.2442 279.2C47.9623 280.704 47.9701 280.822 47.8901 288.858L47.809 296.995L46.0645 297.082C44.6144 297.154 44.1312 297.047 43.2018 296.441C42.1998 295.788 42.0016 295.753 41.2932 296.099C39.3753 297.037 35.3746 297.374 32.5399 296.837L32.5403 296.836ZM40.1632 290.861C41.0971 290.436 41.264 290.215 41.264 289.406C41.264 288.237 40.8619 288.099 37.4586 288.1C34.4418 288.1 33.5363 288.483 33.4027 289.814C33.3488 290.352 33.4389 290.921 33.6028 291.079C34.4724 291.912 38.1178 291.791 40.1631 290.861L40.1632 290.861ZM57.0946 296.707C55.3366 296.484 53.7941 296.294 53.667 296.283C53.54 296.273 53.4712 289.73 53.5147 281.743L53.5935 267.222H59.9866L60.0709 271.371L60.1552 275.52L60.8795 275.256C63.5301 274.29 68.4374 274.721 71.0463 276.15C74.2096 277.882 75.5148 280.654 75.4996 285.61C75.4815 291.505 73.606 294.602 68.9671 296.393C67.1513 297.095 61.3745 297.247 57.094 296.705L57.0946 296.707ZM66.5631 290.933C68.1456 289.923 68.7966 288.377 68.8044 285.611C68.8116 283.012 68.311 281.744 66.9362 280.881C65.9647 280.27 63.6196 280.223 61.5851 280.772L60.1391 281.162V286.212C60.1391 292.012 59.8029 291.481 63.519 291.554C65.144 291.585 65.7269 291.468 66.5633 290.933L66.5631 290.933ZM79.7662 296.785C79.6837 296.579 79.6519 289.843 79.6957 281.816L79.7749 267.223H86.168V296.994L83.0421 297.078C80.7119 297.14 79.8781 297.064 79.7664 296.786L79.7662 296.785ZM98.4973 296.761C93.3367 295.615 90.6081 292.487 90.1025 287.137C89.7129 283.015 90.9064 279.236 93.2108 277.296C96.9857 274.119 104.948 273.822 108.617 276.722C110.929 278.55 112.035 282.567 111.454 287.028L111.239 288.675H104.107C96.3607 288.675 96.1697 288.721 97.8121 290.19C99.394 291.606 101.928 291.926 107.858 291.461L110.674 291.24V296.488L109.837 296.667C107.974 297.067 100.165 297.131 98.4976 296.761L98.4973 296.761ZM104.89 282.969C104.89 282.15 104.036 280.914 103.224 280.56C102.26 280.138 100.046 280.105 98.9738 280.496C98.2036 280.776 96.9785 282.347 96.9763 283.057C96.9754 283.33 97.969 283.422 100.933 283.422C104.304 283.422 104.89 283.355 104.89 282.969L104.89 282.969ZM151.306 296.784C151.223 296.577 151.192 291.549 151.236 285.61L151.316 274.812H156.491L156.775 275.913C156.931 276.519 157.136 276.972 157.231 276.921C161.713 274.495 166.626 274.065 169.656 275.831C171.059 276.649 172.39 278.563 172.767 280.306C172.965 281.222 173.062 284.808 173.012 289.406L172.93 296.994H166.537L166.385 289.34C166.241 282.105 166.199 281.653 165.606 281.086C164.279 279.815 161.43 280.071 159.131 281.668L157.872 282.543L157.79 289.769L157.709 296.994L154.583 297.078C152.248 297.14 151.419 297.067 151.306 296.785L151.306 296.784ZM178.401 296.784C178.318 296.579 178.287 289.843 178.33 281.817L178.41 267.223H184.803V296.994L181.677 297.077C179.347 297.139 178.513 297.063 178.401 296.785L178.401 296.784ZM190.577 296.784C190.494 296.577 190.463 291.549 190.507 285.61L190.587 274.812H196.98V296.995L193.854 297.078C191.519 297.14 190.69 297.068 190.577 296.785L190.577 296.784ZM202.45 296.784C202.368 296.577 202.336 291.549 202.38 285.61L202.46 274.812H207.635L207.919 275.913C208.075 276.519 208.28 276.972 208.375 276.921C212.858 274.495 217.77 274.065 220.801 275.831C222.203 276.649 223.534 278.563 223.911 280.306C224.109 281.222 224.206 284.808 224.156 289.406L224.074 296.994H217.681L217.529 289.34C217.385 282.105 217.342 281.653 216.75 281.086C215.423 279.815 212.575 280.071 210.275 281.668L209.016 282.543L208.934 289.769L208.853 296.994L205.727 297.078C203.392 297.14 202.563 297.067 202.45 296.785L202.45 296.784ZM236.708 296.76C231.548 295.614 228.819 292.486 228.314 287.136C227.924 283.014 229.118 279.236 231.422 277.296C235.197 274.118 243.159 273.822 246.828 276.722C249.141 278.549 250.247 282.566 249.665 287.027L249.451 288.674H242.318C234.572 288.674 234.381 288.721 236.023 290.19C237.605 291.605 240.14 291.926 246.07 291.46L248.886 291.239V296.487L248.048 296.667C246.185 297.066 238.376 297.131 236.709 296.76L236.708 296.76ZM243.102 282.969C243.102 282.149 242.248 280.914 241.436 280.559C240.471 280.138 238.257 280.104 237.185 280.495C236.415 280.776 235.19 282.347 235.187 283.056C235.186 283.33 236.18 283.421 239.144 283.421C242.515 283.421 243.101 283.354 243.101 282.969L243.102 282.969ZM253.282 296.761C253.194 296.542 253.162 295.191 253.211 293.759L253.3 291.156H259.693V296.993L256.567 297.076C254.146 297.141 253.405 297.069 253.282 296.761V296.761ZM265.396 296.798C264.816 296.242 264.855 267.863 265.438 267.4C265.735 267.163 268.731 267.09 275.864 267.145L285.874 267.222V272.768L272.023 272.924V279.031L285.265 279.189V284.734L271.731 284.891L271.566 296.992L268.669 297.075C266.676 297.132 265.655 297.044 265.397 296.798L265.396 296.798ZM291.953 296.785C291.87 296.577 291.839 291.549 291.883 285.61L291.963 274.812H298.356V296.995L295.23 297.078C292.895 297.14 292.066 297.068 291.953 296.785L291.953 296.785ZM190.567 271.949C190.478 271.727 190.447 270.574 190.496 269.385L190.587 267.223H196.98V272.185L193.854 272.268C191.418 272.333 190.693 272.261 190.567 271.949H190.567ZM291.942 271.949C291.853 271.727 291.822 270.574 291.871 269.385L291.962 267.223H298.355V272.185L295.229 272.268C292.793 272.333 292.068 272.261 291.942 271.949H291.942ZM16.5689 262.961C12.6787 262.433 8.4013 260.226 5.94445 257.481C4.45645 255.818 2.79942 252.85 2.08029 250.559C1.56594 248.921 1.53464 243.071 1.45438 133.541C1.3983 56.9135 1.47247 17.4216 1.67872 15.7706C2.08188 12.5316 2.9785 10.1551 4.72489 7.69709C7.25686 4.13321 11.1901 1.66129 15.758 0.762816C17.8765 0.346145 31.026 0.301804 151.081 0.306386C266.881 0.309853 284.331 0.366749 286.188 0.740403C293.068 2.12521 298.719 7.5882 299.914 14.0086C300.225 15.682 300.325 20.3373 300.334 33.4775C300.341 42.9757 300.261 50.9548 300.159 51.2086C300.058 51.4626 299.75 51.6711 299.474 51.6721C299.199 51.6731 296.097 50.2998 292.581 48.6205C284.424 44.7247 278.151 42.2341 269.749 39.5544C249.786 33.1881 229.383 30.4303 208.34 31.2542C197.119 31.6936 186.862 32.9818 176.745 35.222C149.424 41.2726 125.114 52.9841 103.377 70.5687C98.6614 74.3837 88.1246 84.5066 84.0258 89.1605C71.4109 103.481 61.9132 118.802 54.8612 136.201C48.8265 151.091 45.3861 165.881 44.0139 182.836C43.6173 187.734 43.6225 201.659 44.0211 206.669C45.4721 224.831 49.6151 241.311 56.9364 258.045C57.8649 260.167 58.6247 262.129 58.6247 262.405C58.6247 262.796 58.2489 262.948 56.9044 263.1C54.5102 263.37 18.6745 263.243 16.5736 262.957L16.5689 262.961ZM142.492 262.993C141.514 262.813 140.875 262.359 139.236 260.681C124.548 245.647 114.819 224.737 112.813 203.887C112.418 199.776 112.421 190.307 112.821 185.791C114.45 167.315 122.126 148.911 134.436 133.96C137.646 130.06 146.696 121.411 151.015 118.112C165.847 106.787 183.338 99.7976 203.073 97.3127C208.084 96.6817 221.017 96.5979 225.904 97.1649C248.899 99.8326 269.343 108.975 287.084 124.525C292.03 128.86 299.836 137.338 300.201 138.771C300.287 139.108 300.319 164.142 300.271 194.402L300.186 249.42L299.504 251.317C297.568 256.704 293.584 260.523 288.009 262.339L285.573 263.132L266.394 263.218C255.846 263.266 246.258 263.201 245.088 263.075C243.137 262.865 242.925 262.775 242.532 261.99C241.043 259.009 241.768 248.783 243.756 244.729C244.762 242.676 246.182 241.859 250.355 240.927C254.792 239.937 256.274 239.293 258.075 237.572C259.762 235.96 261.015 233.691 262.092 230.3C264.816 221.724 264.717 205.577 261.805 183.31C257.741 152.238 251.451 136.203 242.168 133.247C240.25 132.636 234.732 132.567 232.787 133.13C232.052 133.343 230.968 133.953 230.378 134.486L229.307 135.455L229.501 145.592C229.608 151.167 229.836 165.842 230.007 178.203C230.178 190.564 230.453 207.638 230.618 216.146C231.566 265.03 231.54 262.231 231.055 262.7C230.667 263.075 228.846 263.138 218.443 263.138C204.27 263.138 205.445 263.436 204.642 259.635C203.605 254.722 202.006 240.272 202.006 235.808C202.006 230.944 203.16 228.261 206.699 224.897C208.699 222.997 209.916 222.157 213.192 220.42C216.039 218.911 217.583 217.892 218.445 216.953C220.776 214.413 220.637 217.165 220.583 174.711C220.528 132.552 220.7 135.815 218.473 134.62C216.05 133.32 213.455 133.57 211.495 135.293L210.378 136.274L210.297 161.446C210.239 179.301 210.118 186.732 209.879 187.008C209.692 187.224 208.947 187.396 208.202 187.396C207.043 187.396 206.821 187.295 206.565 186.648C206.381 186.185 206.263 176.861 206.255 162.203C206.248 149.17 206.126 137.935 205.985 137.235C205.655 135.595 204.804 134.522 203.438 134.024C201.875 133.453 200.282 134.228 199.342 136.015L198.657 137.318V162.299C198.657 181.339 198.57 187.363 198.292 187.63C198.091 187.822 197.228 187.98 196.374 187.98C195.52 187.98 194.657 187.823 194.456 187.63C194.178 187.363 194.091 181.276 194.09 162.018C194.089 137.494 194.072 136.729 193.495 135.823C192.313 133.964 190.19 133.36 188.522 134.408C186.821 135.477 186.875 134.685 186.677 161.695C186.517 183.36 186.433 186.691 186.035 187.072C185.504 187.581 183.538 187.611 183.024 187.118C182.769 186.874 182.633 179.972 182.522 161.624C182.439 147.786 182.251 136.231 182.106 135.946C181.961 135.661 181.209 135.072 180.436 134.637C177.856 133.187 174.617 133.704 172.965 135.829L172.324 136.653V213.519L173.045 215.049C174.002 217.078 175.277 218.123 179.52 220.358C185.757 223.644 188.744 226.579 190.159 230.816C191.083 233.582 191.016 237.299 189.848 247.956C188.944 256.212 188.118 261.109 187.421 262.359C187.217 262.725 186.634 262.973 185.689 263.097C183.681 263.361 143.969 263.265 142.491 262.993L142.492 262.993Z" fill="black"/>
</g>
</svg>
