<svg xmlns="http://www.w3.org/2000/svg" width="863.467" height="153.945" viewBox="0 0 647.6 115.459" version="1.1">
  <g fill="#04529c">
    <path d="M55.32.857c6.8-2.33 14.78.23 19.05 5.98 6.18 8.41 12.13 16.99 18.28 25.43 6.76-6.78 13.37-13.72 20.37-20.24 5.71 7.13 10.73 14.79 16.03 22.22 1.55 1.45-.19 2.93-1.23 3.98-11.35 11.32-22.67 22.69-34.01 34.02-2.61 3.16-8.23 3.35-10.61-.18-9.93-13.77-19.71-27.64-29.57-41.46-2.18-3.15-5.19-5.79-8.79-7.16-3.76-1.7-7.97-.77-11.94-1.3 1.39-4.14 5.35-6.52 8.13-9.65 4.5-4.14 8.24-9.66 14.29-11.64zM150.58 17.277c23.65.1 47.3-.03 70.95.07-.06 5.19 0 10.37-.06 15.56-8.18.06-16.35-.04-24.52.03-.11 21.15.03 42.29-.07 63.44-7.39.05-14.79-.04-22.18.06.09-21.17-.04-42.34.07-63.52-8.01.01-16.02-.06-24.02.06-.4-5.22-.13-10.46-.17-15.7zM242.08 17.327c8.96-.05 17.91.03 26.86-.05 10.44 26.35 20.84 52.71 31.17 79.09-8.28.02-16.55.09-24.83-.04-1.72-5.31-3.55-10.58-5.45-15.82-10.53-.02-21.05-.03-31.57.02-1.84 5.29-3.58 10.61-5.45 15.89-7.32 0-14.63-.11-21.94.06 10.37-26.4 20.82-52.76 31.21-79.15m1.35 48.57c7.14.14 14.29.06 21.44.02-3.49-11.04-6.71-22.16-10.31-33.16-4.1 10.91-7.47 22.08-11.13 33.14zM308.87 17.267c7.37.03 14.74.05 22.12 0-.04 21.22-.11 42.44.03 63.65 11.86.09 23.73-.13 35.59.1-.04 5.12.03 10.24-.01 15.36-19.24.05-38.48-.08-57.72.08.04-26.4.05-52.79-.01-79.19zM375.89 17.277c7.38.03 14.75.08 22.13-.02.01 21.21 0 42.43.01 63.64 11.9.08 23.8-.01 35.7.03-.03 5.15-.03 10.3-.04 15.45-19.26.05-38.52-.06-57.78.06-.04-26.39 0-52.77-.02-79.16zM441.94 17.297c7.61.01 15.23.02 22.84-.03-.01 26.37.02 52.75-.01 79.13-7.62.02-15.23-.08-22.85.05.03-26.38-.01-52.77.02-79.15zM479.33 17.287c10.14.03 20.27.02 30.41.02 9.01 19.51 17.54 39.24 26.79 58.63-.33-19.54-.15-39.09-.32-58.63 6.44.03 12.89-.12 19.34 0-.12 26.36-.1 52.72 0 79.07-9.91.07-19.82-.09-29.72.09-9.21-20.21-17.81-40.7-27.17-60.84-.09 20.25.15 40.51.1 60.76-6.49.03-12.97.01-19.46-.01.09-26.36.02-52.73.03-79.09zM571.85 17.307c7.37-.04 14.74.06 22.11-.07.03 11.56-.14 23.12.07 34.68 8.52-11.41 16.84-22.97 25.17-34.53 8.71-.15 17.42-.08 26.13-.07-8.9 11.74-18.27 23.12-27.17 34.86 9.81 14.74 19.63 29.46 29.44 44.2-9.12.03-18.25.02-27.37-.01-8.59-14.04-17.29-28.01-26.17-41.86-.26 13.97-.09 27.94-.09 41.91-7.37-.04-14.73-.01-22.1-.04-.12-26.35-.07-52.71-.02-79.07z" opacity="1"/>
  </g>
  <path d="M22.67 34.097c7.14-2.45 15.22 1.18 19.35 7.22 9.96 14.02 19.82 28.1 29.79 42.11 2.46 3.52 5.48 6.93 9.65 8.38 3.82 1.64 8.03.87 12.05 1.34-1.16 3.46-4.19 5.66-6.62 8.19-3.63 3.37-6.82 7.2-10.65 10.37-5.25 4.34-13.22 5.01-19.08 1.51-2.97-1.63-5.23-4.23-7.14-6.98-9.93-14.09-19.93-28.13-29.84-42.23-2.2-3.14-5.29-5.69-8.88-7.06-3.59-1.34-7.48-.97-11.23-1.06-.02-.55-.05-1.65-.07-2.2 4.46-4.61 9.1-9.05 13.56-13.67 2.53-2.63 5.52-4.97 9.11-5.92z" opacity="1" fill="#ee4035"/>
</svg>
