<svg viewBox="0 0 303 299" fill="none" xmlns="http://www.w3.org/2000/svg">
<g id="dearlucy">
<g id="square-bg">
<path id="Vector" d="M295 0H8C3.58172 0 0 3.58172 0 8V291C0 295.418 3.58172 299 8 299H295C299.418 299 303 295.418 303 291V8C303 3.58172 299.418 0 295 0Z" fill="#2D1525"/>
</g>
<g id="text">
<path id="Vector_2" d="M183.191 223.41C175.448 222.948 167.933 219.004 162.774 212.694C159.104 208.204 156.49 202.449 155.574 196.842C155.185 194.455 155.06 190.417 155.308 188.172C156.099 180.981 159.175 174.093 163.886 168.96C168.506 163.924 174.535 160.646 181.043 159.63C182.877 159.343 187.497 159.374 189.408 159.685C192.21 160.141 195.335 161.167 197.8 162.441C198.782 162.948 200.299 163.854 200.299 163.933C200.299 163.978 199.462 165.314 198.44 166.903C197.417 168.492 196.567 169.833 196.551 169.883C196.535 169.933 196.148 169.754 195.691 169.485C193.442 168.159 190.593 167.135 188.001 166.721C186.679 166.509 183.695 166.48 182.366 166.665C174.263 167.794 167.293 173.582 163.981 181.933C162.736 185.072 162.206 187.554 162.112 190.686C162.004 194.313 162.463 197.048 163.763 200.514C165.093 204.062 166.96 207.005 169.517 209.586C173.852 213.962 179.318 216.336 185.061 216.336C188.453 216.336 191.815 215.486 194.946 213.837L196.501 213.018L196.661 213.242C196.749 213.365 197.59 214.694 198.531 216.195C200.165 218.804 200.232 218.931 200.049 219.072C199.687 219.352 196.991 220.741 195.928 221.197C193.665 222.166 191.483 222.805 189.238 223.157C188.299 223.304 185.287 223.533 184.718 223.501C184.584 223.492 183.897 223.452 183.192 223.41L183.191 223.41ZM116.318 223.254C116.183 223.23 115.676 223.16 115.191 223.098C110.964 222.561 106.578 220.648 103.589 218.037C100.434 215.282 98.3428 211.51 97.4698 206.999C96.8383 203.736 96.8795 205.411 96.844 181.58L96.8117 159.906H103.677V181.139C103.677 204.183 103.66 203.408 104.211 205.821C104.835 208.551 105.781 210.344 107.521 212.089C109.569 214.144 112.279 215.403 115.926 215.994C117.289 216.214 120.765 216.239 122.198 216.039C125.982 215.509 128.747 214.2 130.924 211.907C133.277 209.43 134.7 205.988 135.033 201.972C135.094 201.236 135.132 193.099 135.132 180.349L135.133 159.906H141.899L141.868 181.529C141.835 205.054 141.872 203.465 141.303 206.23C140.806 208.65 139.62 211.587 138.301 213.669C134.935 218.979 130.013 222.096 123.472 223.061C122.404 223.219 116.95 223.366 116.318 223.254L116.318 223.254ZM43.9988 191.404V159.905H50.8584V215.822H86.2339V222.902H43.9984L43.9988 191.404ZM230.388 213.001V203.716L221.407 184.607C216.468 174.097 211.84 164.239 211.122 162.7L209.818 159.903L217.387 159.957L225.48 177.18C229.932 186.653 233.618 194.405 233.671 194.405C233.742 194.406 249.733 160.511 249.912 159.981C249.927 159.938 251.646 159.915 253.734 159.93L257.529 159.957L237.153 203.767L237.15 222.286H230.389V213.001L230.388 213.001ZM212.553 109.268V77.9179L223.994 77.957C236.295 77.999 236.089 77.9907 238.767 78.5511C243.55 79.5521 247.702 81.8221 250.644 85.0436C253.647 88.332 255.276 91.8757 255.933 96.55C256.181 98.311 256.179 103.964 255.929 105.887C255.026 112.857 252.262 117.7 247.526 120.611C247.047 120.905 246.655 121.158 246.655 121.174C246.655 121.189 249.434 125.549 252.829 130.862C256.224 136.176 259.003 140.545 259.003 140.57C259.003 140.596 257.15 140.617 254.885 140.617H250.767L245.467 132.256C240.798 124.89 240.142 123.901 239.957 123.947C238.475 124.316 238.018 124.334 228.6 124.375L219.315 124.416V140.617H212.554V109.267L212.553 109.268ZM236.905 117.22C243.587 116.652 247.494 113.26 248.844 106.854C249.229 105.031 249.317 103.94 249.312 101.098C249.303 97.064 248.952 95.1376 247.782 92.7028C247.238 91.5718 246.715 90.812 245.784 89.8005C243.962 87.8213 241.771 86.5631 238.776 85.7751C236.337 85.1335 235.933 85.1103 227.194 85.1103H219.314V101.15C219.314 109.972 219.344 117.221 219.38 117.259C219.488 117.373 235.531 117.338 236.905 117.221L236.905 117.22ZM44.0055 108.967V77.4032L53.1434 77.4427C63.0607 77.4855 62.8719 77.4757 65.76 78.0952C69.8005 78.9619 73.9117 80.8909 77.11 83.4209C82.5467 87.7208 86.474 94.3632 87.845 101.577C88.278 103.855 88.4048 105.161 88.4642 107.951C88.5266 110.885 88.4393 112.32 88.0529 114.716C87.2957 119.412 85.8111 123.517 83.6339 126.935C80.9035 131.222 77.645 134.228 72.9653 136.779C70.0969 138.342 67.3391 139.303 64.0431 139.888C61.091 140.412 60.514 140.44 52.0165 140.486L44.0055 140.529L44.0055 108.967ZM60.9588 133.223C67.6683 132.571 73.4255 129.318 77.1322 124.085C79.3678 120.928 80.7754 117.345 81.4078 113.202C81.6333 111.725 81.6635 106.527 81.4551 105.066C81.0268 102.066 80.289 99.5582 79.1246 97.1443C75.8598 90.376 70.0093 86.0491 62.4102 84.7826C61.2355 84.5869 60.5975 84.561 55.9858 84.5213L50.8656 84.4774V133.332L55.3488 133.331C57.8146 133.331 60.3392 133.282 60.9589 133.222L60.9588 133.223ZM99.6666 108.965V77.4149H140.138V84.4943H106.525V105.63H132.298V112.709H106.525V133.434H140.138V140.513H99.6666V108.965ZM150.9 139.1C163.513 107.075 176.069 75.4081 176.117 75.5C176.163 75.5868 201.417 139.515 201.749 140.386C201.788 140.49 201.005 140.51 197.894 140.489L193.991 140.462L191.179 133.4C189.633 129.516 188.353 126.326 188.335 126.311C188.317 126.296 182.782 126.305 176.036 126.332L163.77 126.382L163.711 126.625C163.651 126.877 161.725 131.699 159.444 137.307L158.14 140.514H150.343L150.9 139.1ZM185.51 118.737C185.51 118.569 176.264 94.0378 176.2 94.0367C176.137 94.0356 166.891 118.57 166.891 118.739C166.891 118.838 168.905 118.865 176.2 118.865C183.582 118.865 185.51 118.839 185.51 118.737V118.737Z" fill="white"/>
</g>
</g>
</svg>
