<svg width="270" height="90" viewBox="0 0 270 90" fill="none" xmlns="http://www.w3.org/2000/svg">
<g id="isku">
<path id="Vector" d="M143.516 88.2443C139.415 86.4394 139.479 87.1366 139.479 43.8969V3.93899L141.329 1.97045C143.607 -0.453724 147.598 -0.651227 150.136 1.53461L151.915 3.0673L152.124 43.57L152.332 84.0727L150.616 86.117C148.659 88.4485 145.875 89.2835 143.516 88.2458L143.516 88.2443ZM190.58 88.0015C189.46 87.4602 181.751 79.2577 173.448 69.7741L158.353 52.531L158.356 43.7088L158.359 34.8871L167.916 24.06C187.345 2.04725 189.421 0 192.307 0C197.139 0 200.057 4.27167 198.375 8.88317C197.985 9.95228 191.052 18.207 182.969 27.2271L168.272 43.6271L183.148 60.5097C191.33 69.7953 198.419 78.1806 198.9 79.144C200.213 81.7728 199.964 83.8945 198.079 86.1393C195.993 88.6235 193.267 89.3 190.578 88.0005L190.58 88.0015ZM228.295 87.4833C220.195 84.7268 214.1 79.0557 210.556 70.9775L208.445 66.1656L208.231 34.7664L208.018 3.36718L210.029 1.68419C212.582 -0.453021 215.604 -0.460782 218.141 1.66302L220.127 3.32522V30.4955C220.127 46.798 220.45 59.269 220.935 61.6744C222.144 67.6734 225.449 71.9828 230.754 74.4773L235.202 76.569V82.7954C235.202 89.9467 235.313 89.8711 228.295 87.4832L228.295 87.4833ZM241.851 82.8133L242.093 76.4379L246.192 74.6303C248.648 73.5469 251.202 71.6499 252.566 69.8952C256.759 64.5015 257.06 61.9103 257.06 31.1912V3.3251L259.046 1.6629C261.827 -0.664961 265.403 -0.496543 267.669 2.06916L269.497 4.13765L269.725 29.5374C269.979 57.8993 269.398 65.2274 266.367 71.8143C262.577 80.049 253.117 87.5052 244.939 88.7027L241.609 89.1903L241.851 82.8133ZM1.88852 86.2515C0.870976 85.1688 0.038463 83.3939 0.038463 82.3072C0.038463 76.3994 2.40131 75.3882 16.2063 75.3882H27.1726V12.8338H15.5914C5.01623 12.8338 3.83779 12.6896 2.02411 11.1716C-0.464344 9.08886 -0.698744 4.79585 1.5456 2.40795C2.971 0.891222 4.05803 0.803923 21.5194 0.803923H39.9857V75.3912H50.4256C61.3232 75.3912 65.1428 76.1667 66.3821 78.6309C67.6449 81.1417 67.1984 84.2025 65.2699 86.2547L63.4198 88.2233H3.73733L1.88852 86.2515ZM76.5179 86.397C73.8612 83.9654 73.6604 80.1034 76.0579 77.5491C77.6284 75.8762 78.5004 75.7694 93.7076 75.3882C106.943 75.0564 110.116 74.7482 112.082 73.6031C115.539 71.5901 117.62 67.5498 117.615 62.8627C117.606 56.4131 113.703 51.8842 107.268 50.8572L104.053 50.3443V37.4736L108.346 38.0105C118.034 39.2221 126.657 46.0613 129.342 54.6636C132.226 63.9007 129.351 75.337 122.603 81.4841C116.626 86.9275 113.19 87.7433 94.9215 88.0532L78.63 88.33L76.5179 86.397ZM87.336 48.615C81.0617 45.8691 77.3552 42.3836 74.7023 36.7348C72.7307 32.5366 72.3961 30.9308 72.3961 25.6646C72.3961 15.3312 76.5573 8.4148 85.9634 3.11494C89.2116 1.28461 90.1001 1.19291 106.952 0.949186C126.106 0.67214 126.685 0.792756 127.743 5.27978C128.351 7.85345 126.342 11.897 124.201 12.4124C123.276 12.6351 115.879 12.9109 107.764 13.0255C93.4902 13.227 92.9197 13.298 90.3109 15.2021C88.8276 16.2847 87.0338 18.2153 86.3248 19.4924C84.5239 22.7363 84.6211 29.2507 86.5109 31.966C88.7555 35.191 92.6823 37.6949 95.4962 37.6949H98.0228V50.5269L94.8195 50.5087C93.0576 50.4995 89.69 49.6467 87.3363 48.6166L87.336 48.615ZM46.0165 6.81526V0.800472H55.0611C63.1008 0.800472 64.2734 0.978731 65.6132 2.4045C67.7085 4.63391 67.5546 8.43173 65.2706 10.862C63.52 12.7247 62.9528 12.8305 54.7185 12.8305H46.0163L46.0165 6.81526Z" fill="white"/>
<rect x="0" y="0" width="270" height="90" fill="#C4C4C4" opacity="0"/>
</g>
</svg>
