<svg width="295" height="295" viewBox="0 0 295 295" fill="none" xmlns="http://www.w3.org/2000/svg">
<g id="MetsLogo">
<circle id="BG Orange" cx="147.83" cy="147.705" r="146.878" fill="#FF8A00"/>
<path id="Inner White BG" d="M287.608 147.904C287.608 224.772 225.294 287.086 148.426 287.086C71.5583 287.086 9.24463 224.772 9.24463 147.904C9.24463 71.0361 71.5583 8.72237 148.426 8.72237C225.294 8.72237 287.608 71.0361 287.608 147.904Z" fill="white"/>
<path id="Vector 1" d="M12.5646 178.734C6.48499 149.667 9.40133 133.45 12.3575 118.314L63.899 118.114C65.6827 115.249 69.5383 108.729 70.6909 105.559C72.1316 101.597 72.1316 96.1429 72.0802 93.1586C72.039 90.7711 73.4694 89.4882 74.1898 89.1452C80.3642 84.7716 82.4739 81.53 84.9951 78.7C87.5163 75.87 90.0376 69.1296 90.655 67.9461C91.2725 66.7627 91.7356 66.2996 93.6908 65.7336C95.6461 65.1676 104.136 61.6173 106.914 59.9708C109.693 58.3242 115.559 53.0245 116.434 51.6352C117.133 50.5238 118.989 50.3832 119.829 50.4518C122.968 50.5718 130.47 50.5856 135.369 49.68C141.492 48.548 144.63 46.4384 146.534 45.4608C148.057 44.6787 149.707 45.1349 150.342 45.4608C152.794 46.7643 158.862 49.5153 163.514 50.0916C169.328 50.812 173.702 50.1945 176.172 50.0916C178.147 50.0093 179.465 50.8463 179.876 51.2751C182.123 53.4704 187.419 58.3551 190.63 60.331C194.643 62.8008 201.744 65.322 203.494 65.7336C204.893 66.0629 205.723 67.14 205.963 67.6374C207.078 70.2444 210.049 76.4052 213.013 80.1922C216.717 84.926 220.988 87.1899 222.892 88.9394C224.415 90.3389 224.761 92.7127 224.744 93.7246C224.796 95.8685 225.156 101.196 226.185 105.353C227.214 109.511 231.817 115.821 233.99 118.457H284.509C289.63 142.935 287.489 162.757 284.166 178.747H185.566V140.83C184.851 128.162 176.371 102.949 148.175 103.439C119.979 103.93 111.908 128.571 111.398 140.83V178.734H12.5646Z" fill="#003FCC"/>
<path id="Vector 9" d="M74.4051 179.967V130.105C76.9287 107.219 95.1855 61.4982 148.024 61.707C214.072 61.9681 222.165 123.578 222.165 130.105C222.165 135.326 222.165 165.522 222.165 179.967" stroke="url(#paint0_linear_5_77)" stroke-width="10"/>
<g id="ball">
<g id="Ball" filter="url(#filter0_d_5_77)">
<circle cx="148.426" cy="139.898" r="36.9302" fill="url(#paint1_radial_5_77)" shape-rendering="crispEdges"/>
</g>
<g id="Bottom Laces" filter="url(#filter1_d_5_77)">
<path d="M115.423 150.802L114.952 153.213C114.882 153.575 114.396 153.65 114.219 153.326C114.178 153.251 114.163 153.164 114.175 153.078L114.441 151.316C114.51 150.863 114.421 150.4 114.188 150.005L112.823 147.681C112.768 147.587 112.756 147.474 112.791 147.37C112.889 147.075 113.283 147.019 113.46 147.275L115.22 149.83C115.416 150.114 115.489 150.464 115.423 150.802Z" fill="#DE111A"/>
<path d="M117.04 148.463L115.204 145.83C115.026 145.575 114.683 145.498 114.413 145.652C114.113 145.823 114.019 146.21 114.206 146.5L115.879 149.096C116.126 149.478 116.235 149.933 116.188 150.385L115.879 153.373C115.847 153.678 116.086 153.944 116.393 153.944C116.653 153.944 116.873 153.751 116.906 153.494L117.383 149.867C117.447 149.373 117.325 148.872 117.04 148.463Z" fill="#DE111A"/>
<path d="M119.389 147.46L117.747 144.71C117.622 144.502 117.368 144.412 117.141 144.496C116.856 144.601 116.728 144.933 116.869 145.202L118.305 147.937C118.532 148.37 118.593 148.872 118.476 149.347L117.803 152.069C117.714 152.431 117.979 152.783 118.351 152.798C118.64 152.81 118.895 152.609 118.951 152.324L119.634 148.874C119.73 148.389 119.643 147.885 119.389 147.46Z" fill="#DE111A"/>
<path d="M122.77 146.369L120.749 143.505C120.609 143.307 120.363 143.214 120.127 143.271C119.724 143.368 119.543 143.837 119.775 144.18L121.455 146.656C121.846 147.231 121.909 147.968 121.623 148.602L120.344 151.434C120.196 151.762 120.436 152.133 120.796 152.133C120.985 152.133 121.158 152.025 121.241 151.855L122.933 148.402C123.254 147.745 123.192 146.966 122.77 146.369Z" fill="#DE111A"/>
<path d="M126.092 146.241L124.479 142.98C124.362 142.744 124.114 142.602 123.852 142.621C123.399 142.653 123.119 143.128 123.309 143.54L124.605 146.342C124.867 146.907 124.849 147.563 124.559 148.114L123.142 150.799C122.917 151.226 123.196 151.745 123.677 151.793C123.956 151.821 124.223 151.675 124.35 151.425L126.08 148.036C126.368 147.473 126.372 146.807 126.092 146.241Z" fill="#DE111A"/>
<path d="M129.383 147.116L128.598 143.551C128.536 143.267 128.305 143.05 128.017 143.005C127.509 142.925 127.088 143.4 127.229 143.895L128.031 146.734C128.2 147.331 128.083 147.971 127.714 148.469L126.002 150.781C125.709 151.175 125.937 151.739 126.422 151.82C126.672 151.862 126.923 151.756 127.068 151.549L129.068 148.693C129.389 148.234 129.503 147.662 129.383 147.116Z" fill="#DE111A"/>
<path d="M132.859 148.192L132.466 144.187C132.433 143.858 132.169 143.601 131.84 143.577C131.421 143.547 131.076 143.901 131.117 144.318L131.445 147.701C131.499 148.249 131.323 148.796 130.96 149.211L129 151.45C128.723 151.767 128.829 152.26 129.211 152.435C129.456 152.547 129.744 152.491 129.929 152.295L132.323 149.761C132.72 149.34 132.916 148.768 132.859 148.192Z" fill="#DE111A"/>
<path d="M136.307 150.01L136.457 145.613C136.466 145.352 136.32 145.111 136.085 144.997C135.65 144.788 135.145 145.102 135.141 145.585L135.109 149.111C135.104 149.693 134.845 150.245 134.4 150.621L132.088 152.573C131.72 152.883 131.772 153.463 132.188 153.703C132.439 153.848 132.753 153.821 132.977 153.637L135.582 151.483C136.023 151.118 136.287 150.582 136.307 150.01Z" fill="#DE111A"/>
<path d="M139.76 151.48L139.797 147.081C139.798 146.877 139.688 146.689 139.508 146.591C139.147 146.394 138.705 146.646 138.691 147.057L138.563 150.626C138.54 151.265 138.213 151.855 137.683 152.213L135.022 154.007C134.626 154.274 134.641 154.862 135.051 155.108C135.262 155.234 135.526 155.231 135.734 155.1L138.825 153.156C139.402 152.793 139.754 152.161 139.76 151.48Z" fill="#DE111A"/>
<path d="M142.714 153.483L143.004 149.317C143.02 149.092 142.91 148.878 142.719 148.758C142.329 148.514 141.819 148.776 141.789 149.235L141.582 152.465C141.539 153.143 141.154 153.752 140.561 154.083L137.641 155.712C137.247 155.932 137.166 156.464 137.478 156.791C137.693 157.017 138.032 157.071 138.306 156.922L141.67 155.103C142.273 154.777 142.667 154.166 142.714 153.483Z" fill="#DE111A"/>
<path d="M145.713 155.717L146.163 152.253C146.192 152.028 146.097 151.805 145.915 151.67C145.537 151.391 144.998 151.612 144.925 152.076L144.507 154.751C144.409 155.382 144.015 155.927 143.448 156.22L140.397 157.794C140.029 157.984 139.912 158.455 140.148 158.795C140.342 159.073 140.709 159.168 141.013 159.019L144.61 157.255C145.212 156.96 145.626 156.382 145.713 155.717Z" fill="#DE111A"/>
<path d="M148.937 158.238L149.354 154.522C149.377 154.316 149.287 154.114 149.118 153.993C148.772 153.746 148.287 153.95 148.221 154.371L147.758 157.355C147.648 158.061 147.171 158.654 146.505 158.913L143.495 160.082C143.04 160.258 142.91 160.841 143.247 161.194C143.441 161.396 143.738 161.461 143.998 161.356L147.695 159.87C148.378 159.596 148.855 158.969 148.937 158.238Z" fill="#DE111A"/>
<path d="M152.226 160.869L152.761 157.391C152.795 157.168 152.701 156.944 152.517 156.813C152.171 156.565 151.683 156.749 151.587 157.164L150.912 160.069C150.757 160.735 150.274 161.275 149.629 161.503L146.487 162.612C146.104 162.747 145.986 163.232 146.266 163.528C146.412 163.683 146.633 163.742 146.836 163.68L150.825 162.48C151.564 162.258 152.109 161.631 152.226 160.869Z" fill="#DE111A"/>
<path d="M155.52 162.796L155.989 159.446C156.024 159.198 155.901 158.954 155.681 158.834C155.327 158.641 154.887 158.844 154.803 159.238L154.206 162.076C154.072 162.715 153.634 163.248 153.033 163.504L149.684 164.93C149.244 165.117 149.167 165.707 149.543 166.001C149.721 166.141 149.961 166.173 150.17 166.086L154.307 164.366C154.961 164.094 155.422 163.497 155.52 162.796Z" fill="#DE111A"/>
<path d="M158.75 164.484L159.053 161.158C159.07 160.963 158.986 160.772 158.83 160.653C158.483 160.388 157.979 160.596 157.919 161.028L157.515 163.949C157.424 164.602 156.992 165.156 156.381 165.404L153.322 166.644C152.834 166.842 152.847 167.537 153.341 167.717C153.476 167.766 153.625 167.763 153.757 167.708L157.523 166.151C158.21 165.867 158.683 165.225 158.75 164.484Z" fill="#DE111A"/>
<path d="M162.239 165.624L162.302 162.802C162.308 162.563 162.175 162.342 161.961 162.235C161.567 162.038 161.1 162.303 161.067 162.742L160.883 165.187C160.828 165.918 160.377 166.561 159.708 166.861L156.995 168.078C156.44 168.327 156.441 169.116 156.997 169.363C157.2 169.453 157.433 169.442 157.627 169.334L161.217 167.324C161.834 166.978 162.223 166.331 162.239 165.624Z" fill="#DE111A"/>
<path d="M165.759 166.076L165.49 163.411C165.462 163.138 165.255 162.917 164.985 162.872C164.611 162.81 164.273 163.1 164.277 163.479L164.304 165.816C164.312 166.525 163.944 167.186 163.336 167.552L160.398 169.321C159.951 169.59 160.018 170.259 160.51 170.433C160.689 170.497 160.888 170.474 161.048 170.373L164.841 167.965C165.48 167.56 165.835 166.829 165.759 166.076Z" fill="#DE111A"/>
<path d="M168.53 166.106L168.01 163.631C167.968 163.43 167.797 163.283 167.592 163.272C167.313 163.256 167.086 163.496 167.117 163.774L167.402 166.336C167.462 166.876 167.236 167.409 166.806 167.741L164.462 169.552C164.049 169.872 164.275 170.534 164.798 170.534C164.93 170.534 165.058 170.486 165.157 170.399L167.885 168.026C168.432 167.55 168.679 166.815 168.53 166.106Z" fill="#DE111A"/>
<path d="M170.969 166.441L170.723 164.143C170.697 163.9 170.513 163.702 170.271 163.66C169.912 163.598 169.592 163.897 169.631 164.26L169.864 166.442C169.915 166.923 169.737 167.4 169.382 167.729L167.477 169.498C167.136 169.815 167.36 170.387 167.827 170.387C167.961 170.387 168.091 170.334 168.187 170.24L170.383 168.079C170.817 167.651 171.033 167.048 170.969 166.441Z" fill="#DE111A"/>
<path d="M173.065 166.336L173.153 164.504C173.165 164.243 172.957 164.025 172.696 164.025C172.446 164.025 172.242 164.225 172.238 164.475L172.206 166.493C172.2 166.855 172.05 167.201 171.789 167.453L169.961 169.217C169.742 169.429 169.892 169.8 170.197 169.8C170.286 169.8 170.373 169.764 170.436 169.701L172.482 167.655C172.834 167.303 173.042 166.833 173.065 166.336Z" fill="#DE111A"/>
</g>
<g id="Top Laces" filter="url(#filter2_d_5_77)">
<path d="M120.743 118.371L120.798 116.622C120.808 116.281 120.415 116.085 120.149 116.298C120.063 116.366 120.01 116.466 120 116.575L119.914 117.582C119.865 118.151 119.575 118.672 119.116 119.014L117.556 120.177C117.454 120.253 117.401 120.378 117.418 120.504C117.451 120.758 117.736 120.893 117.953 120.756L120.18 119.353C120.519 119.14 120.73 118.771 120.743 118.371Z" fill="#DE111A"/>
<path d="M121.564 120.963L119.379 122.322C119.175 122.449 118.912 122.43 118.727 122.276C118.441 122.039 118.463 121.593 118.771 121.385L120.586 120.156C121.051 119.841 121.362 119.346 121.444 118.791L121.719 116.915C121.766 116.599 122.08 116.396 122.387 116.484C122.634 116.555 122.794 116.794 122.766 117.05L122.496 119.486C122.428 120.095 122.085 120.64 121.564 120.963Z" fill="#DE111A"/>
<path d="M123.643 122.417L121.668 123.864C121.51 123.98 121.298 123.988 121.132 123.885C120.855 123.712 120.828 123.319 121.079 123.11L122.724 121.742C123.173 121.369 123.424 120.811 123.406 120.228L123.353 118.494C123.341 118.104 123.706 117.811 124.084 117.907C124.35 117.975 124.534 118.218 124.527 118.493L124.46 120.859C124.443 121.477 124.141 122.052 123.643 122.417Z" fill="#DE111A"/>
<path d="M126.558 124.264L124.34 125.625C124.179 125.724 123.978 125.732 123.809 125.648C123.428 125.458 123.399 124.926 123.758 124.696L125.549 123.548C126.16 123.157 126.451 122.418 126.271 121.715L125.751 119.681C125.659 119.323 125.991 119 126.347 119.102C126.504 119.147 126.628 119.27 126.674 119.427L127.431 121.994C127.687 122.861 127.329 123.791 126.558 124.264Z" fill="#DE111A"/>
<path d="M129.868 125.339L127.924 127.047C127.755 127.196 127.519 127.242 127.307 127.168C126.862 127.014 126.741 126.442 127.085 126.121L128.541 124.761C129.052 124.284 129.238 123.552 129.018 122.889L128.394 121.013C128.237 120.539 128.651 120.073 129.14 120.174C129.37 120.221 129.557 120.389 129.628 120.613L130.455 123.235C130.693 123.991 130.463 124.816 129.868 125.339Z" fill="#DE111A"/>
<path d="M133.416 125.647L132.132 127.706C131.983 127.946 131.705 128.073 131.426 128.028C130.909 127.945 130.663 127.345 130.972 126.922L132.081 125.403C132.455 124.892 132.504 124.212 132.208 123.651L131.23 121.8C130.999 121.363 131.364 120.848 131.854 120.923C132.048 120.953 132.216 121.076 132.303 121.252L133.512 123.705C133.818 124.325 133.782 125.06 133.416 125.647Z" fill="#DE111A"/>
<path d="M137.123 125.821L136.071 128.268C135.94 128.574 135.609 128.742 135.284 128.668C134.865 128.573 134.634 128.12 134.804 127.725L135.66 125.724C135.905 125.152 135.851 124.496 135.516 123.971L134.307 122.082C134.076 121.721 134.318 121.245 134.745 121.219C134.941 121.207 135.129 121.298 135.24 121.459L136.928 123.89C137.322 124.457 137.396 125.187 137.123 125.821Z" fill="#DE111A"/>
<path d="M140.977 125.379L140.283 128.28C140.215 128.562 139.972 128.769 139.683 128.791C139.221 128.827 138.864 128.393 138.986 127.947L139.602 125.7C139.773 125.078 139.621 124.411 139.198 123.923L137.589 122.068C137.279 121.71 137.488 121.151 137.958 121.085C138.157 121.057 138.356 121.13 138.489 121.281L140.53 123.589C140.962 124.077 141.129 124.745 140.977 125.379Z" fill="#DE111A"/>
<path d="M144.661 125.28L143.875 128.139C143.814 128.361 143.624 128.524 143.396 128.551C143.005 128.598 142.686 128.241 142.777 127.858L143.332 125.52C143.49 124.855 143.281 124.157 142.785 123.686L140.761 121.767C140.43 121.454 140.604 120.898 141.053 120.828C141.216 120.803 141.381 120.852 141.503 120.962L144.067 123.261C144.632 123.767 144.862 124.549 144.661 125.28Z" fill="#DE111A"/>
<path d="M148.03 124.566L147.501 127.327C147.453 127.581 147.252 127.778 146.997 127.821C146.569 127.895 146.2 127.516 146.284 127.089L146.696 125.02C146.84 124.295 146.572 123.55 146 123.082L143.662 121.17C143.33 120.898 143.405 120.371 143.801 120.203C143.994 120.121 144.216 120.152 144.38 120.283L147.314 122.628C147.894 123.091 148.17 123.838 148.03 124.566Z" fill="#DE111A"/>
<path d="M151.487 123.682L151.228 125.981C151.198 126.246 151.006 126.464 150.747 126.527C150.326 126.63 149.929 126.291 149.963 125.86L150.108 124.033C150.161 123.373 149.876 122.731 149.352 122.326L146.791 120.347C146.481 120.108 146.505 119.632 146.837 119.425C147.034 119.302 147.286 119.313 147.471 119.451L150.695 121.855C151.265 122.28 151.567 122.976 151.487 123.682Z" fill="#DE111A"/>
<path d="M155.188 122.702L154.852 125.177C154.82 125.418 154.641 125.613 154.405 125.667C154.021 125.755 153.663 125.445 153.694 125.052L153.859 123.007C153.919 122.27 153.567 121.561 152.945 121.162L150.321 119.48C149.945 119.239 149.993 118.675 150.404 118.502C150.574 118.429 150.769 118.447 150.924 118.548L154.302 120.76C154.947 121.182 155.292 121.938 155.188 122.702Z" fill="#DE111A"/>
<path d="M159.004 121.61L158.811 123.95C158.79 124.214 158.599 124.434 158.34 124.493C157.963 124.579 157.602 124.295 157.597 123.908L157.569 121.787C157.559 121.098 157.195 120.462 156.606 120.104L153.787 118.395C153.474 118.206 153.506 117.741 153.843 117.597C153.971 117.542 154.117 117.549 154.239 117.617L157.983 119.697C158.669 120.079 159.069 120.827 159.004 121.61Z" fill="#DE111A"/>
<path d="M162.649 121.084L162.428 123.295C162.399 123.581 162.176 123.809 161.89 123.843C161.522 123.887 161.199 123.597 161.204 123.226L161.23 121.21C161.238 120.538 160.909 119.907 160.353 119.53L157.465 117.568C157.104 117.323 157.197 116.769 157.618 116.655C157.76 116.617 157.912 116.642 158.034 116.723L161.771 119.223C162.385 119.634 162.722 120.349 162.649 121.084Z" fill="#DE111A"/>
<path d="M166.16 120.752L165.81 122.893C165.773 123.122 165.604 123.306 165.38 123.364C164.987 123.465 164.614 123.144 164.655 122.74L164.881 120.521C164.936 119.98 164.686 119.453 164.231 119.154L161.432 117.311C161.044 117.056 161.227 116.453 161.691 116.456C161.782 116.456 161.871 116.483 161.946 116.534L165.295 118.765C165.948 119.201 166.286 119.978 166.16 120.752Z" fill="#DE111A"/>
<path d="M169.791 120.905L169.369 122.557C169.302 122.818 169.078 123.009 168.81 123.033C168.391 123.07 168.053 122.698 168.129 122.285L168.444 120.574C168.556 119.961 168.302 119.338 167.792 118.98L165.373 117.282C164.924 116.966 165.127 116.26 165.676 116.232C165.819 116.225 165.961 116.271 166.072 116.363L169.121 118.863C169.722 119.356 169.983 120.152 169.791 120.905Z" fill="#DE111A"/>
<path d="M173.251 121.614L172.64 123.023C172.526 123.285 172.251 123.437 171.969 123.394C171.591 123.336 171.352 122.957 171.462 122.591L171.897 121.156C172.089 120.523 171.891 119.836 171.39 119.402L168.992 117.325C168.628 117.01 168.855 116.413 169.336 116.419C169.462 116.42 169.582 116.468 169.676 116.552L172.757 119.333C173.394 119.909 173.593 120.827 173.251 121.614Z" fill="#DE111A"/>
<path d="M175.901 122.374L175.146 123.62C175.041 123.793 174.837 123.878 174.64 123.83C174.357 123.762 174.206 123.454 174.325 123.188L175.062 121.549C175.259 121.11 175.173 120.596 174.844 120.246L173.051 118.338C172.725 117.991 173.064 117.434 173.523 117.566C173.612 117.591 173.692 117.643 173.752 117.714L175.72 120.048C176.273 120.704 176.346 121.64 175.901 122.374Z" fill="#DE111A"/>
<path d="M178.461 122.752L177.926 123.96C177.825 124.189 177.583 124.323 177.334 124.286C176.969 124.232 176.755 123.845 176.905 123.508L177.505 122.152C177.679 121.759 177.621 121.302 177.354 120.965L175.985 119.238C175.714 118.896 176.041 118.408 176.46 118.528C176.554 118.555 176.637 118.612 176.696 118.691L178.233 120.744C178.666 121.323 178.753 122.091 178.461 122.752Z" fill="#DE111A"/>
<path d="M180.635 123.164L180.374 124.345C180.316 124.607 180.049 124.766 179.792 124.692C179.549 124.622 179.406 124.371 179.471 124.126L179.836 122.744C179.917 122.437 179.852 122.11 179.659 121.857L178.319 120.099C178.145 119.872 178.362 119.554 178.637 119.633C178.7 119.651 178.756 119.69 178.795 119.743L180.36 121.869C180.634 122.241 180.734 122.713 180.635 123.164Z" fill="#DE111A"/>
</g>
</g>
<path id="half circle bottom" d="M147.96 287.254C64.509 287.254 23.4468 222.826 13.8205 184.09H282.899C280.793 196.052 252.676 287.254 147.96 287.254Z" fill="#003FCC"/>
<g id="Frame" clip-path="url(#clip0_5_77)">
<path id="Vector" d="M124.623 255.21H117.228V200.186C117.228 199.444 117.096 198.702 116.831 197.96C116.566 197.218 115.956 196.847 115.002 196.847C113.995 196.847 113.332 197.191 113.014 197.88C112.749 198.57 112.617 199.338 112.617 200.186V255.21H105.222V200.186C105.222 199.391 105.063 198.649 104.745 197.96C104.48 197.218 103.87 196.847 102.916 196.847C101.962 196.847 101.326 197.218 101.008 197.96C100.743 198.649 100.61 199.391 100.61 200.186V255.21H93.2153V200.186C93.2153 198.702 93.3743 197.244 93.6924 195.813C94.0634 194.382 94.62 193.11 95.3621 191.996C96.1573 190.883 97.1379 189.982 98.3041 189.293C99.5233 188.604 100.981 188.259 102.677 188.259C103.844 188.259 104.93 188.498 105.937 188.975C106.998 189.452 107.978 190.062 108.879 190.804C109.781 190.062 110.735 189.452 111.742 188.975C112.802 188.498 113.942 188.259 115.161 188.259C116.857 188.259 118.289 188.604 119.455 189.293C120.674 189.982 121.655 190.883 122.397 191.996C123.192 193.11 123.748 194.382 124.066 195.813C124.438 197.244 124.623 198.702 124.623 200.186V255.21ZM155.438 255.21H145.976C143.962 255.21 142.372 254.839 141.205 254.096C140.039 253.301 139.165 252.268 138.581 250.995C137.998 249.723 137.627 248.318 137.468 246.781C137.309 245.191 137.23 243.601 137.23 242.01H132.538L128.324 233.9H137.23V190.009H155.438V198.517H144.624V233.9H155.438V242.01H144.624V245.032C144.624 245.456 144.731 245.827 144.942 246.145C145.155 246.463 145.499 246.622 145.976 246.622H155.438V255.21ZM181.845 198.517H175.484V255.21H168.089V198.517H161.728V190.009H181.845V198.517ZM203.441 190.009C200.737 193.083 198.643 196.396 197.159 199.948C195.675 203.446 194.933 207.263 194.933 211.398C194.933 213.783 195.251 216.116 195.887 218.395C196.576 220.621 197.292 222.848 198.034 225.074C198.829 227.3 199.545 229.553 200.181 231.833C200.87 234.059 201.214 236.365 201.214 238.75C201.214 241.613 200.896 244.422 200.26 247.179C199.624 249.935 198.697 252.612 197.477 255.21H188.095C189.738 252.824 191.09 250.306 192.15 247.656C193.263 244.952 193.82 242.143 193.82 239.227C193.82 236.789 193.475 234.616 192.786 232.707C192.15 230.746 191.408 228.652 190.56 226.426C189.658 224.04 188.916 221.602 188.333 219.111C187.803 216.566 187.538 213.995 187.538 211.398C187.538 207.581 187.989 203.897 188.89 200.345C189.844 196.741 191.328 193.295 193.342 190.009H203.441Z" fill="#FF8A00"/>
</g>
<g id="Baseball Club Text">
<path id="path53977" d="M111.356 274.149C111.157 274.781 110.808 275.216 110.31 275.456C109.813 275.695 109.254 275.717 108.634 275.52L106.316 274.787L107.205 271.979L106.207 271.663L105.857 269.654L107.751 270.254L110.91 260.275C111.541 260.71 112.061 261.222 112.47 261.811C112.891 262.403 113.2 263.034 113.397 263.704C113.594 264.375 113.683 265.073 113.664 265.799C113.657 266.528 113.541 267.248 113.316 267.959C112.884 269.323 112.091 270.455 110.938 271.356C111.199 271.55 111.382 271.757 111.486 271.976C111.605 272.187 111.665 272.411 111.665 272.646C111.679 272.874 111.653 273.114 111.586 273.366C111.519 273.617 111.442 273.879 111.356 274.149ZM111.678 267.608C112.092 266.3 112.044 265.019 111.535 263.766L109.404 270.498C109.998 270.152 110.474 269.745 110.833 269.276C111.193 268.806 111.474 268.25 111.678 267.608V267.608ZM109.82 273.477L109.884 273.274C109.97 273.003 109.883 272.827 109.624 272.745L108.778 272.477L108.468 273.458L109.313 273.726C109.573 273.808 109.742 273.725 109.82 273.477Z" fill="white"/>
<path id="path53979" d="M118.227 278.144L116.628 277.739L117.35 274.884L116.163 274.584L115.441 277.439L113.841 277.034L114.564 274.179L113.549 273.922L113.082 271.937L115.008 272.425L116.762 265.494C116.852 265.138 116.975 264.797 117.131 264.471C117.301 264.136 117.507 263.852 117.749 263.621C118.005 263.381 118.292 263.209 118.611 263.107C118.941 263.007 119.312 263.01 119.725 263.114C120.138 263.219 120.459 263.398 120.687 263.651C120.919 263.892 121.085 264.178 121.184 264.509C121.286 264.827 121.327 265.173 121.306 265.546C121.288 265.907 121.235 266.26 121.148 266.604L118.227 278.144ZM117.794 273.13L119.548 266.199C119.575 266.096 119.596 265.986 119.614 265.868C119.634 265.739 119.636 265.611 119.619 265.485C119.603 265.359 119.563 265.251 119.5 265.162C119.451 265.064 119.358 264.998 119.221 264.963C119.083 264.928 118.964 264.941 118.863 265.001C118.777 265.052 118.697 265.13 118.622 265.233C118.558 265.339 118.505 265.453 118.462 265.576C118.421 265.688 118.388 265.796 118.362 265.899L116.607 272.83L117.794 273.13Z" fill="white"/>
<path id="path53981" d="M126.717 265.041C125.99 265.595 125.386 266.228 124.906 266.939C124.427 267.639 124.097 268.442 123.915 269.346C123.81 269.868 123.777 270.392 123.816 270.919C123.869 271.436 123.928 271.954 123.992 272.474C124.068 272.996 124.126 273.52 124.165 274.047C124.218 274.564 124.192 275.084 124.087 275.605C123.961 276.232 123.768 276.832 123.508 277.407C123.247 277.982 122.927 278.527 122.546 279.042L120.493 278.629C120.958 278.18 121.364 277.688 121.713 277.155C122.075 276.613 122.32 276.022 122.448 275.385C122.556 274.851 122.576 274.361 122.509 273.913C122.456 273.456 122.386 272.965 122.298 272.441C122.206 271.88 122.151 271.314 122.133 270.743C122.128 270.163 122.184 269.589 122.298 269.021C122.465 268.186 122.726 267.4 123.079 266.663C123.446 265.916 123.923 265.228 124.508 264.597L126.717 265.041Z" fill="white"/>
<path id="path53983" d="M131.024 280.459L128.937 280.143C128.493 280.076 128.154 279.941 127.922 279.738C127.691 279.523 127.533 279.266 127.446 278.966C127.36 278.666 127.325 278.344 127.342 277.999C127.36 277.643 127.395 277.29 127.448 276.939L126.414 276.782L125.755 274.852L127.719 275.15L129.186 265.467L133.203 266.076L132.919 267.952L130.533 267.591L129.351 275.397L131.736 275.758L131.465 277.547L129.08 277.186L128.979 277.852C128.965 277.946 128.976 278.031 129.012 278.109C129.048 278.186 129.119 278.233 129.224 278.248L131.311 278.565L131.024 280.459Z" fill="white"/>
<path id="path53985" d="M139.159 279.152C139.097 279.812 138.849 280.311 138.413 280.65C137.977 280.99 137.436 281.129 136.788 281.069L134.368 280.842L134.642 277.91L133.6 277.813L132.832 275.923L134.811 276.108L135.785 265.687C136.495 265.979 137.111 266.369 137.636 266.858C138.172 267.347 138.608 267.899 138.942 268.512C139.277 269.125 139.512 269.789 139.647 270.502C139.794 271.217 139.833 271.945 139.763 272.687C139.63 274.112 139.095 275.386 138.159 276.511C138.455 276.645 138.677 276.808 138.826 277.001C138.987 277.182 139.092 277.388 139.142 277.618C139.205 277.838 139.23 278.078 139.217 278.338C139.205 278.598 139.185 278.869 139.159 279.152V279.152ZM138.088 272.691C138.216 271.325 137.898 270.083 137.136 268.967L136.478 275.997C136.985 275.534 137.364 275.035 137.616 274.5C137.868 273.965 138.025 273.362 138.088 272.691ZM137.515 278.82L137.535 278.608C137.561 278.326 137.439 278.172 137.168 278.146L136.285 278.064L136.189 279.088L137.072 279.171C137.343 279.196 137.491 279.079 137.515 278.82V278.82Z" fill="white"/>
<path id="path53987" d="M146.719 281.602L145.071 281.545L145.172 278.602L143.949 278.559L143.847 281.503L142.198 281.446L142.3 278.502L141.254 278.466L140.377 276.625L142.363 276.694L142.61 269.549C142.623 269.182 142.671 268.823 142.754 268.471C142.849 268.107 142.99 267.787 143.178 267.509C143.377 267.22 143.621 266.992 143.911 266.824C144.213 266.657 144.577 266.581 145.002 266.596C145.428 266.611 145.779 266.717 146.056 266.916C146.334 267.103 146.556 267.348 146.723 267.649C146.89 267.939 147.003 268.269 147.062 268.637C147.12 268.995 147.143 269.35 147.131 269.705L146.719 281.602ZM145.235 276.793L145.482 269.648C145.486 269.542 145.484 269.429 145.476 269.31C145.469 269.18 145.444 269.055 145.4 268.935C145.357 268.815 145.295 268.718 145.215 268.645C145.147 268.559 145.042 268.514 144.9 268.509C144.758 268.505 144.645 268.542 144.559 268.622C144.486 268.69 144.423 268.783 144.372 268.899C144.332 269.016 144.305 269.14 144.288 269.269C144.272 269.387 144.263 269.499 144.259 269.606L144.012 276.751L145.235 276.793Z" fill="white"/>
<path id="path53989" d="M152.94 281.534L151.344 281.561C150.882 281.568 150.503 281.504 150.205 281.367C149.918 281.218 149.685 281.02 149.503 280.775C149.333 280.517 149.216 280.218 149.151 279.876C149.086 279.522 149.05 279.144 149.044 278.742L148.851 267.052L150.501 267.025L150.693 278.715C150.695 278.798 150.697 278.94 150.7 279.141C150.716 279.341 150.747 279.471 150.796 279.529C150.844 279.588 150.969 279.627 151.17 279.647C151.371 279.656 151.584 279.658 151.809 279.655C152.045 279.651 152.27 279.647 152.483 279.643C152.696 279.628 152.837 279.62 152.908 279.619L152.94 281.534Z" fill="white"/>
<path id="path53991" d="M158.796 281.22L157.202 281.315C156.742 281.343 156.359 281.295 156.056 281.171C155.763 281.034 155.521 280.847 155.329 280.61C155.148 280.36 155.018 280.066 154.938 279.727C154.858 279.376 154.806 279 154.782 278.599L154.081 266.929L155.728 266.83L156.429 278.5C156.434 278.583 156.442 278.725 156.454 278.925C156.478 279.125 156.515 279.253 156.566 279.309C156.617 279.366 156.743 279.4 156.945 279.411C157.147 279.411 157.36 279.404 157.584 279.391C157.82 279.376 158.045 279.363 158.257 279.35C158.469 279.326 158.61 279.311 158.681 279.307L158.796 281.22Z" fill="white"/>
<path id="path53993" d="M170.316 279.854L167.964 280.194C167.012 279.232 166.245 278.183 165.663 277.049C165.091 275.9 164.707 274.653 164.513 273.307C164.322 271.984 164.345 270.696 164.582 269.443C164.831 268.188 165.265 266.972 165.883 265.796L168.236 265.456C167.819 266.042 167.45 266.633 167.13 267.229C166.822 267.823 166.576 268.438 166.393 269.074C166.22 269.697 166.11 270.34 166.062 271.004C166.015 271.668 166.043 272.363 166.148 273.089C166.258 273.85 166.424 274.543 166.646 275.168C166.879 275.791 167.167 276.377 167.509 276.925C167.861 277.46 168.269 277.969 168.734 278.451C169.196 278.922 169.724 279.39 170.316 279.854V279.854Z" fill="white"/>
<path id="path53995" d="M176.169 278.761L174.601 279.063C174.148 279.15 173.763 279.152 173.446 279.069C173.138 278.971 172.874 278.817 172.653 278.607C172.441 278.383 172.274 278.108 172.151 277.782C172.026 277.445 171.925 277.079 171.849 276.684L169.639 265.204L171.259 264.892L173.469 276.372C173.485 276.453 173.512 276.593 173.55 276.79C173.599 276.985 173.653 277.108 173.71 277.157C173.768 277.206 173.898 277.223 174.1 277.208C174.299 277.182 174.51 277.148 174.73 277.105C174.963 277.06 175.183 277.018 175.392 276.978C175.599 276.926 175.737 276.893 175.807 276.88L176.169 278.761Z" fill="white"/>
<path id="path53997" d="M181.961 274.747C182.048 275.104 182.092 275.464 182.096 275.828C182.096 276.181 182.043 276.516 181.937 276.834C181.829 277.14 181.651 277.409 181.402 277.639C181.165 277.867 180.84 278.031 180.426 278.131C180.012 278.231 179.642 278.236 179.316 278.144C179.001 278.05 178.725 277.892 178.489 277.669C178.25 277.435 178.05 277.161 177.888 276.847C177.736 276.519 177.616 276.177 177.53 275.821L174.716 264.199L176.319 263.811L179.134 275.432C179.159 275.536 179.191 275.643 179.23 275.756C179.27 275.868 179.325 275.97 179.396 276.062C179.467 276.155 179.545 276.227 179.631 276.279C179.725 276.317 179.841 276.32 179.979 276.286C180.117 276.253 180.22 276.198 180.286 276.121C180.35 276.032 180.394 275.936 180.417 275.833C180.438 275.719 180.441 275.603 180.424 275.485C180.405 275.356 180.383 275.239 180.358 275.136L177.544 263.514L179.147 263.126L181.961 274.747Z" fill="white"/>
<path id="path53999" d="M189.686 272.98C189.877 273.615 189.834 274.171 189.558 274.649C189.283 275.128 188.833 275.461 188.21 275.648L185.883 276.35L185.034 273.53L184.031 273.832L182.609 272.37L184.512 271.797L181.492 261.775C182.259 261.779 182.977 261.908 183.647 262.163C184.328 262.415 184.939 262.762 185.48 263.204C186.021 263.647 186.488 264.173 186.882 264.783C187.287 265.39 187.597 266.05 187.812 266.763C188.225 268.134 188.209 269.516 187.765 270.91C188.09 270.923 188.357 270.991 188.567 271.113C188.785 271.22 188.96 271.371 189.093 271.566C189.233 271.746 189.347 271.958 189.433 272.204C189.52 272.45 189.604 272.709 189.686 272.98V272.98ZM186.262 267.397C185.866 266.084 185.105 265.053 183.978 264.306L186.015 271.066C186.31 270.446 186.473 269.841 186.505 269.251C186.537 268.661 186.456 268.043 186.262 267.397V267.397ZM188.038 273.292L187.976 273.088C187.894 272.816 187.723 272.719 187.463 272.798L186.613 273.054L186.91 274.039L187.76 273.783C188.02 273.705 188.113 273.541 188.038 273.292V273.292Z" fill="white"/>
</g>
<g id="Helsinki Text">
<path id="path39631" d="M118.405 45.21L115.582 46.2299L113.762 41.1914L111.546 41.9921L113.366 47.0306L110.544 48.0505L108.723 43.012L106.932 43.6591L104.205 41.1444L107.604 39.9161L101.55 23.1615L104.373 22.1415L110.427 38.8961L112.643 38.0955L106.589 21.3409L109.412 20.3209L118.405 45.21Z" fill="#003FCC"/>
<path id="path39633" d="M130.662 42.2648L126.917 43.1145C126.12 43.2954 125.457 43.2914 124.929 43.1024C124.396 42.8924 123.957 42.5618 123.612 42.1106C123.267 41.6594 122.994 41.1367 122.793 40.5425C122.587 39.9273 122.412 39.3049 122.27 38.6755L120.413 39.0968L118.016 36.265L121.541 35.4652L117.599 18.0919L124.807 16.4567L125.571 19.8243L121.291 20.7955L124.468 34.8011L128.749 33.8299L129.477 37.0402L125.197 38.0114L125.468 39.2074C125.506 39.3752 125.581 39.5126 125.694 39.6194C125.806 39.7263 125.957 39.7583 126.146 39.7154L129.891 38.8657L130.662 42.2648Z" fill="#003FCC"/>
<path id="path39635" d="M140.611 40.9937L137.727 41.3401C136.894 41.4402 136.195 41.3941 135.63 41.2019C135.084 40.9858 134.624 40.6726 134.25 40.2625C133.894 39.8285 133.626 39.3081 133.444 38.7014C133.261 38.0734 133.125 37.3962 133.038 36.6699L130.502 15.5536L133.482 15.1957L136.018 36.312C136.036 36.4616 136.067 36.7179 136.11 37.0811C136.175 37.4416 136.257 37.6702 136.355 37.7668C136.453 37.8633 136.687 37.9111 137.055 37.9102C137.421 37.888 137.806 37.8525 138.212 37.8037C138.64 37.7524 139.045 37.7037 139.43 37.6575C139.812 37.5899 140.067 37.5485 140.195 37.5331L140.611 40.9937Z" fill="#003FCC"/>
<path id="path39637" d="M148.366 14.1907C147.311 15.4744 146.507 16.8467 145.953 18.3075C145.398 19.7468 145.148 21.3051 145.204 22.9824C145.236 23.95 145.397 24.8919 145.686 25.8079C145.995 26.7018 146.316 27.5953 146.647 28.4884C147 29.3808 147.32 30.285 147.609 31.2011C147.919 32.0949 148.09 33.0257 148.122 33.9933C148.161 35.1545 148.07 36.2985 147.849 37.4253C147.628 38.5521 147.288 39.6505 146.828 40.7207L143.022 40.8475C143.657 39.8576 144.171 38.8179 144.565 37.7284C144.98 36.6167 145.168 35.4695 145.129 34.2868C145.096 33.2976 144.927 32.4206 144.621 31.6558C144.337 30.8688 144.007 30.0294 143.633 29.1377C143.235 28.1823 142.901 27.2031 142.631 26.2003C142.382 25.1753 142.24 24.136 142.204 23.0823C142.153 21.5341 142.286 20.0335 142.603 18.5805C142.942 17.1054 143.497 15.6876 144.27 14.3272L148.366 14.1907Z" fill="#003FCC"/>
<path id="path39639" d="M154.924 40.8215L151.924 40.7087L152.919 14.2634L155.918 14.3762L154.924 40.8215Z" fill="#003FCC"/>
<path id="path39641" d="M166.25 41.9487L163.271 41.5879L164.667 30.0538L163.061 25.6006L161.156 41.3319L158.177 40.9712L161.482 13.6737L162.106 13.6193L165.463 23.4858L166.452 15.3158L169.431 15.6765L166.25 41.9487Z" fill="#003FCC"/>
<path id="path39643" d="M179.683 44.9489L176.767 44.2398L177.804 39.9749C177.86 39.745 177.869 39.5257 177.831 39.3172C177.819 39.0929 177.667 38.9452 177.374 38.874L175.524 38.4242L174.258 43.6299L171.342 42.9208L172.607 37.7151L170.757 37.2653L169.873 33.6625L173.385 34.5164L177.594 17.2059L180.51 17.915L176.408 34.7865C177.583 34.0535 178.495 33.1239 179.145 31.9978C179.822 30.8558 180.32 29.6263 180.64 28.3091L183.019 18.5249L185.935 19.234L183.557 29.0182C183.231 30.3562 182.757 31.6691 182.134 32.9569C181.537 34.2288 180.688 35.3067 179.587 36.1905C180.374 36.7803 180.804 37.4716 180.877 38.2643C180.976 39.0412 180.918 39.8687 180.705 40.7467L179.683 44.9489Z" fill="#003FCC"/>
<path id="path39645" d="M185.467 46.9804L182.63 46.0002L191.272 20.9871L194.109 21.9673L185.467 46.9804Z" fill="#003FCC"/>
</g>
</g>
<defs>
<filter id="filter0_d_5_77" x="81.496" y="74.9677" width="133.86" height="133.86" filterUnits="userSpaceOnUse" color-interpolation-filters="sRGB">
<feFlood flood-opacity="0" result="BackgroundImageFix"/>
<feColorMatrix in="SourceAlpha" type="matrix" values="0 0 0 0 0 0 0 0 0 0 0 0 0 0 0 0 0 0 127 0" result="hardAlpha"/>
<feMorphology radius="15" operator="dilate" in="SourceAlpha" result="effect1_dropShadow_5_77"/>
<feOffset dy="2"/>
<feGaussianBlur stdDeviation="7.5"/>
<feComposite in2="hardAlpha" operator="out"/>
<feColorMatrix type="matrix" values="0 0 0 0 0 0 0 0 0 0 0 0 0 0 0 0 0 0 0.05 0"/>
<feBlend mode="normal" in2="BackgroundImageFix" result="effect1_dropShadow_5_77"/>
<feBlend mode="normal" in="SourceGraphic" in2="effect1_dropShadow_5_77" result="shape"/>
</filter>
<filter id="filter1_d_5_77" x="108.771" y="139.619" width="68.3818" height="35.9145" filterUnits="userSpaceOnUse" color-interpolation-filters="sRGB">
<feFlood flood-opacity="0" result="BackgroundImageFix"/>
<feColorMatrix in="SourceAlpha" type="matrix" values="0 0 0 0 0 0 0 0 0 0 0 0 0 0 0 0 0 0 127 0" result="hardAlpha"/>
<feOffset dy="1"/>
<feGaussianBlur stdDeviation="2"/>
<feComposite in2="hardAlpha" operator="out"/>
<feColorMatrix type="matrix" values="0 0 0 0 0 0 0 0 0 0 0 0 0 0 0 0 0 0 0.25 0"/>
<feBlend mode="normal" in2="BackgroundImageFix" result="effect1_dropShadow_5_77"/>
<feBlend mode="normal" in="SourceGraphic" in2="effect1_dropShadow_5_77" result="shape"/>
</filter>
<filter id="filter2_d_5_77" x="113.415" y="113.209" width="71.2574" height="20.5841" filterUnits="userSpaceOnUse" color-interpolation-filters="sRGB">
<feFlood flood-opacity="0" result="BackgroundImageFix"/>
<feColorMatrix in="SourceAlpha" type="matrix" values="0 0 0 0 0 0 0 0 0 0 0 0 0 0 0 0 0 0 127 0" result="hardAlpha"/>
<feOffset dy="1"/>
<feGaussianBlur stdDeviation="2"/>
<feComposite in2="hardAlpha" operator="out"/>
<feColorMatrix type="matrix" values="0 0 0 0 0 0 0 0 0 0 0 0 0 0 0 0 0 0 0.25 0"/>
<feBlend mode="normal" in2="BackgroundImageFix" result="effect1_dropShadow_5_77"/>
<feBlend mode="normal" in="SourceGraphic" in2="effect1_dropShadow_5_77" result="shape"/>
</filter>
<linearGradient id="paint0_linear_5_77" x1="148.285" y1="55.1805" x2="148.285" y2="179.967" gradientUnits="userSpaceOnUse">
<stop stop-color="white"/>
<stop offset="1" stop-color="white" stop-opacity="0"/>
</linearGradient>
<radialGradient id="paint1_radial_5_77" cx="0" cy="0" r="1" gradientUnits="userSpaceOnUse" gradientTransform="translate(148.426 139.898) rotate(90) scale(36.9302)">
<stop offset="0.00520833" stop-color="#F7F7F7" stop-opacity="0"/>
<stop offset="0.880208" stop-color="#C7C7C7"/>
</radialGradient>
<clipPath id="clip0_5_77">
<rect width="110.325" height="67.1889" fill="white" transform="translate(93.1973 188.117)"/>
</clipPath>
</defs>
</svg>
