<?xml version="1.0" encoding="UTF-8" standalone="no"?>
<!-- Created with Inkscape (http://www.inkscape.org/) -->

<svg
   width="22.233679mm"
   height="5.9806256mm"
   viewBox="0 0 22.233679 5.9806256"
   version="1.1"
   id="svg5"
   sodipodi:docname="mets_name.svg"
   inkscape:version="1.1.2 (b8e25be8, 2022-02-05)"
   xmlns:inkscape="http://www.inkscape.org/namespaces/inkscape"
   xmlns:sodipodi="http://sodipodi.sourceforge.net/DTD/sodipodi-0.dtd"
   xmlns="http://www.w3.org/2000/svg"
   xmlns:svg="http://www.w3.org/2000/svg">
  <sodipodi:namedview
     id="namedview7"
     pagecolor="#ffffff"
     bordercolor="#666666"
     borderopacity="1.0"
     inkscape:pageshadow="2"
     inkscape:pageopacity="0.0"
     inkscape:pagecheckerboard="0"
     inkscape:document-units="mm"
     showgrid="false"
     inkscape:zoom="2.6154306"
     inkscape:cx="25.617197"
     inkscape:cy="0.19117311"
     inkscape:window-width="2031"
     inkscape:window-height="1187"
     inkscape:window-x="87"
     inkscape:window-y="28"
     inkscape:window-maximized="0"
     inkscape:current-layer="layer1" />
  <defs
     id="defs2" />
  <g
     inkscape:label="Layer 1 copy"
     inkscape:groupmode="layer"
     id="g2806"
     style="display:inline"
     transform="translate(8.9721477,-187.22839)">
    <g
       aria-label="Helsinki Mets"
       transform="scale(1.0006121,0.99938827)"
       id="text2804"
       style="font-size:6.46402px;line-height:1.25;font-family:Astrud;-inkscape-font-specification:Astrud;fill:#fa650f;stroke:#ff6600;stroke-width:0.50249;paint-order:stroke fill markers">
      <path
         d="m -6.3174166,193.06942 h -0.6011538 v -1.07303 h -0.4718735 v 1.07303 h -0.6011538 v -1.07303 h -0.3813772 l -0.342593,-0.65933 h 0.7239702 v -3.56814 h 0.6011538 v 3.56814 h 0.4718735 v -3.56814 h 0.6011538 v 5.3005 z"
         id="path3986" />
      <path
         d="m -4.3902298,193.06942 h -0.8597146 q -0.8726427,-0.77569 -0.8726427,-1.71943 0,-0.47188 0.2197767,-0.8985 0.2262407,-0.42663 0.652866,-0.808 h 0.9114268 v 2.32704 h -1.0471712 q 0.1098883,0.31674 0.3490571,0.5753 0.2391687,0.2521 0.6464019,0.52359 z m -0.4912655,-1.73236 v -1.29281 q -0.5688337,0.58177 -0.5882258,1.29281 z"
         id="path3988" />
      <path
         d="m -3.1379269,193.06942 h -0.1357444 q -0.2520968,0 -0.4136973,-0.0776 -0.1551364,-0.084 -0.2520967,-0.21978 -0.090496,-0.14221 -0.1228164,-0.32966 -0.03232,-0.19392 -0.03232,-0.4137 v -4.43432 h 0.6011538 v 4.43432 q 0,0.0453 0,0.15514 0.00646,0.10988 0.03232,0.1422 0.051712,0.0646 0.1486725,0.0582 0.09696,-0.0129 0.1745285,-0.0129 z"
         id="path3990" />
      <path
         d="m -1.6932185,189.64995 q -0.6334739,0.47187 -0.672258,1.11828 -0.012928,0.14867 0.084032,0.27795 0.1034244,0.12928 0.2197767,0.28441 0.1228164,0.14868 0.2262407,0.33613 0.1034243,0.181 0.1034243,0.43309 0,0.11636 -0.045248,0.24564 -0.038784,0.12281 -0.1034243,0.25209 -0.058176,0.12928 -0.1357444,0.2521 -0.077568,0.11635 -0.1486725,0.21978 h -0.7368983 q 0.09696,-0.0905 0.2068487,-0.20039 0.1098883,-0.10989 0.2003846,-0.22624 0.090496,-0.11635 0.1486724,-0.2327 0.058176,-0.12282 0.058176,-0.23917 -0.00646,-0.15514 -0.1098883,-0.30381 -0.1034243,-0.15514 -0.2262407,-0.3232 -0.1228164,-0.16807 -0.2262407,-0.35552 -0.09696,-0.19392 -0.09696,-0.42016 0,-0.30381 0.1098883,-0.58177 0.1098884,-0.27795 0.3490571,-0.53651 z"
         id="path3992" />
      <path
         d="M -0.88622587,193.06942 H -1.4873797 v -3.42593 h 0.60115383 z m -0.60115383,-4.32443 q 0,-0.12928 0.084032,-0.21332 0.084032,-0.0905 0.2133127,-0.0905 0.1292804,0 0.21331265,0.0905 0.0904963,0.084 0.0904963,0.21332 0,0.12928 -0.0904963,0.21331 -0.0840323,0.084 -0.21331265,0.084 -0.1292804,0 -0.2133127,-0.084 -0.084032,-0.084 -0.084032,-0.21331 z"
         id="path3994" />
      <path
         d="M 1.0511622,193.07588 H 0.45000834 v -2.48218 q 0,-0.0582 -0.006464,-0.12282 -0.006464,-0.0711 -0.0323201,-0.12282 -0.0258561,-0.0582 -0.0711042,-0.0905 -0.0452481,-0.0388 -0.12281637,-0.0388 -0.0775682,0 -0.12281638,0.0388 -0.03878412,0.0323 -0.0646402,0.0905 -0.02585608,0.0582 -0.0323201,0.12282 -0.00646402,0.0646 -0.00646402,0.12282 v 2.48218 H -0.6100909 v -2.48218 q 0,-0.20039 0.0387841,-0.38784 0.0452481,-0.19393 0.14220844,-0.3426 0.0969603,-0.15513 0.25209677,-0.24563 0.1616005,-0.0905 0.39430521,-0.0905 0.23270471,0 0.38784118,0.0905 0.1616005,0.0905 0.25856079,0.24563 0.0969603,0.14867 0.1422084,0.3426 0.045248,0.18745 0.045248,0.38784 z"
         id="path3996" />
      <path
         d="M 2.9833989,193.06942 H 2.3822451 v -0.87911 q 0,-0.0711 -0.025856,-0.12928 -0.019392,-0.0646 -0.1098883,-0.0646 H 1.8651235 v 1.07303 H 1.2639697 v -5.3005 h 0.6011538 v 3.47764 q 0.2908809,-0.29734 0.4007692,-0.67226 0.1163524,-0.38137 0.1163524,-0.78861 v -0.1422 h 0.6011538 v 0.1422 q 0,0.4137 -0.090496,0.83386 -0.084032,0.4137 -0.342593,0.74983 0.2714888,0.11635 0.3490571,0.34259 0.084032,0.21978 0.084032,0.49127 z"
         id="path3998" />
      <path
         d="M 3.822913,193.06942 H 3.2217592 v -3.42593 H 3.822913 Z m -0.6011538,-4.32443 q 0,-0.12928 0.084032,-0.21332 0.084032,-0.0905 0.2133127,-0.0905 0.1292804,0 0.2133126,0.0905 0.090496,0.084 0.090496,0.21332 0,0.12928 -0.090496,0.21331 -0.084032,0.084 -0.2133126,0.084 -0.1292804,0 -0.2133127,-0.084 -0.084032,-0.084 -0.084032,-0.21331 z"
         id="path4000" />
      <path
         d="M 7.8643395,193.06942 H 7.2631856 v -4.47311 q 0,-0.0905 -0.03232,-0.18099 -0.03232,-0.0905 -0.1486724,-0.0905 -0.1228164,0 -0.1616005,0.084 -0.03232,0.084 -0.03232,0.18745 v 4.47311 H 6.2871187 v -4.47311 q 0,-0.097 -0.038784,-0.18099 -0.03232,-0.0905 -0.1486724,-0.0905 -0.1163524,0 -0.1551365,0.0905 -0.03232,0.084 -0.03232,0.18099 v 4.47311 H 5.3110517 v -4.47311 q 0,-0.18099 0.038784,-0.35552 0.045248,-0.17453 0.1357444,-0.31027 0.09696,-0.13574 0.2391687,-0.21978 0.1486725,-0.084 0.3555211,-0.084 0.1422085,0 0.2650248,0.0582 0.1292804,0.0582 0.2391688,0.14867 0.1098883,-0.0905 0.2327047,-0.14867 0.1292804,-0.0582 0.2779528,-0.0582 0.2068487,0 0.3490571,0.084 0.1486725,0.084 0.2391687,0.21978 0.09696,0.13574 0.1357444,0.31027 0.045248,0.17453 0.045248,0.35552 z"
         id="path4002" />
      <path
         d="M 9.7876887,193.06942 H 8.927974 q -0.8726426,-0.77569 -0.8726426,-1.71943 0,-0.47188 0.2197766,-0.8985 0.2262407,-0.42663 0.652866,-0.808 h 0.9114268 v 2.32704 H 8.7922296 q 0.1098884,0.31674 0.3490571,0.5753 0.2391687,0.2521 0.646402,0.52359 z m -0.4912655,-1.73236 v -1.29281 q -0.5688338,0.58177 -0.5882258,1.29281 z"
         id="path4004" />
      <path
         d="m 11.117559,187.76892 v 3.56814 h 0.517122 v 0.65933 h -0.517122 v 1.07303 h -0.601154 v -1.07303 H 9.9992839 v -0.65933 h 0.5171211 v -3.56814 z"
         id="path4006" />
      <path
         d="m 13.002327,189.64995 q -0.633474,0.47187 -0.672258,1.11828 -0.01293,0.14867 0.08403,0.27795 0.103425,0.12928 0.219777,0.28441 0.122816,0.14868 0.226241,0.33613 0.103424,0.181 0.103424,0.43309 0,0.11636 -0.04525,0.24564 -0.03878,0.12281 -0.103424,0.25209 -0.05818,0.12928 -0.135745,0.2521 -0.07757,0.11635 -0.148672,0.21978 h -0.736898 q 0.09696,-0.0905 0.206848,-0.20039 0.109888,-0.10989 0.200385,-0.22624 0.0905,-0.11635 0.148672,-0.2327 0.05818,-0.12282 0.05818,-0.23917 -0.0065,-0.15514 -0.109888,-0.30381 -0.103424,-0.15514 -0.226241,-0.3232 -0.122816,-0.16807 -0.22624,-0.35552 -0.09696,-0.19392 -0.09696,-0.42016 0,-0.30381 0.109889,-0.58177 0.109888,-0.27795 0.349057,-0.53651 z"
         id="path4008" />
    </g>
  </g>
  <g
     inkscape:label="Layer 1"
     inkscape:groupmode="layer"
     id="layer1"
     style="display:inline"
     transform="translate(8.9721477,-187.22839)">
    <g
       aria-label="Helsinki Mets"
       transform="scale(1.0006121,0.99938827)"
       id="text1640"
       style="font-size:6.46402px;line-height:1.25;font-family:Astrud;-inkscape-font-specification:Astrud;fill:#2a085e;stroke:#ffffff;stroke-width:0.125623">
      <path
         d="m -6.3174166,193.06942 h -0.6011538 v -1.07303 h -0.4718735 v 1.07303 h -0.6011538 v -1.07303 h -0.3813772 l -0.342593,-0.65933 h 0.7239702 v -3.56814 h 0.6011538 v 3.56814 h 0.4718735 v -3.56814 h 0.6011538 v 5.3005 z"
         id="path4011" />
      <path
         d="m -4.3902298,193.06942 h -0.8597146 q -0.8726427,-0.77569 -0.8726427,-1.71943 0,-0.47188 0.2197767,-0.8985 0.2262407,-0.42663 0.652866,-0.808 h 0.9114268 v 2.32704 h -1.0471712 q 0.1098883,0.31674 0.3490571,0.5753 0.2391687,0.2521 0.6464019,0.52359 z m -0.4912655,-1.73236 v -1.29281 q -0.5688337,0.58177 -0.5882258,1.29281 z"
         id="path4013" />
      <path
         d="m -3.1379269,193.06942 h -0.1357444 q -0.2520968,0 -0.4136973,-0.0776 -0.1551364,-0.084 -0.2520967,-0.21978 -0.090496,-0.14221 -0.1228164,-0.32966 -0.03232,-0.19392 -0.03232,-0.4137 v -4.43432 h 0.6011538 v 4.43432 q 0,0.0453 0,0.15514 0.00646,0.10988 0.03232,0.1422 0.051712,0.0646 0.1486725,0.0582 0.09696,-0.0129 0.1745285,-0.0129 z"
         id="path4015" />
      <path
         d="m -1.6932185,189.64995 q -0.6334739,0.47187 -0.672258,1.11828 -0.012928,0.14867 0.084032,0.27795 0.1034244,0.12928 0.2197767,0.28441 0.1228164,0.14868 0.2262407,0.33613 0.1034243,0.181 0.1034243,0.43309 0,0.11636 -0.045248,0.24564 -0.038784,0.12281 -0.1034243,0.25209 -0.058176,0.12928 -0.1357444,0.2521 -0.077568,0.11635 -0.1486725,0.21978 h -0.7368983 q 0.09696,-0.0905 0.2068487,-0.20039 0.1098883,-0.10989 0.2003846,-0.22624 0.090496,-0.11635 0.1486724,-0.2327 0.058176,-0.12282 0.058176,-0.23917 -0.00646,-0.15514 -0.1098883,-0.30381 -0.1034243,-0.15514 -0.2262407,-0.3232 -0.1228164,-0.16807 -0.2262407,-0.35552 -0.09696,-0.19392 -0.09696,-0.42016 0,-0.30381 0.1098883,-0.58177 0.1098884,-0.27795 0.3490571,-0.53651 z"
         id="path4017" />
      <path
         d="M -0.88622587,193.06942 H -1.4873797 v -3.42593 h 0.60115383 z m -0.60115383,-4.32443 q 0,-0.12928 0.084032,-0.21332 0.084032,-0.0905 0.2133127,-0.0905 0.1292804,0 0.21331265,0.0905 0.0904963,0.084 0.0904963,0.21332 0,0.12928 -0.0904963,0.21331 -0.0840323,0.084 -0.21331265,0.084 -0.1292804,0 -0.2133127,-0.084 -0.084032,-0.084 -0.084032,-0.21331 z"
         id="path4019" />
      <path
         d="M 1.0511622,193.07588 H 0.45000834 v -2.48218 q 0,-0.0582 -0.006464,-0.12282 -0.006464,-0.0711 -0.0323201,-0.12282 -0.0258561,-0.0582 -0.0711042,-0.0905 -0.0452481,-0.0388 -0.12281637,-0.0388 -0.0775682,0 -0.12281638,0.0388 -0.03878412,0.0323 -0.0646402,0.0905 -0.02585608,0.0582 -0.0323201,0.12282 -0.00646402,0.0646 -0.00646402,0.12282 v 2.48218 H -0.6100909 v -2.48218 q 0,-0.20039 0.0387841,-0.38784 0.0452481,-0.19393 0.14220844,-0.3426 0.0969603,-0.15513 0.25209677,-0.24563 0.1616005,-0.0905 0.39430521,-0.0905 0.23270471,0 0.38784118,0.0905 0.1616005,0.0905 0.25856079,0.24563 0.0969603,0.14867 0.1422084,0.3426 0.045248,0.18745 0.045248,0.38784 z"
         id="path4021" />
      <path
         d="M 2.9833989,193.06942 H 2.3822451 v -0.87911 q 0,-0.0711 -0.025856,-0.12928 -0.019392,-0.0646 -0.1098883,-0.0646 H 1.8651235 v 1.07303 H 1.2639697 v -5.3005 h 0.6011538 v 3.47764 q 0.2908809,-0.29734 0.4007692,-0.67226 0.1163524,-0.38137 0.1163524,-0.78861 v -0.1422 h 0.6011538 v 0.1422 q 0,0.4137 -0.090496,0.83386 -0.084032,0.4137 -0.342593,0.74983 0.2714888,0.11635 0.3490571,0.34259 0.084032,0.21978 0.084032,0.49127 z"
         id="path4023" />
      <path
         d="M 3.822913,193.06942 H 3.2217592 v -3.42593 H 3.822913 Z m -0.6011538,-4.32443 q 0,-0.12928 0.084032,-0.21332 0.084032,-0.0905 0.2133127,-0.0905 0.1292804,0 0.2133126,0.0905 0.090496,0.084 0.090496,0.21332 0,0.12928 -0.090496,0.21331 -0.084032,0.084 -0.2133126,0.084 -0.1292804,0 -0.2133127,-0.084 -0.084032,-0.084 -0.084032,-0.21331 z"
         id="path4025" />
      <path
         d="M 7.8643395,193.06942 H 7.2631856 v -4.47311 q 0,-0.0905 -0.03232,-0.18099 -0.03232,-0.0905 -0.1486724,-0.0905 -0.1228164,0 -0.1616005,0.084 -0.03232,0.084 -0.03232,0.18745 v 4.47311 H 6.2871187 v -4.47311 q 0,-0.097 -0.038784,-0.18099 -0.03232,-0.0905 -0.1486724,-0.0905 -0.1163524,0 -0.1551365,0.0905 -0.03232,0.084 -0.03232,0.18099 v 4.47311 H 5.3110517 v -4.47311 q 0,-0.18099 0.038784,-0.35552 0.045248,-0.17453 0.1357444,-0.31027 0.09696,-0.13574 0.2391687,-0.21978 0.1486725,-0.084 0.3555211,-0.084 0.1422085,0 0.2650248,0.0582 0.1292804,0.0582 0.2391688,0.14867 0.1098883,-0.0905 0.2327047,-0.14867 0.1292804,-0.0582 0.2779528,-0.0582 0.2068487,0 0.3490571,0.084 0.1486725,0.084 0.2391687,0.21978 0.09696,0.13574 0.1357444,0.31027 0.045248,0.17453 0.045248,0.35552 z"
         id="path4027" />
      <path
         d="M 9.7876887,193.06942 H 8.927974 q -0.8726426,-0.77569 -0.8726426,-1.71943 0,-0.47188 0.2197766,-0.8985 0.2262407,-0.42663 0.652866,-0.808 h 0.9114268 v 2.32704 H 8.7922296 q 0.1098884,0.31674 0.3490571,0.5753 0.2391687,0.2521 0.646402,0.52359 z m -0.4912655,-1.73236 v -1.29281 q -0.5688338,0.58177 -0.5882258,1.29281 z"
         id="path4029" />
      <path
         d="m 11.117559,187.76892 v 3.56814 h 0.517122 v 0.65933 h -0.517122 v 1.07303 h -0.601154 v -1.07303 H 9.9992839 v -0.65933 h 0.5171211 v -3.56814 z"
         id="path4031" />
      <path
         d="m 13.002327,189.64995 q -0.633474,0.47187 -0.672258,1.11828 -0.01293,0.14867 0.08403,0.27795 0.103425,0.12928 0.219777,0.28441 0.122816,0.14868 0.226241,0.33613 0.103424,0.181 0.103424,0.43309 0,0.11636 -0.04525,0.24564 -0.03878,0.12281 -0.103424,0.25209 -0.05818,0.12928 -0.135745,0.2521 -0.07757,0.11635 -0.148672,0.21978 h -0.736898 q 0.09696,-0.0905 0.206848,-0.20039 0.109888,-0.10989 0.200385,-0.22624 0.0905,-0.11635 0.148672,-0.2327 0.05818,-0.12282 0.05818,-0.23917 -0.0065,-0.15514 -0.109888,-0.30381 -0.103424,-0.15514 -0.226241,-0.3232 -0.122816,-0.16807 -0.22624,-0.35552 -0.09696,-0.19392 -0.09696,-0.42016 0,-0.30381 0.109889,-0.58177 0.109888,-0.27795 0.349057,-0.53651 z"
         id="path4033" />
    </g>
  </g>
</svg>
