<?xml version="1.0" encoding="UTF-8"?>
<!-- Created with Inkscape (http://www.inkscape.org/) -->
<svg width="289.63" height="79.839" version="1.1" viewBox="0 0 76.63 21.124" xmlns="http://www.w3.org/2000/svg">
<symbol width="289.63" height="79.839" version="1.1" viewBox="0 0 76.63 21.124">
 <g transform="translate(-.8271 -2.3584)">
  <g transform="scale(.97171 1.0291)" fill="#fa650f" stroke="#fa650f" stroke-width="2.0229" aria-label="HELSINKI METS">
   <path d="m9.9365 21.835h-2.0165v-3.5994h-1.5829v3.5994h-2.0165v-3.5994h-1.2793l-1.1492-2.2117h2.4285v-11.969h2.0165v11.969h1.5829v-11.969h2.0165v17.78z"/>
   <path d="m17.179 21.835h-2.5803q-0.82396 0-1.301-0.30356-0.47703-0.32525-0.71554-0.84564-0.23851-0.52039-0.30356-1.1492-0.06505-0.65049-0.06505-1.301h-1.2793l-1.1492-2.2117h2.4285v-11.969h4.9654v2.3201h-2.9489v9.649h2.9489v2.2117h-2.9489v0.82396q0 0.17346 0.08673 0.30356 0.08673 0.1301 0.28188 0.1301h2.5803z"/>
   <path d="m22.686 21.835h-1.9515q-0.84564 0-1.3877-0.2602-0.52039-0.28188-0.84564-0.73723-0.30356-0.47703-0.41198-1.1058-0.10842-0.65049-0.10842-1.3877v-14.289h2.0165v14.289q0 0.15178 0 0.52039 0.02168 0.36861 0.10842 0.47703 0.08673 0.10842 0.45534 0.15178 0.36861 0.02168 0.78059 0.02168 0.43366 0 0.82396 0 0.3903-0.02168 0.5204-0.02168z"/>
   <path d="m27.261 4.0551q-1.1058 1.2576-1.713 2.7104-0.60713 1.4311-0.60713 3.1224 0 0.97574 0.2602 1.9081 0.28188 0.91069 0.58544 1.8214 0.32525 0.91069 0.58544 1.8431 0.28188 0.91069 0.28188 1.8864 0 1.1709-0.2602 2.2984-0.2602 1.1275-0.75891 2.19h-2.5586q0.67218-0.97574 1.1058-2.0599 0.45534-1.1058 0.45534-2.2984 0-0.99742-0.28188-1.778-0.2602-0.80228-0.60713-1.713-0.36861-0.97574-0.60713-1.9948-0.21683-1.0408-0.21683-2.1033 0-1.5612 0.36861-3.014 0.3903-1.4745 1.2143-2.8188z"/>
   <path d="m29.842 21.835h-2.0165v-17.78h2.0165v17.78z"/>
   <path d="m36.26 21.835h-2.0165v-7.8059l-1.4311-2.8405v10.646h-2.0165v-18.474l0.41198-0.086732 3.0356 6.3098v-5.5292h2.0165v17.78z"/>
   <path d="m44.283 21.835h-2.0165v-2.9489q0-0.23851-0.08673-0.43366-0.06505-0.21683-0.36861-0.21683h-1.2793v3.5994h-2.0165v-3.5994h-1.2793l-1.1492-2.2117h2.4285v-11.969h2.0165v11.666q0.97574-0.99742 1.3444-2.255 0.3903-1.2793 0.3903-2.6453v-6.7651h2.0165v6.7651q0 1.3877-0.30356 2.7971-0.28188 1.3877-1.1492 2.5152 0.91069 0.3903 1.1709 1.1492 0.28188 0.73722 0.28188 1.6479z"/>
   <path d="m47.166 21.835h-2.0165v-17.78h2.0165v17.78z"/>
   <path d="m60.74 21.835h-2.0165v-15.005q0-0.30356-0.10842-0.60713-0.10842-0.30356-0.49871-0.30356-0.41198 0-0.54208 0.28188-0.10842 0.28188-0.10842 0.62881v15.005h-2.0165v-15.005q0-0.32525-0.1301-0.60713-0.10842-0.30356-0.49871-0.30356-0.3903 0-0.5204 0.30356-0.10842 0.28188-0.10842 0.60713v15.005h-2.0165v-15.005q0-0.60713 0.1301-1.1926 0.15178-0.58544 0.45534-1.0408 0.32525-0.45535 0.80228-0.73723 0.49871-0.28188 1.1926-0.28188 0.47703 0 0.88901 0.19515 0.43366 0.19515 0.80228 0.49871 0.36861-0.30356 0.78059-0.49871 0.43366-0.19515 0.93237-0.19515 0.69386 0 1.1709 0.28188 0.49871 0.28188 0.80228 0.73723 0.32525 0.45535 0.45534 1.0408 0.15178 0.58544 0.15178 1.1926z"/>
   <path d="m67.961 21.835h-2.5803q-0.82396 0-1.301-0.30356-0.47703-0.32525-0.71554-0.84564-0.23851-0.52039-0.30356-1.1492-0.06505-0.65049-0.06505-1.301h-1.2793l-1.1492-2.2117h2.4285v-11.969h4.9654v2.3201h-2.9489v9.649h2.9489v2.2117h-2.9489v0.82396q0 0.17346 0.08673 0.30356 0.08673 0.1301 0.28188 0.1301h2.5803z"/>
   <path d="m73.967 6.3752h-1.7346v15.46h-2.0165v-15.46h-1.7346v-2.3201h5.4858v2.3201z"/>
   <path d="m78.672 4.0551q-1.1058 1.2576-1.713 2.7104-0.60713 1.4311-0.60713 3.1224 0 0.97574 0.2602 1.9081 0.28188 0.91069 0.58544 1.8214 0.32525 0.91069 0.58544 1.8431 0.28188 0.91069 0.28188 1.8864 0 1.1709-0.2602 2.2984-0.2602 1.1275-0.75891 2.19h-2.5586q0.67218-0.97574 1.1058-2.0599 0.45534-1.1058 0.45534-2.2984 0-0.99742-0.28188-1.778-0.2602-0.80228-0.60713-1.713-0.36861-0.97574-0.60713-1.9948-0.21683-1.0408-0.21683-2.1033 0-1.5612 0.36861-3.014 0.3903-1.4745 1.2143-2.8188z"/>
  </g>
  <g transform="scale(.97171 1.0291)" fill="#2a085e" stroke="#fff" stroke-width=".62732" aria-label="HELSINKI METS">
   <path d="m9.9365 21.835h-2.0165v-3.5994h-1.5829v3.5994h-2.0165v-3.5994h-1.2793l-1.1492-2.2117h2.4285v-11.969h2.0165v11.969h1.5829v-11.969h2.0165v17.78z"/>
   <path d="m17.179 21.835h-2.5803q-0.82396 0-1.301-0.30356-0.47703-0.32525-0.71554-0.84564-0.23851-0.52039-0.30356-1.1492-0.06505-0.65049-0.06505-1.301h-1.2793l-1.1492-2.2117h2.4285v-11.969h4.9654v2.3201h-2.9489v9.649h2.9489v2.2117h-2.9489v0.82396q0 0.17346 0.08673 0.30356 0.08673 0.1301 0.28188 0.1301h2.5803z"/>
   <path d="m22.686 21.835h-1.9515q-0.84564 0-1.3877-0.2602-0.52039-0.28188-0.84564-0.73723-0.30356-0.47703-0.41198-1.1058-0.10842-0.65049-0.10842-1.3877v-14.289h2.0165v14.289q0 0.15178 0 0.52039 0.02168 0.36861 0.10842 0.47703 0.08673 0.10842 0.45534 0.15178 0.36861 0.02168 0.78059 0.02168 0.43366 0 0.82396 0 0.3903-0.02168 0.5204-0.02168z"/>
   <path d="m27.261 4.0551q-1.1058 1.2576-1.713 2.7104-0.60713 1.4311-0.60713 3.1224 0 0.97574 0.2602 1.9081 0.28188 0.91069 0.58544 1.8214 0.32525 0.91069 0.58544 1.8431 0.28188 0.91069 0.28188 1.8864 0 1.1709-0.2602 2.2984-0.2602 1.1275-0.75891 2.19h-2.5586q0.67218-0.97574 1.1058-2.0599 0.45534-1.1058 0.45534-2.2984 0-0.99742-0.28188-1.778-0.2602-0.80228-0.60713-1.713-0.36861-0.97574-0.60713-1.9948-0.21683-1.0408-0.21683-2.1033 0-1.5612 0.36861-3.014 0.3903-1.4745 1.2143-2.8188z"/>
   <path d="m29.842 21.835h-2.0165v-17.78h2.0165v17.78z"/>
   <path d="m36.26 21.835h-2.0165v-7.8059l-1.4311-2.8405v10.646h-2.0165v-18.474l0.41198-0.086732 3.0356 6.3098v-5.5292h2.0165v17.78z"/>
   <path d="m44.283 21.835h-2.0165v-2.9489q0-0.23851-0.08673-0.43366-0.06505-0.21683-0.36861-0.21683h-1.2793v3.5994h-2.0165v-3.5994h-1.2793l-1.1492-2.2117h2.4285v-11.969h2.0165v11.666q0.97574-0.99742 1.3444-2.255 0.3903-1.2793 0.3903-2.6453v-6.7651h2.0165v6.7651q0 1.3877-0.30356 2.7971-0.28188 1.3877-1.1492 2.5152 0.91069 0.3903 1.1709 1.1492 0.28188 0.73722 0.28188 1.6479z"/>
   <path d="m47.166 21.835h-2.0165v-17.78h2.0165v17.78z"/>
   <path d="m60.74 21.835h-2.0165v-15.005q0-0.30356-0.10842-0.60713-0.10842-0.30356-0.49871-0.30356-0.41198 0-0.54208 0.28188-0.10842 0.28188-0.10842 0.62881v15.005h-2.0165v-15.005q0-0.32525-0.1301-0.60713-0.10842-0.30356-0.49871-0.30356-0.3903 0-0.5204 0.30356-0.10842 0.28188-0.10842 0.60713v15.005h-2.0165v-15.005q0-0.60713 0.1301-1.1926 0.15178-0.58544 0.45534-1.0408 0.32525-0.45535 0.80228-0.73723 0.49871-0.28188 1.1926-0.28188 0.47703 0 0.88901 0.19515 0.43366 0.19515 0.80228 0.49871 0.36861-0.30356 0.78059-0.49871 0.43366-0.19515 0.93237-0.19515 0.69386 0 1.1709 0.28188 0.49871 0.28188 0.80228 0.73723 0.32525 0.45535 0.45534 1.0408 0.15178 0.58544 0.15178 1.1926z"/>
   <path d="m67.961 21.835h-2.5803q-0.82396 0-1.301-0.30356-0.47703-0.32525-0.71554-0.84564-0.23851-0.52039-0.30356-1.1492-0.06505-0.65049-0.06505-1.301h-1.2793l-1.1492-2.2117h2.4285v-11.969h4.9654v2.3201h-2.9489v9.649h2.9489v2.2117h-2.9489v0.82396q0 0.17346 0.08673 0.30356 0.08673 0.1301 0.28188 0.1301h2.5803z"/>
   <path d="m73.967 6.3752h-1.7346v15.46h-2.0165v-15.46h-1.7346v-2.3201h5.4858v2.3201z"/>
   <path d="m78.672 4.0551q-1.1058 1.2576-1.713 2.7104-0.60713 1.4311-0.60713 3.1224 0 0.97574 0.2602 1.9081 0.28188 0.91069 0.58544 1.8214 0.32525 0.91069 0.58544 1.8431 0.28188 0.91069 0.28188 1.8864 0 1.1709-0.2602 2.2984-0.2602 1.1275-0.75891 2.19h-2.5586q0.67218-0.97574 1.1058-2.0599 0.45534-1.1058 0.45534-2.2984 0-0.99742-0.28188-1.778-0.2602-0.80228-0.60713-1.713-0.36861-0.97574-0.60713-1.9948-0.21683-1.0408-0.21683-2.1033 0-1.5612 0.36861-3.014 0.3903-1.4745 1.2143-2.8188z"/>
  </g>
 </g>
 </symbol>
</svg>
