<svg viewBox="0 0 683 670" fill="none" xmlns="http://www.w3.org/2000/svg">
<g id="superpark">
<path id="Vector (Traced)" fill-rule="evenodd" clip-rule="evenodd" d="M435.503 1.93101C431.11 3.12286 410.512 8.11992 399.66 10.6265C396.499 11.3564 388.891 13.164 382.753 14.6432C376.616 16.1218 366.573 18.5344 360.436 20.0036C354.299 21.4727 344.104 23.9209 337.78 25.4431C323.792 28.8119 307.639 32.6694 295.851 35.4567C291.015 36.6002 282.799 38.571 277.591 39.836C259.177 44.3107 247.771 47.0556 242.425 48.2985C237.089 49.5387 225.718 52.2555 203.2 57.6695C196.877 59.1904 186.682 61.6419 180.545 63.1171C161.849 67.6126 147.364 71.0747 141.32 72.4915C130.122 75.1163 107.787 80.488 103.715 81.5355L99.5861 82.5984L98.5405 86.0753C95.9625 94.6506 91.9231 108.404 89.6318 116.411C88.2576 121.212 86.8645 125.744 86.5358 126.483C86.2065 127.221 84.9919 131.301 83.8361 135.548C82.6803 139.795 81.4657 143.874 81.1377 144.612C80.8097 145.351 79.4707 149.732 78.1627 154.349C74.849 166.039 71.9673 175.846 69.8742 182.55C68.895 185.689 67.4065 190.675 66.5672 193.63C65.7272 196.584 63.7701 203.232 62.2167 208.402C60.6632 213.572 58.2313 221.731 56.8125 226.532C55.393 231.333 52.9732 239.491 51.4347 244.661C49.8961 249.831 47.5657 257.839 46.2557 262.455C44.9464 267.071 43.6006 271.453 43.2652 272.191C42.9297 272.93 41.7097 277.009 40.554 281.256C39.3982 285.503 38.1782 289.582 37.8434 290.321C37.5087 291.06 36.1236 295.592 34.7656 300.393C31.8597 310.67 28.2618 322.932 24.3245 335.981C17.8741 357.356 11.843 377.772 8.4562 389.698C7.09281 394.499 5.70846 399.032 5.38046 399.77C4.66698 401.377 0.651886 415.672 0.65662 416.588C0.658649 416.94 2.56103 419.203 4.88339 421.617C12.2272 429.249 22.9402 440.437 34.4674 452.511C40.6047 458.939 46.9956 465.579 48.6694 467.267C50.3432 468.953 56.2775 475.144 61.8569 481.024C73.0386 492.808 81.8634 502.002 92.5946 513.046C96.4819 517.047 99.8444 520.612 100.067 520.97C100.289 521.328 103.652 524.883 107.539 528.872C111.426 532.86 119.933 541.685 126.442 548.484C132.951 555.283 139.342 561.942 140.644 563.282C141.946 564.622 147.728 570.683 153.493 576.75C159.259 582.817 165.345 589.16 167.019 590.845C168.693 592.53 174.779 598.873 180.545 604.941C186.31 611.008 194.206 619.225 198.091 623.2C201.975 627.175 205.34 630.725 205.567 631.091C205.794 631.456 209.159 635.015 213.043 639.001C220.243 646.387 231.173 657.755 238.234 665.201L242.159 669.34L247.026 668.077C252.242 666.723 273.889 661.503 283.34 659.321C286.501 658.591 294.109 656.783 300.247 655.304C306.384 653.825 316.427 651.413 322.564 649.943C328.701 648.474 338.896 646.026 345.22 644.504C359.208 641.135 375.362 637.278 387.149 634.49C391.985 633.347 400.201 631.376 405.409 630.111C423.823 625.636 435.229 622.891 440.576 621.649C445.911 620.408 457.282 617.692 479.8 612.278C486.123 610.757 496.318 608.305 502.455 606.83C521.151 602.334 535.636 598.872 541.68 597.456C552.878 594.831 575.213 589.459 579.285 588.412L583.414 587.349L584.46 583.872C587.038 575.296 591.077 561.543 593.368 553.536C594.742 548.735 596.136 544.203 596.464 543.464C596.794 542.726 598.008 538.646 599.164 534.399C600.32 530.152 601.534 526.073 601.862 525.335C602.19 524.596 603.529 520.215 604.837 515.598C608.151 503.908 611.033 494.101 613.126 487.397C614.105 484.258 615.594 479.272 616.433 476.317C617.273 473.363 619.23 466.715 620.783 461.545C622.337 456.375 624.769 448.217 626.188 443.416C627.607 438.615 630.027 430.456 631.565 425.286C633.104 420.116 635.434 412.108 636.744 407.492C638.054 402.876 639.4 398.494 639.735 397.756C640.07 397.017 641.29 392.938 642.446 388.691C643.602 384.444 644.822 380.365 645.157 379.626C645.491 378.888 646.876 374.355 648.234 369.554C651.14 359.277 654.738 347.015 658.676 333.966C665.126 312.591 671.157 292.175 674.544 280.249C675.907 275.448 677.292 270.916 677.62 270.177C678.333 268.57 682.348 254.275 682.343 253.359C682.341 253.007 680.439 250.744 678.117 248.33C670.773 240.698 660.06 229.51 648.533 217.436C642.395 211.008 636.005 204.368 634.331 202.68C632.657 200.994 626.723 194.803 621.143 188.923C609.962 177.139 601.137 167.945 590.405 156.901C586.518 152.9 583.156 149.335 582.933 148.977C582.711 148.619 579.348 145.064 575.461 141.075C571.574 137.087 563.067 128.262 556.558 121.463C550.049 114.664 543.658 108.005 542.356 106.665C541.054 105.325 535.272 99.2642 529.507 93.1969C523.742 87.1302 517.655 80.7875 515.981 79.1021C514.307 77.4174 508.221 71.074 502.455 65.006C496.69 58.9386 488.795 50.7218 484.909 46.7468C481.025 42.7723 477.66 39.2216 477.433 38.8563C477.206 38.4911 473.841 34.9316 469.957 30.9458C462.756 23.5596 451.836 12.2011 444.754 4.73371C442.59 2.45072 440.611 0.617618 440.358 0.660592C440.106 0.703565 437.921 1.27498 435.503 1.93101ZM407.576 149.51C412.335 153.865 417.43 158.474 418.899 159.75C420.366 161.027 422.269 162.794 423.125 163.679L424.683 165.288V201.472V237.656L422.485 239.886C421.276 241.114 418.461 244.152 416.229 246.639C413.998 249.125 410.583 252.87 408.641 254.961C406.699 257.052 405.102 259.1 405.091 259.513C405.072 260.214 410.346 269.777 411.157 270.513C411.361 270.697 412.56 272.812 413.822 275.213C415.084 277.613 416.331 279.729 416.593 279.913C416.855 280.098 418.03 282.062 419.204 284.278C420.378 286.494 422.877 290.875 424.758 294.014C426.639 297.153 429.037 301.232 430.086 303.079C431.135 304.925 433.239 308.547 434.763 311.126C436.286 313.705 437.532 316.047 437.532 316.33C437.532 316.612 427.206 316.844 414.585 316.844H391.637L390.238 314.894C389.469 313.821 388.84 312.816 388.84 312.661C388.84 312.506 386.973 309.078 384.693 305.043C382.412 301.008 379.309 295.441 377.797 292.671C376.285 289.901 374.804 287.534 374.505 287.411C374.206 287.288 373.962 286.911 373.962 286.573C373.962 286.091 367.99 275.006 364.587 269.17C364.099 268.333 362.407 268.199 354.61 268.382C349.445 268.502 344.687 268.749 344.036 268.931C342.937 269.237 342.853 270.982 342.853 293.388V317.515H323.24H303.628V236.401V155.286L311.575 154.12C330.922 151.284 356.847 147.538 374.567 145.02C385.129 143.519 393.929 142.133 394.123 141.941C394.317 141.749 395.476 141.591 396.699 141.591C398.598 141.591 400.186 142.746 407.576 149.51ZM273.707 164.988C275.843 167.146 280.407 171.859 283.847 175.46L290.103 182.009V214.751V247.493L287.545 250.442C286.138 252.063 281.534 257.696 277.313 262.959C273.092 268.221 269.602 272.538 269.557 272.551C269.188 272.66 229.591 274.514 227.377 274.526L224.503 274.541V296.7V318.858H208.61H192.718V245.333C192.718 204.893 192.946 171.802 193.225 171.795C193.504 171.789 197.841 171.174 202.862 170.426C207.883 169.68 220.361 167.843 230.59 166.345C240.818 164.846 252.687 163.083 256.965 162.425C269.536 160.494 269.209 160.444 273.707 164.988ZM177.683 190.773L177.501 207.052L160.932 208.892C151.819 209.904 139.646 211.272 133.881 211.934L123.399 213.136L123.214 225.037L123.029 236.939L125.581 236.91C126.984 236.894 136.197 236.157 146.054 235.274L163.976 233.668L166.847 236.814C168.426 238.545 172.458 243.273 175.808 247.32L181.897 254.68V275.287V295.895L175.044 304.859C171.275 309.789 167.395 314.915 166.422 316.252C164.732 318.571 164.425 318.701 159.647 319.105C156.894 319.339 142.667 319.53 128.031 319.53H101.419V304.806V290.082L104.97 289.721C108.756 289.335 146.471 287.957 152.986 287.965L156.875 287.971V275.213V262.455L154.339 262.462C149.017 262.475 119.772 264.476 118.653 264.903C117.86 265.205 117.054 264.825 116.178 263.735C114.025 261.056 109.873 255.715 105.529 250.033L101.422 244.661L101.421 225.506C101.419 205.494 101.384 205.779 104.315 202.359C104.631 201.989 107.598 197.548 110.908 192.489C116.267 184.298 117.168 183.249 119.148 182.902C120.37 182.687 125.63 181.896 130.838 181.144C136.045 180.392 148.218 178.623 157.889 177.214C167.56 175.805 176.011 174.616 176.668 174.573C177.785 174.498 177.852 175.56 177.683 190.773ZM379.372 183.244C377.326 183.517 368.272 184.581 359.252 185.608L342.853 187.475V208.85V230.225L345.727 230.21C347.307 230.202 354.079 229.724 360.774 229.149C367.469 228.573 374.925 227.961 377.343 227.789C379.761 227.617 382.424 227.334 383.261 227.159L384.782 226.842V204.696C384.782 187.374 384.598 182.572 383.937 182.649C383.472 182.703 381.418 182.971 379.372 183.244ZM247.497 198.685C242.103 199.336 235.104 200.201 231.942 200.605C228.781 201.01 225.814 201.343 225.348 201.346C224.692 201.35 224.503 205.711 224.503 220.894V240.436L230.082 239.998C233.151 239.757 237.792 239.289 240.396 238.958C242.999 238.626 248.097 238.159 251.723 237.92L258.317 237.485V217.404C258.317 206.359 258.089 197.363 257.81 197.412C257.531 197.462 252.89 198.034 247.497 198.685ZM228.223 334.517C228.966 335.355 230.69 337.387 232.052 339.032C233.414 340.678 237.294 345.336 240.674 349.383L246.82 356.743L246.803 389L246.785 421.257L241.303 427.3C238.288 430.624 234.569 434.707 233.037 436.372C231.505 438.038 229.599 440.228 228.801 441.24C227.511 442.877 226.915 443.078 223.391 443.062C221.213 443.052 216.54 442.745 213.006 442.381C207.376 441.8 184.449 439.774 183.081 439.737C182.801 439.728 182.573 449.546 182.573 461.553V483.384L180.037 483.032C177.186 482.637 152.262 480.011 151.366 480.011C151.048 480.011 150.788 446.726 150.788 406.044V332.077L188.829 332.535L226.87 332.993L228.223 334.517ZM355.768 338.431C358.521 341.44 361.231 344.4 361.789 345.007C362.346 345.614 365.085 348.653 367.875 351.76C370.665 354.868 373.48 357.952 374.131 358.614C375.227 359.729 375.313 362.348 375.295 394.231L375.276 428.643L366.123 438.187L356.969 447.73L359.462 452.959C360.833 455.835 362.146 458.339 362.379 458.524C362.612 458.708 365.043 463.241 367.782 468.596C372.268 477.367 378.439 489.22 384.959 501.589L387.307 506.046L384.861 505.756C383.516 505.596 373.932 504.586 363.563 503.509C353.195 502.433 344.665 501.465 344.608 501.357C344.55 501.25 343.985 500.104 343.352 498.812C342.719 497.519 336.943 486.188 330.518 473.632L318.835 450.802L313.091 450.354C309.932 450.108 305.446 449.742 303.121 449.54L298.894 449.173V472.714V496.255L295.682 495.946C288.392 495.242 265.936 492.737 263.897 492.4L261.699 492.036V412.498V332.959H306.231H350.763L355.768 338.431ZM439.561 373.919C439.561 396.077 439.823 414.207 440.143 414.207C440.663 414.207 448.034 405.954 455.454 397.067C456.942 395.285 463.028 388.183 468.979 381.283C474.931 374.385 481.017 367.284 482.505 365.504C483.993 363.724 489.27 357.562 494.232 351.81C506.481 337.612 507.714 336.163 508.701 334.797C509.498 333.694 511.464 333.625 537.51 333.79L565.463 333.966L563.153 336.316C561.883 337.609 556.937 343.048 552.162 348.403C547.388 353.758 542.352 359.348 540.97 360.825C537.33 364.718 531.173 371.53 526.125 377.249C523.708 379.988 520.817 383.198 519.701 384.381C512.864 391.631 511.048 393.615 506.532 398.763C503.778 401.902 499.993 406.059 498.12 408.001L494.714 411.531L496.049 414.044C496.783 415.426 497.623 416.859 497.915 417.228C498.49 417.954 505.14 429.17 507.271 433.008C507.989 434.3 509.128 436.264 509.801 437.372C511.063 439.449 513.118 442.948 516.507 448.787C524.96 463.357 529.234 470.614 530.544 472.624C531.386 473.917 532.798 476.334 533.681 477.996C534.564 479.658 535.759 481.773 536.337 482.696C537.981 485.327 542.006 492.131 543.883 495.454C544.821 497.116 547.125 501.044 549.003 504.183C552.622 510.236 557.261 518.177 559.754 522.59C560.583 524.055 561.162 525.352 561.043 525.471C560.923 525.59 553.854 524.906 545.335 523.951C536.815 522.997 524.713 521.65 518.44 520.957C512.168 520.264 506.972 519.606 506.895 519.495C505.997 518.197 502.099 510.926 496.707 500.49C493.082 493.473 489.123 485.919 487.909 483.704C485.887 480.014 478.832 466.524 470.526 450.466C468.712 446.958 466.936 444.117 466.581 444.154C466.226 444.191 465.697 444.267 465.404 444.322C465.111 444.378 462.296 447.366 459.148 450.963C456 454.559 450.306 460.903 446.493 465.059L439.561 472.616V492.502V512.388L437.025 512.022C435.631 511.821 427.033 510.863 417.92 509.894C408.807 508.923 400.666 507.991 399.829 507.823L398.308 507.515V420.573V333.631H418.934H439.561V373.919ZM182.573 386.094L182.573 405.32L187.477 405.723C190.174 405.946 196.64 406.297 201.848 406.503C207.055 406.71 212.304 407.031 213.513 407.216L215.711 407.553V387.777V368.001L209.456 367.601C206.015 367.382 198.559 367.127 192.886 367.035L182.572 366.868L182.573 386.094ZM298.894 390.95V411.982L316.308 412.782C325.887 413.222 334.712 413.736 335.921 413.925L338.119 414.268V392.81V371.354L332.539 370.981C329.47 370.776 320.645 370.453 312.927 370.263L298.894 369.918V390.95Z" fill="#662483"/>
</g>
</svg>
