<?xml version="1.0" encoding="UTF-8"?>
<!-- Created with Inkscape (http://www.inkscape.org/) -->
<svg width="22.234mm" height="5.9806mm" version="1.1" viewBox="0 0 22.234 5.9806" xmlns="http://www.w3.org/2000/svg">
 <g transform="translate(8.9721 -187.23)">
  <g transform="scale(1.0006 .99939)" fill="#fa650f" stroke="#f60" stroke-width=".50249" style="paint-order:stroke fill markers" aria-label="Helsinki Mets">
   <path d="m-6.3174 193.07h-0.60115v-1.073h-0.47187v1.073h-0.60115v-1.073h-0.38138l-0.34259-0.65933h0.72397v-3.5681h0.60115v3.5681h0.47187v-3.5681h0.60115v5.3005z"/>
   <path d="m-4.3902 193.07h-0.85971q-0.87264-0.77569-0.87264-1.7194 0-0.47188 0.21978-0.8985 0.22624-0.42663 0.65287-0.808h0.91143v2.327h-1.0472q0.10989 0.31674 0.34906 0.5753 0.23917 0.2521 0.6464 0.52359zm-0.49127-1.7324v-1.2928q-0.56883 0.58177-0.58823 1.2928z"/>
   <path d="m-3.1379 193.07h-0.13574q-0.2521 0-0.4137-0.0776-0.15514-0.084-0.2521-0.21978-0.090496-0.14221-0.12282-0.32966-0.03232-0.19392-0.03232-0.4137v-4.4343h0.60115v4.4343q0 0.0453 0 0.15514 0.00646 0.10988 0.03232 0.1422 0.051712 0.0646 0.14867 0.0582 0.09696-0.0129 0.17453-0.0129z"/>
   <path d="m-1.6932 189.65q-0.63347 0.47187-0.67226 1.1183-0.012928 0.14867 0.084032 0.27795 0.10342 0.12928 0.21978 0.28441 0.12282 0.14868 0.22624 0.33613 0.10342 0.181 0.10342 0.43309 0 0.11636-0.045248 0.24564-0.038784 0.12281-0.10342 0.25209-0.058176 0.12928-0.13574 0.2521-0.077568 0.11635-0.14867 0.21978h-0.7369q0.09696-0.0905 0.20685-0.20039 0.10989-0.10989 0.20038-0.22624 0.090496-0.11635 0.14867-0.2327 0.058176-0.12282 0.058176-0.23917-0.00646-0.15514-0.10989-0.30381-0.10342-0.15514-0.22624-0.3232-0.12282-0.16807-0.22624-0.35552-0.09696-0.19392-0.09696-0.42016 0-0.30381 0.10989-0.58177 0.10989-0.27795 0.34906-0.53651z"/>
   <path d="m-0.88623 193.07h-0.60115v-3.4259h0.60115zm-0.60115-4.3244q0-0.12928 0.084032-0.21332 0.084032-0.0905 0.21331-0.0905 0.12928 0 0.21331 0.0905 0.090496 0.084 0.090496 0.21332 0 0.12928-0.090496 0.21331-0.084032 0.084-0.21331 0.084-0.12928 0-0.21331-0.084-0.084032-0.084-0.084032-0.21331z"/>
   <path d="m1.0512 193.08h-0.60115v-2.4822q0-0.0582-0.006464-0.12282-0.006464-0.0711-0.03232-0.12282-0.025856-0.0582-0.071104-0.0905-0.045248-0.0388-0.12282-0.0388-0.077568 0-0.12282 0.0388-0.038784 0.0323-0.06464 0.0905t-0.03232 0.12282q-0.006464 0.0646-0.006464 0.12282v2.4822h-0.60115v-2.4822q0-0.20039 0.038784-0.38784 0.045248-0.19393 0.14221-0.3426 0.09696-0.15513 0.2521-0.24563 0.1616-0.0905 0.39431-0.0905t0.38784 0.0905q0.1616 0.0905 0.25856 0.24563 0.09696 0.14867 0.14221 0.3426 0.045248 0.18745 0.045248 0.38784z"/>
   <path d="m2.9834 193.07h-0.60115v-0.87911q0-0.0711-0.025856-0.12928-0.019392-0.0646-0.10989-0.0646h-0.38138v1.073h-0.60115v-5.3005h0.60115v3.4776q0.29088-0.29734 0.40077-0.67226 0.11635-0.38137 0.11635-0.78861v-0.1422h0.60115v0.1422q0 0.4137-0.090496 0.83386-0.084032 0.4137-0.34259 0.74983 0.27149 0.11635 0.34906 0.34259 0.084032 0.21978 0.084032 0.49127z"/>
   <path d="m3.8229 193.07h-0.60115v-3.4259h0.60115zm-0.60115-4.3244q0-0.12928 0.084032-0.21332 0.084032-0.0905 0.21331-0.0905 0.12928 0 0.21331 0.0905 0.090496 0.084 0.090496 0.21332 0 0.12928-0.090496 0.21331-0.084032 0.084-0.21331 0.084-0.12928 0-0.21331-0.084-0.084032-0.084-0.084032-0.21331z"/>
   <path d="m7.8643 193.07h-0.60115v-4.4731q0-0.0905-0.03232-0.18099-0.03232-0.0905-0.14867-0.0905-0.12282 0-0.1616 0.084-0.03232 0.084-0.03232 0.18745v4.4731h-0.60115v-4.4731q0-0.097-0.038784-0.18099-0.03232-0.0905-0.14867-0.0905t-0.15514 0.0905q-0.03232 0.084-0.03232 0.18099v4.4731h-0.60115v-4.4731q0-0.18099 0.038784-0.35552 0.045248-0.17453 0.13574-0.31027 0.09696-0.13574 0.23917-0.21978 0.14867-0.084 0.35552-0.084 0.14221 0 0.26502 0.0582 0.12928 0.0582 0.23917 0.14867 0.10989-0.0905 0.2327-0.14867 0.12928-0.0582 0.27795-0.0582 0.20685 0 0.34906 0.084 0.14867 0.084 0.23917 0.21978 0.09696 0.13574 0.13574 0.31027 0.045248 0.17453 0.045248 0.35552z"/>
   <path d="m9.7877 193.07h-0.85971q-0.87264-0.77569-0.87264-1.7194 0-0.47188 0.21978-0.8985 0.22624-0.42663 0.65287-0.808h0.91143v2.327h-1.0472q0.10989 0.31674 0.34906 0.5753 0.23917 0.2521 0.6464 0.52359zm-0.49127-1.7324v-1.2928q-0.56883 0.58177-0.58823 1.2928z"/>
   <path d="m11.118 187.77v3.5681h0.51712v0.65933h-0.51712v1.073h-0.60115v-1.073h-0.51712v-0.65933h0.51712v-3.5681z"/>
   <path d="m13.002 189.65q-0.63347 0.47187-0.67226 1.1183-0.01293 0.14867 0.08403 0.27795 0.10342 0.12928 0.21978 0.28441 0.12282 0.14868 0.22624 0.33613 0.10342 0.181 0.10342 0.43309 0 0.11636-0.04525 0.24564-0.03878 0.12281-0.10342 0.25209-0.05818 0.12928-0.13574 0.2521-0.07757 0.11635-0.14867 0.21978h-0.7369q0.09696-0.0905 0.20685-0.20039t0.20038-0.22624q0.0905-0.11635 0.14867-0.2327 0.05818-0.12282 0.05818-0.23917-0.0065-0.15514-0.10989-0.30381-0.10342-0.15514-0.22624-0.3232-0.12282-0.16807-0.22624-0.35552-0.09696-0.19392-0.09696-0.42016 0-0.30381 0.10989-0.58177 0.10989-0.27795 0.34906-0.53651z"/>
  </g>
 </g>
 <g transform="translate(8.9721 -187.23)">
  <g transform="scale(1.0006 .99939)" fill="#2a085e" stroke="#fff" stroke-width=".12562" aria-label="Helsinki Mets">
   <path d="m-6.3174 193.07h-0.60115v-1.073h-0.47187v1.073h-0.60115v-1.073h-0.38138l-0.34259-0.65933h0.72397v-3.5681h0.60115v3.5681h0.47187v-3.5681h0.60115v5.3005z"/>
   <path d="m-4.3902 193.07h-0.85971q-0.87264-0.77569-0.87264-1.7194 0-0.47188 0.21978-0.8985 0.22624-0.42663 0.65287-0.808h0.91143v2.327h-1.0472q0.10989 0.31674 0.34906 0.5753 0.23917 0.2521 0.6464 0.52359zm-0.49127-1.7324v-1.2928q-0.56883 0.58177-0.58823 1.2928z"/>
   <path d="m-3.1379 193.07h-0.13574q-0.2521 0-0.4137-0.0776-0.15514-0.084-0.2521-0.21978-0.090496-0.14221-0.12282-0.32966-0.03232-0.19392-0.03232-0.4137v-4.4343h0.60115v4.4343q0 0.0453 0 0.15514 0.00646 0.10988 0.03232 0.1422 0.051712 0.0646 0.14867 0.0582 0.09696-0.0129 0.17453-0.0129z"/>
   <path d="m-1.6932 189.65q-0.63347 0.47187-0.67226 1.1183-0.012928 0.14867 0.084032 0.27795 0.10342 0.12928 0.21978 0.28441 0.12282 0.14868 0.22624 0.33613 0.10342 0.181 0.10342 0.43309 0 0.11636-0.045248 0.24564-0.038784 0.12281-0.10342 0.25209-0.058176 0.12928-0.13574 0.2521-0.077568 0.11635-0.14867 0.21978h-0.7369q0.09696-0.0905 0.20685-0.20039 0.10989-0.10989 0.20038-0.22624 0.090496-0.11635 0.14867-0.2327 0.058176-0.12282 0.058176-0.23917-0.00646-0.15514-0.10989-0.30381-0.10342-0.15514-0.22624-0.3232-0.12282-0.16807-0.22624-0.35552-0.09696-0.19392-0.09696-0.42016 0-0.30381 0.10989-0.58177 0.10989-0.27795 0.34906-0.53651z"/>
   <path d="m-0.88623 193.07h-0.60115v-3.4259h0.60115zm-0.60115-4.3244q0-0.12928 0.084032-0.21332 0.084032-0.0905 0.21331-0.0905 0.12928 0 0.21331 0.0905 0.090496 0.084 0.090496 0.21332 0 0.12928-0.090496 0.21331-0.084032 0.084-0.21331 0.084-0.12928 0-0.21331-0.084-0.084032-0.084-0.084032-0.21331z"/>
   <path d="m1.0512 193.08h-0.60115v-2.4822q0-0.0582-0.006464-0.12282-0.006464-0.0711-0.03232-0.12282-0.025856-0.0582-0.071104-0.0905-0.045248-0.0388-0.12282-0.0388-0.077568 0-0.12282 0.0388-0.038784 0.0323-0.06464 0.0905t-0.03232 0.12282q-0.006464 0.0646-0.006464 0.12282v2.4822h-0.60115v-2.4822q0-0.20039 0.038784-0.38784 0.045248-0.19393 0.14221-0.3426 0.09696-0.15513 0.2521-0.24563 0.1616-0.0905 0.39431-0.0905t0.38784 0.0905q0.1616 0.0905 0.25856 0.24563 0.09696 0.14867 0.14221 0.3426 0.045248 0.18745 0.045248 0.38784z"/>
   <path d="m2.9834 193.07h-0.60115v-0.87911q0-0.0711-0.025856-0.12928-0.019392-0.0646-0.10989-0.0646h-0.38138v1.073h-0.60115v-5.3005h0.60115v3.4776q0.29088-0.29734 0.40077-0.67226 0.11635-0.38137 0.11635-0.78861v-0.1422h0.60115v0.1422q0 0.4137-0.090496 0.83386-0.084032 0.4137-0.34259 0.74983 0.27149 0.11635 0.34906 0.34259 0.084032 0.21978 0.084032 0.49127z"/>
   <path d="m3.8229 193.07h-0.60115v-3.4259h0.60115zm-0.60115-4.3244q0-0.12928 0.084032-0.21332 0.084032-0.0905 0.21331-0.0905 0.12928 0 0.21331 0.0905 0.090496 0.084 0.090496 0.21332 0 0.12928-0.090496 0.21331-0.084032 0.084-0.21331 0.084-0.12928 0-0.21331-0.084-0.084032-0.084-0.084032-0.21331z"/>
   <path d="m7.8643 193.07h-0.60115v-4.4731q0-0.0905-0.03232-0.18099-0.03232-0.0905-0.14867-0.0905-0.12282 0-0.1616 0.084-0.03232 0.084-0.03232 0.18745v4.4731h-0.60115v-4.4731q0-0.097-0.038784-0.18099-0.03232-0.0905-0.14867-0.0905t-0.15514 0.0905q-0.03232 0.084-0.03232 0.18099v4.4731h-0.60115v-4.4731q0-0.18099 0.038784-0.35552 0.045248-0.17453 0.13574-0.31027 0.09696-0.13574 0.23917-0.21978 0.14867-0.084 0.35552-0.084 0.14221 0 0.26502 0.0582 0.12928 0.0582 0.23917 0.14867 0.10989-0.0905 0.2327-0.14867 0.12928-0.0582 0.27795-0.0582 0.20685 0 0.34906 0.084 0.14867 0.084 0.23917 0.21978 0.09696 0.13574 0.13574 0.31027 0.045248 0.17453 0.045248 0.35552z"/>
   <path d="m9.7877 193.07h-0.85971q-0.87264-0.77569-0.87264-1.7194 0-0.47188 0.21978-0.8985 0.22624-0.42663 0.65287-0.808h0.91143v2.327h-1.0472q0.10989 0.31674 0.34906 0.5753 0.23917 0.2521 0.6464 0.52359zm-0.49127-1.7324v-1.2928q-0.56883 0.58177-0.58823 1.2928z"/>
   <path d="m11.118 187.77v3.5681h0.51712v0.65933h-0.51712v1.073h-0.60115v-1.073h-0.51712v-0.65933h0.51712v-3.5681z"/>
   <path d="m13.002 189.65q-0.63347 0.47187-0.67226 1.1183-0.01293 0.14867 0.08403 0.27795 0.10342 0.12928 0.21978 0.28441 0.12282 0.14868 0.22624 0.33613 0.10342 0.181 0.10342 0.43309 0 0.11636-0.04525 0.24564-0.03878 0.12281-0.10342 0.25209-0.05818 0.12928-0.13574 0.2521-0.07757 0.11635-0.14867 0.21978h-0.7369q0.09696-0.0905 0.20685-0.20039t0.20038-0.22624q0.0905-0.11635 0.14867-0.2327 0.05818-0.12282 0.05818-0.23917-0.0065-0.15514-0.10989-0.30381-0.10342-0.15514-0.22624-0.3232-0.12282-0.16807-0.22624-0.35552-0.09696-0.19392-0.09696-0.42016 0-0.30381 0.10989-0.58177 0.10989-0.27795 0.34906-0.53651z"/>
  </g>
 </g>
</svg>
